<svg xmlns="http://www.w3.org/2000/svg" width="24" height="24" viewBox="0 0 24 24" fill="none">
<rect width="24" height="24" fill="white"></rect>
<rect x="18" y="15" width="2" height="6" fill="#131814"></rect>
<rect x="4" y="15" width="2" height="6" fill="#131814"></rect>
<rect x="5" y="20" width="14" height="2" fill="#131814"></rect>
<rect x="5" y="14" width="2" height="2" fill="#131814"></rect>
<rect width="2" height="2" transform="matrix(-1 0 0 1 19 14)" fill="#131814"></rect>
<rect x="6" y="13" width="2" height="2" fill="#131814"></rect>
<rect width="2" height="2" transform="matrix(-1 0 0 1 18 13)" fill="#131814"></rect>
<rect x="7" y="12" width="2" height="2" fill="#131814"></rect>
<rect x="9" y="12" width="2" height="2" fill="#131814"></rect>
<rect x="10" y="9" width="4" height="2" fill="#131814"></rect>
<rect x="10" y="3" width="4" height="2" fill="#131814"></rect>
<rect x="15" y="4" width="6" height="2" transform="rotate(90 15 4)" fill="#131814"></rect>
<rect x="11" y="4" width="6" height="2" transform="rotate(90 11 4)" fill="#131814"></rect>
<rect x="11" y="12" width="2" height="2" fill="#131814"></rect>
<rect x="13" y="12" width="2" height="2" fill="#131814"></rect>
<rect width="2" height="2" transform="matrix(-1 0 0 1 17 12)" fill="#131814"></rect>
</svg>