<svg xmlns="http://www.w3.org/2000/svg" width="34" height="33" viewBox="0 0 34 33" fill="none">
      <g filter="url(#filter0_d_1167_53402)">
      <rect width="32" height="32" rx="8" transform="matrix(1 0 0 -1 1.5 32)" fill="white" shape-rendering="crispEdges"></rect>
      <rect x="0.25" y="-0.25" width="31.5" height="31.5" rx="7.75" transform="matrix(1 0 0 -1 1.5 31.5)" stroke="black" stroke-opacity="0.2" stroke-width="0.5" shape-rendering="crispEdges"></rect>
      <rect width="2.51607" height="2.39439" transform="matrix(-1 0 -0.0153903 -0.999882 17.9189 15.2859)" fill="#865CFD"></rect>
      <rect width="2.51607" height="2.39439" transform="matrix(-1 0 -0.0153903 -0.999882 20.3994 12.892)" fill="#865CFD"></rect>
      <rect width="2.51607" height="2.39439" transform="matrix(-1 0 -0.0153903 -0.999882 15.8184 17.6798)" fill="#865CFD"></rect>
      <rect width="2.51607" height="2.39439" transform="matrix(-1 0 -0.0153903 -0.999882 17.9932 20.0739)" fill="#865CFD"></rect>
      <rect width="2.51607" height="2.39439" transform="matrix(-1 0 -0.0153903 -0.999882 20.5459 22.4678)" fill="#865CFD"></rect>
      </g>
      <defs>
      <filter id="filter0_d_1167_53402" x="0.5" y="0" width="33" height="33" filterUnits="userSpaceOnUse" color-interpolation-filters="sRGB">
      <feFlood flood-opacity="0" result="BackgroundImageFix"></feFlood>
      <feColorMatrix in="SourceAlpha" type="matrix" values="0 0 0 0 0 0 0 0 0 0 0 0 0 0 0 0 0 0 127 0" result="hardAlpha"></feColorMatrix>
      <feOffset dx="-1" dy="1"></feOffset>
      <feComposite in2="hardAlpha" operator="out"></feComposite>
      <feColorMatrix type="matrix" values="0 0 0 0 0.52549 0 0 0 0 0.360784 0 0 0 0 0.992157 0 0 0 1 0"></feColorMatrix>
      <feBlend mode="normal" in2="BackgroundImageFix" result="effect1_dropShadow_1167_53402"></feBlend>
      <feBlend mode="normal" in="SourceGraphic" in2="effect1_dropShadow_1167_53402" result="shape"></feBlend>
      </filter>
      </defs>
      </svg>