<svg width="24" height="24" viewBox="0 0 24 24" fill="none" xmlns="http://www.w3.org/2000/svg">
<rect x="4.88889" y="3.11114" width="0.888889" height="0.888889" fill="#131814"></rect>
<rect x="4.88889" y="4.00003" width="0.888889" height="0.888889" fill="#131814"></rect>
<rect x="5.77777" y="3.11114" width="0.888889" height="0.888889" fill="#131814"></rect>
<rect x="6.66666" y="3.11114" width="0.888889" height="0.888889" fill="#131814"></rect>
<rect x="7.55554" y="3.11114" width="0.888889" height="0.888889" fill="#131814"></rect>
<rect x="8.44446" y="3.11114" width="0.888889" height="0.888889" fill="#131814"></rect>
<rect x="9.33334" y="3.11114" width="0.888889" height="0.888889" fill="#131814"></rect>
<rect x="10.2222" y="3.11114" width="0.888889" height="0.888889" fill="#131814"></rect>
<rect x="11.1111" y="3.11114" width="0.888889" height="0.888889" fill="#131814"></rect>
<rect x="12" y="3.11114" width="0.888889" height="0.888889" fill="#131814"></rect>
<rect x="12.8889" y="3.11114" width="0.888889" height="0.888889" fill="#131814"></rect>
<rect x="13.7778" y="3.11114" width="0.888889" height="0.888889" fill="#131814"></rect>
<rect x="14.6667" y="3.11114" width="0.888889" height="0.888889" fill="#131814"></rect>
<rect x="15.5555" y="3.11114" width="0.888889" height="0.888889" fill="#131814"></rect>
<rect x="16.4445" y="3.11114" width="0.888889" height="0.888889" fill="#131814"></rect>
<rect x="17.3333" y="3.11114" width="0.888889" height="0.888889" fill="#131814"></rect>
<rect x="18.2222" y="3.11114" width="0.888889" height="0.888889" fill="#131814"></rect>
<rect x="19.1111" y="4.00003" width="0.888889" height="0.888889" fill="#131814"></rect>
<rect x="19.1111" y="4.88892" width="0.888889" height="0.888889" fill="#131814"></rect>
<rect x="19.1111" y="5.77781" width="0.888889" height="0.888889" fill="#131814"></rect>
<rect x="19.1111" y="6.66669" width="0.888889" height="0.888889" fill="#131814"></rect>
<rect x="19.1111" y="7.55558" width="0.888889" height="0.888889" fill="#131814"></rect>
<rect x="19.1111" y="8.44447" width="0.888889" height="0.888889" fill="#131814"></rect>
<rect x="19.1111" y="9.33336" width="0.888889" height="0.888889" fill="#131814"></rect>
<rect x="19.1111" y="10.2222" width="0.888889" height="0.888889" fill="#131814"></rect>
<rect x="19.1111" y="11.1111" width="0.888889" height="0.888889" fill="#131814"></rect>
<rect x="19.1111" y="12" width="0.888889" height="0.888889" fill="#131814"></rect>
<rect x="19.1111" y="12.8889" width="0.888889" height="0.888889" fill="#131814"></rect>
<rect x="19.1111" y="13.7778" width="0.888889" height="0.888889" fill="#131814"></rect>
<rect x="19.1111" y="14.6667" width="0.888889" height="0.888889" fill="#131814"></rect>
<rect x="19.1111" y="15.5556" width="0.888889" height="0.888889" fill="#131814"></rect>
<rect x="19.1111" y="16.4445" width="0.888889" height="0.888889" fill="#131814"></rect>
<rect x="19.1111" y="17.3334" width="0.888889" height="0.888889" fill="#131814"></rect>
<rect x="19.1111" y="18.2222" width="0.888889" height="0.888889" fill="#131814"></rect>
<rect x="19.1111" y="19.1111" width="0.888889" height="0.888889" fill="#131814"></rect>
<rect x="18.2222" y="4.00003" width="0.888889" height="0.888889" fill="#131814"></rect>
<rect x="18.2222" y="4.88892" width="0.888889" height="0.888889" fill="#131814"></rect>
<rect x="18.2222" y="5.77781" width="0.888889" height="0.888889" fill="#131814"></rect>
<rect x="18.2222" y="6.66669" width="0.888889" height="0.888889" fill="#131814"></rect>
<rect x="18.2222" y="7.55558" width="0.888889" height="0.888889" fill="#131814"></rect>
<rect x="18.2222" y="8.44447" width="0.888889" height="0.888889" fill="#131814"></rect>
<rect x="18.2222" y="9.33336" width="0.888889" height="0.888889" fill="#131814"></rect>
<rect x="18.2222" y="10.2222" width="0.888889" height="0.888889" fill="#131814"></rect>
<rect x="18.2222" y="11.1111" width="0.888889" height="0.888889" fill="#131814"></rect>
<rect x="18.2222" y="12" width="0.888889" height="0.888889" fill="#131814"></rect>
<rect x="18.2222" y="12.8889" width="0.888889" height="0.888889" fill="#131814"></rect>
<rect x="18.2222" y="13.7778" width="0.888889" height="0.888889" fill="#131814"></rect>
<rect x="18.2222" y="14.6667" width="0.888889" height="0.888889" fill="#131814"></rect>
<rect x="18.2222" y="15.5556" width="0.888889" height="0.888889" fill="#131814"></rect>
<rect x="18.2222" y="16.4445" width="0.888889" height="0.888889" fill="#131814"></rect>
<rect x="18.2222" y="17.3334" width="0.888889" height="0.888889" fill="#131814"></rect>
<rect x="18.2222" y="18.2222" width="0.888889" height="0.888889" fill="#131814"></rect>
<rect x="18.2222" y="19.1111" width="0.888889" height="0.888889" fill="#131814"></rect>
<rect x="17.3333" y="19.1111" width="0.888889" height="0.888889" fill="#131814"></rect>
<rect x="16.4445" y="19.1111" width="0.888889" height="0.888889" fill="#131814"></rect>
<rect x="15.5555" y="19.1111" width="0.888889" height="0.888889" fill="#131814"></rect>
<rect x="14.6667" y="19.1111" width="0.888889" height="0.888889" fill="#131814"></rect>
<rect x="13.7778" y="19.1111" width="0.888889" height="0.888889" fill="#131814"></rect>
<rect x="12.8889" y="19.1111" width="0.888889" height="0.888889" fill="#131814"></rect>
<rect x="12" y="19.1111" width="0.888889" height="0.888889" fill="#131814"></rect>
<rect x="11.1111" y="19.1111" width="0.888889" height="0.888889" fill="#131814"></rect>
<rect x="10.2222" y="19.1111" width="0.888889" height="0.888889" fill="#131814"></rect>
<rect x="9.33334" y="19.1111" width="0.888889" height="0.888889" fill="#131814"></rect>
<rect x="8.44446" y="19.1111" width="0.888889" height="0.888889" fill="#131814"></rect>
<rect x="7.55554" y="19.1111" width="0.888889" height="0.888889" fill="#131814"></rect>
<rect x="6.66666" y="19.1111" width="0.888889" height="0.888889" fill="#131814"></rect>
<rect x="5.77777" y="19.1111" width="0.888889" height="0.888889" fill="#131814"></rect>
<rect x="4.88889" y="19.1111" width="0.888889" height="0.888889" fill="#131814"></rect>
<rect x="4.88889" y="18.2222" width="0.888889" height="0.888889" fill="#131814"></rect>
<rect x="4.88889" y="17.3334" width="0.888889" height="0.888889" fill="#131814"></rect>
<rect x="4.88889" y="16.4445" width="0.888889" height="0.888889" fill="#131814"></rect>
<rect x="4.88889" y="15.5556" width="0.888889" height="0.888889" fill="#131814"></rect>
<rect x="4.88889" y="14.6667" width="0.888889" height="0.888889" fill="#131814"></rect>
<rect x="4.88889" y="13.7778" width="0.888889" height="0.888889" fill="#131814"></rect>
<rect x="4.88889" y="12.8889" width="0.888889" height="0.888889" fill="#131814"></rect>
<rect x="4.88889" y="12" width="0.888889" height="0.888889" fill="#131814"></rect>
<rect x="4.88889" y="11.1111" width="0.888889" height="0.888889" fill="#131814"></rect>
<rect x="4.88889" y="10.2222" width="0.888889" height="0.888889" fill="#131814"></rect>
<rect x="4.88889" y="9.33336" width="0.888889" height="0.888889" fill="#131814"></rect>
<rect x="4.88889" y="8.44447" width="0.888889" height="0.888889" fill="#131814"></rect>
<rect x="4.88889" y="7.55558" width="0.888889" height="0.888889" fill="#131814"></rect>
<rect x="4.88889" y="6.66669" width="0.888889" height="0.888889" fill="#131814"></rect>
<rect x="4.88889" y="5.77781" width="0.888889" height="0.888889" fill="#131814"></rect>
<rect x="4.88889" y="4.88892" width="0.888889" height="0.888889" fill="#131814"></rect>
<rect x="8.44446" y="6.66669" width="0.888889" height="0.888889" fill="#131814"></rect>
<rect x="8.44446" y="7.55558" width="0.888889" height="0.888889" fill="#131814"></rect>
<rect x="8.44446" y="8.44447" width="0.888889" height="0.888889" fill="#131814"></rect>
<rect x="8.44446" y="9.33336" width="0.888889" height="0.888889" fill="#131814"></rect>
<rect x="9.33334" y="9.33336" width="0.888889" height="0.888889" fill="#131814"></rect>
<rect x="9.33334" y="10.2222" width="0.888889" height="0.888889" fill="#131814"></rect>
<rect x="10.2222" y="10.2222" width="0.888889" height="0.888889" fill="#131814"></rect>
<rect x="9.33334" y="11.1111" width="0.888889" height="0.888889" fill="#131814"></rect>
<rect x="10.2222" y="11.1111" width="0.888889" height="0.888889" fill="#131814"></rect>
<rect x="11.1111" y="11.1111" width="0.888889" height="0.888889" fill="#131814"></rect>
<rect x="12.8889" y="11.1111" width="0.888889" height="0.888889" fill="#131814"></rect>
<rect x="13.7778" y="10.2222" width="0.888889" height="0.888889" fill="#131814"></rect>
<rect x="13.7778" y="9.33336" width="0.888889" height="0.888889" fill="#131814"></rect>
<rect x="12.8889" y="10.2222" width="0.888889" height="0.888889" fill="#131814"></rect>
<rect x="14.6667" y="9.33336" width="0.888889" height="0.888889" fill="#131814"></rect>
<rect x="14.6667" y="8.44447" width="0.888889" height="0.888889" fill="#131814"></rect>
<rect x="14.6667" y="7.55558" width="0.888889" height="0.888889" fill="#131814"></rect>
<rect x="14.6667" y="6.66669" width="0.888889" height="0.888889" fill="#131814"></rect>
<rect x="10.2222" y="11.1111" width="0.888889" height="0.888889" fill="#131814"></rect>
<rect x="11.1111" y="11.1111" width="0.888889" height="0.888889" fill="#131814"></rect>
<rect x="11.1111" y="12" width="0.888889" height="0.888889" fill="#131814"></rect>
<rect x="12" y="11.1111" width="0.888889" height="0.888889" fill="#131814"></rect>
<rect x="12" y="12" width="0.888889" height="0.888889" fill="#131814"></rect>
<rect x="13.7778" y="11.1111" width="0.888889" height="0.888889" fill="#131814"></rect>
<rect x="14.6667" y="10.2222" width="0.888889" height="0.888889" fill="#131814"></rect>
<rect x="15.5555" y="9.33336" width="0.888889" height="0.888889" fill="#131814"></rect>
<rect x="15.5555" y="8.44447" width="0.888889" height="0.888889" fill="#131814"></rect>
<rect x="15.5555" y="7.55558" width="0.888889" height="0.888889" fill="#131814"></rect>
<rect x="15.5555" y="6.66669" width="0.888889" height="0.888889" fill="#131814"></rect>
<rect x="8.44446" y="10.2222" width="0.888889" height="0.888889" fill="#131814"></rect>
<rect x="4" y="19.1111" width="0.888889" height="0.888889" fill="#131814"></rect>
<rect x="4" y="18.2222" width="0.888889" height="0.888889" fill="#131814"></rect>
<rect x="4" y="17.3334" width="0.888889" height="0.888889" fill="#131814"></rect>
<rect x="4" y="16.4445" width="0.888889" height="0.888889" fill="#131814"></rect>
<rect x="4" y="15.5556" width="0.888889" height="0.888889" fill="#131814"></rect>
<rect x="4" y="14.6667" width="0.888889" height="0.888889" fill="#131814"></rect>
<rect x="4" y="13.7778" width="0.888889" height="0.888889" fill="#131814"></rect>
<rect x="4" y="12.8889" width="0.888889" height="0.888889" fill="#131814"></rect>
<rect x="4" y="12" width="0.888889" height="0.888889" fill="#131814"></rect>
<rect x="4" y="11.1111" width="0.888889" height="0.888889" fill="#131814"></rect>
<rect x="4" y="10.2222" width="0.888889" height="0.888889" fill="#131814"></rect>
<rect x="4" y="9.33336" width="0.888889" height="0.888889" fill="#131814"></rect>
<rect x="4" y="8.44447" width="0.888889" height="0.888889" fill="#131814"></rect>
<rect x="4" y="7.55558" width="0.888889" height="0.888889" fill="#131814"></rect>
<rect x="4" y="6.66669" width="0.888889" height="0.888889" fill="#131814"></rect>
<rect x="4" y="5.77781" width="0.888889" height="0.888889" fill="#131814"></rect>
<rect x="4" y="4.88892" width="0.888889" height="0.888889" fill="#131814"></rect>
<rect x="7.55554" y="6.66669" width="0.888889" height="0.888889" fill="#131814"></rect>
<rect x="7.55554" y="7.55558" width="0.888889" height="0.888889" fill="#131814"></rect>
<rect x="7.55554" y="8.44447" width="0.888889" height="0.888889" fill="#131814"></rect>
<rect x="7.55554" y="9.33336" width="0.888889" height="0.888889" fill="#131814"></rect>
<rect x="18.2222" y="20" width="0.888889" height="0.888889" fill="#131814"></rect>
<rect x="17.3333" y="20" width="0.888889" height="0.888889" fill="#131814"></rect>
<rect x="16.4445" y="20" width="0.888889" height="0.888889" fill="#131814"></rect>
<rect x="15.5555" y="20" width="0.888889" height="0.888889" fill="#131814"></rect>
<rect x="14.6667" y="20" width="0.888889" height="0.888889" fill="#131814"></rect>
<rect x="13.7778" y="20" width="0.888889" height="0.888889" fill="#131814"></rect>
<rect x="12.8889" y="20" width="0.888889" height="0.888889" fill="#131814"></rect>
<rect x="12" y="20" width="0.888889" height="0.888889" fill="#131814"></rect>
<rect x="11.1111" y="20" width="0.888889" height="0.888889" fill="#131814"></rect>
<rect x="10.2222" y="20" width="0.888889" height="0.888889" fill="#131814"></rect>
<rect x="9.33334" y="20" width="0.888889" height="0.888889" fill="#131814"></rect>
<rect x="8.44446" y="20" width="0.888889" height="0.888889" fill="#131814"></rect>
<rect x="7.55554" y="20" width="0.888889" height="0.888889" fill="#131814"></rect>
<rect x="6.66666" y="20" width="0.888889" height="0.888889" fill="#131814"></rect>
<rect x="5.77777" y="20" width="0.888889" height="0.888889" fill="#131814"></rect>
<rect x="4.88889" y="20" width="0.888889" height="0.888889" fill="#131814"></rect>
<rect x="17.3333" y="4.00003" width="0.888889" height="0.888889" fill="#131814"></rect>
<rect x="16.4445" y="4.00003" width="0.888889" height="0.888889" fill="#131814"></rect>
<rect x="15.5555" y="4.00003" width="0.888889" height="0.888889" fill="#131814"></rect>
<rect x="14.6667" y="4.00003" width="0.888889" height="0.888889" fill="#131814"></rect>
<rect x="13.7778" y="4.00003" width="0.888889" height="0.888889" fill="#131814"></rect>
<rect x="12.8889" y="4.00003" width="0.888889" height="0.888889" fill="#131814"></rect>
<rect x="12" y="4.00003" width="0.888889" height="0.888889" fill="#131814"></rect>
<rect x="11.1111" y="4.00003" width="0.888889" height="0.888889" fill="#131814"></rect>
<rect x="10.2222" y="4.00003" width="0.888889" height="0.888889" fill="#131814"></rect>
<rect x="9.33334" y="4.00003" width="0.888889" height="0.888889" fill="#131814"></rect>
<rect x="8.44446" y="4.00003" width="0.888889" height="0.888889" fill="#131814"></rect>
<rect x="7.55554" y="4.00003" width="0.888889" height="0.888889" fill="#131814"></rect>
<rect x="6.66666" y="4.00003" width="0.888889" height="0.888889" fill="#131814"></rect>
<rect x="5.77777" y="4.00003" width="0.888889" height="0.888889" fill="#131814"></rect>
<rect x="4" y="4.00003" width="0.888889" height="0.888889" fill="#131814"></rect>
</svg>