<svg width="24" height="24" viewBox="0 0 20 20" fill="none" xmlns="http://www.w3.org/2000/svg">
    <path fill-rule="evenodd" clip-rule="evenodd" d="M7.74988 2.5H6.99988V3.25H6.25H5.5V4H4.75V4.75H4V5.5H4.75H5.5H6.25V4.75H6.99988H7H7.74988V4V3.25V2.5ZM7.75 2.5H8.5H9.25H10H10.75H11.5V3.25H12.2499V4V4.75H11.5H11.4999H10.75V4H10H9.25H8.5H7.75V3.25V2.5ZM12.25 3.25H13V4H13.75V4.75H14.5V5.5H13.75H13H12.25V4.75V4V3.25ZM13.75 5.50001H14.5H15.25V6.25V6.25001V7H15.9999V7.75V8.5V9.25V10V10.75V11.5H15.25V12.25V13H14.5V13.75H15.25V14.5H16V15.25H16.75V16H17.5V16.75V17.5H16.75H16V16.75H15.25V16H14.5V15.25H13.75V14.5H13V15.25H12.25V14.5V13.75V13H13V12.25H13.75V11.5V10.75H14.5V10V9.25V8.5V7.75H13.75V7V6.25001H13V5.50001H13.75ZM11.5 13.75H12.2499V14.5V15.25H11.5V16H10.75H10H9.25H8.5H7.75V15.25V14.5H8.5H9.25H10H10.75V13.75H11.4999H11.5ZM4.75 5.50001H4H3.25V6.25V6.25001V7H2.5V7.75V8.5V9.25V10V10.75V11.5H3.25V12.25V13H4V13.75H4.75V14.5H5.5V15.25H6.25H6.99988V16H7.74988V15.25V14.5V13.75H7H6.99988H6.25V13H5.5V12.25H4.75V11.5V10.75H4V10V9.25V8.5V7.75H4.75V7V6.25001H5.5V5.50001H4.75Z" fill="#131814"></path>
    </svg>