<svg xmlns="http://www.w3.org/2000/svg" width="24" height="24" viewBox="0 0 24 24" fill="none">
<rect x="12" y="5.70003" width="0.9" height="0.9" fill="#131814"/>
<rect x="13.8" y="3.90002" width="0.9" height="0.9" fill="#131814"/>
<rect x="15.6" y="3.90002" width="0.9" height="0.9" fill="#131814"/>
<rect x="16.5" y="3.90002" width="0.9" height="0.9" fill="#131814"/>
<rect x="17.4" y="4.80002" width="0.9" height="0.9" fill="#131814"/>
<rect x="18.3" y="4.80002" width="0.9" height="0.9" fill="#131814"/>
<rect x="16.5" y="4.80002" width="0.9" height="0.9" fill="#131814"/>
<rect x="17.4" y="5.70003" width="0.9" height="0.9" fill="#131814"/>
<rect x="18.3" y="5.70003" width="0.9" height="0.9" fill="#131814"/>
<rect x="19.2" y="5.70003" width="0.9" height="0.9" fill="#131814"/>
<rect x="18.3" y="6.60002" width="0.9" height="0.9" fill="#131814"/>
<rect x="19.2" y="6.60002" width="0.9" height="0.9" fill="#131814"/>
<rect x="20.1" y="6.60002" width="0.9" height="0.9" fill="#131814"/>
<rect x="19.2" y="7.50003" width="0.9" height="0.9" fill="#131814"/>
<rect x="20.1" y="7.50003" width="0.9" height="0.9" fill="#131814"/>
<rect x="20.1" y="8.40002" width="0.9" height="0.9" fill="#131814"/>
<rect x="19.2" y="8.40002" width="0.9" height="0.9" fill="#131814"/>
<rect x="19.2" y="9.30002" width="0.9" height="0.9" fill="#131814"/>
<rect x="20.1" y="9.30002" width="0.9" height="0.9" fill="#131814"/>
<rect x="20.1" y="10.2" width="0.9" height="0.9" fill="#131814"/>
<rect x="19.2" y="10.2" width="0.9" height="0.9" fill="#131814"/>
<rect x="18.3" y="11.1" width="0.9" height="0.9" fill="#131814"/>
<rect x="19.2" y="11.1" width="0.9" height="0.9" fill="#131814"/>
<rect x="20.1" y="11.1" width="0.9" height="0.9" fill="#131814"/>
<rect x="19.2" y="12" width="0.9" height="0.9" fill="#131814"/>
<rect x="18.3" y="12" width="0.9" height="0.9" fill="#131814"/>
<rect x="17.4" y="12" width="0.9" height="0.9" fill="#131814"/>
<rect x="17.4" y="12.9" width="0.9" height="0.9" fill="#131814"/>
<rect x="16.5" y="13.8" width="0.9" height="0.9" fill="#131814"/>
<rect x="17.4" y="13.8" width="0.9" height="0.9" fill="#131814"/>
<rect x="16.5" y="12.9" width="0.9" height="0.9" fill="#131814"/>
<rect x="15.6" y="13.8" width="0.9" height="0.9" fill="#131814"/>
<rect x="15.6" y="14.7" width="0.9" height="0.9" fill="#131814"/>
<rect x="16.5" y="14.7" width="0.9" height="0.9" fill="#131814"/>
<rect x="14.7" y="14.7" width="0.9" height="0.9" fill="#131814"/>
<rect x="14.7" y="15.6" width="0.9" height="0.9" fill="#131814"/>
<rect x="13.8" y="15.6" width="0.9" height="0.9" fill="#131814"/>
<rect x="13.8" y="16.5" width="0.9" height="0.9" fill="#131814"/>
<rect x="14.7" y="16.5" width="0.9" height="0.9" fill="#131814"/>
<rect x="12.9" y="16.5" width="0.9" height="0.9" fill="#131814"/>
<rect x="12.9" y="17.4" width="0.9" height="0.9" fill="#131814"/>
<rect x="13.8" y="17.4" width="0.9" height="0.9" fill="#131814"/>
<rect x="12" y="17.4" width="0.9" height="0.9" fill="#131814"/>
<rect x="12" y="18.3" width="0.9" height="0.9" fill="#131814"/>
<rect x="12.9" y="18.3" width="0.9" height="0.9" fill="#131814"/>
<rect x="12" y="19.2" width="0.9" height="0.9" fill="#131814"/>
<rect x="15.6" y="15.6" width="0.9" height="0.9" fill="#131814"/>
<rect x="18.3" y="12.9" width="0.9" height="0.9" fill="#131814"/>
<rect x="14.7" y="3.90002" width="0.9" height="0.9" fill="#131814"/>
<rect x="12" y="6.60002" width="0.9" height="0.9" fill="#131814"/>
<rect x="12.9" y="4.80002" width="0.9" height="0.9" fill="#131814"/>
<rect x="13.8" y="4.80002" width="0.9" height="0.9" fill="#131814"/>
<rect x="14.7" y="3.90002" width="0.9" height="0.9" fill="#131814"/>
<rect x="15.6" y="4.80002" width="0.9" height="0.9" fill="#131814"/>
<rect x="14.7" y="4.80002" width="0.9" height="0.9" fill="#131814"/>
<rect x="12.9" y="5.70003" width="0.9" height="0.9" fill="#131814"/>
<rect width="0.9" height="0.9" transform="matrix(-1 0 0 1 12 5.7)" fill="#131814"/>
<rect width="0.9" height="0.9" transform="matrix(-1 0 0 1 10.2 3.89999)" fill="#131814"/>
<rect width="0.9" height="0.9" transform="matrix(-1 0 0 1 8.40002 3.89999)" fill="#131814"/>
<rect width="0.9" height="0.9" transform="matrix(-1 0 0 1 7.5 3.89999)" fill="#131814"/>
<rect width="0.9" height="0.9" transform="matrix(-1 0 0 1 6.59998 4.79999)" fill="#131814"/>
<rect width="0.9" height="0.9" transform="matrix(-1 0 0 1 5.69995 4.79999)" fill="#131814"/>
<rect width="0.9" height="0.9" transform="matrix(-1 0 0 1 7.5 4.79999)" fill="#131814"/>
<rect width="0.9" height="0.9" transform="matrix(-1 0 0 1 6.59998 5.7)" fill="#131814"/>
<rect width="0.9" height="0.9" transform="matrix(-1 0 0 1 5.69995 5.7)" fill="#131814"/>
<rect width="0.9" height="0.9" transform="matrix(-1 0 0 1 4.80005 5.7)" fill="#131814"/>
<rect width="0.9" height="0.9" transform="matrix(-1 0 0 1 5.69995 6.59999)" fill="#131814"/>
<rect width="0.9" height="0.9" transform="matrix(-1 0 0 1 4.80005 6.59999)" fill="#131814"/>
<rect width="0.9" height="0.9" transform="matrix(-1 0 0 1 3.90002 6.59999)" fill="#131814"/>
<rect width="0.9" height="0.9" transform="matrix(-1 0 0 1 4.80005 7.5)" fill="#131814"/>
<rect width="0.9" height="0.9" transform="matrix(-1 0 0 1 3.90002 7.5)" fill="#131814"/>
<rect width="0.9" height="0.9" transform="matrix(-1 0 0 1 3.90002 8.39999)" fill="#131814"/>
<rect width="0.9" height="0.9" transform="matrix(-1 0 0 1 4.80005 8.39999)" fill="#131814"/>
<rect width="0.9" height="0.9" transform="matrix(-1 0 0 1 4.80005 9.29999)" fill="#131814"/>
<rect width="0.9" height="0.9" transform="matrix(-1 0 0 1 3.90002 9.29999)" fill="#131814"/>
<rect width="0.9" height="0.9" transform="matrix(-1 0 0 1 3.90002 10.2)" fill="#131814"/>
<rect width="0.9" height="0.9" transform="matrix(-1 0 0 1 4.80005 10.2)" fill="#131814"/>
<rect width="0.9" height="0.9" transform="matrix(-1 0 0 1 5.69995 11.1)" fill="#131814"/>
<rect width="0.9" height="0.9" transform="matrix(-1 0 0 1 4.80005 11.1)" fill="#131814"/>
<rect width="0.9" height="0.9" transform="matrix(-1 0 0 1 3.90002 11.1)" fill="#131814"/>
<rect width="0.9" height="0.9" transform="matrix(-1 0 0 1 4.80005 12)" fill="#131814"/>
<rect width="0.9" height="0.9" transform="matrix(-1 0 0 1 5.69995 12)" fill="#131814"/>
<rect width="0.9" height="0.9" transform="matrix(-1 0 0 1 6.59998 12)" fill="#131814"/>
<rect width="0.9" height="0.9" transform="matrix(-1 0 0 1 6.59998 12.9)" fill="#131814"/>
<rect width="0.9" height="0.9" transform="matrix(-1 0 0 1 7.5 13.8)" fill="#131814"/>
<rect width="0.9" height="0.9" transform="matrix(-1 0 0 1 6.59998 13.8)" fill="#131814"/>
<rect width="0.9" height="0.9" transform="matrix(-1 0 0 1 7.5 12.9)" fill="#131814"/>
<rect width="0.9" height="0.9" transform="matrix(-1 0 0 1 8.40002 13.8)" fill="#131814"/>
<rect width="0.9" height="0.9" transform="matrix(-1 0 0 1 8.40002 14.7)" fill="#131814"/>
<rect width="0.9" height="0.9" transform="matrix(-1 0 0 1 7.5 14.7)" fill="#131814"/>
<rect width="0.9" height="0.9" transform="matrix(-1 0 0 1 9.30005 14.7)" fill="#131814"/>
<rect width="0.9" height="0.9" transform="matrix(-1 0 0 1 9.30005 15.6)" fill="#131814"/>
<rect width="0.9" height="0.9" transform="matrix(-1 0 0 1 10.2 15.6)" fill="#131814"/>
<rect width="0.9" height="0.9" transform="matrix(-1 0 0 1 10.2 16.5)" fill="#131814"/>
<rect width="0.9" height="0.9" transform="matrix(-1 0 0 1 9.30005 16.5)" fill="#131814"/>
<rect width="0.9" height="0.9" transform="matrix(-1 0 0 1 11.1 16.5)" fill="#131814"/>
<rect width="0.9" height="0.9" transform="matrix(-1 0 0 1 11.1 17.4)" fill="#131814"/>
<rect width="0.9" height="0.9" transform="matrix(-1 0 0 1 10.2 17.4)" fill="#131814"/>
<rect width="0.9" height="0.9" transform="matrix(-1 0 0 1 12 17.4)" fill="#131814"/>
<rect width="0.9" height="0.9" transform="matrix(-1 0 0 1 12 18.3)" fill="#131814"/>
<rect width="0.9" height="0.9" transform="matrix(-1 0 0 1 11.1 18.3)" fill="#131814"/>
<rect width="0.9" height="0.9" transform="matrix(-1 0 0 1 12 19.2)" fill="#131814"/>
<rect width="0.9" height="0.9" transform="matrix(-1 0 0 1 8.40002 15.6)" fill="#131814"/>
<rect width="0.9" height="0.9" transform="matrix(-1 0 0 1 5.69995 12.9)" fill="#131814"/>
<rect width="0.9" height="0.9" transform="matrix(-1 0 0 1 9.30005 3.89999)" fill="#131814"/>
<rect width="0.9" height="0.9" transform="matrix(-1 0 0 1 12 6.59999)" fill="#131814"/>
<rect width="0.9" height="0.9" transform="matrix(-1 0 0 1 11.1 4.79999)" fill="#131814"/>
<rect width="0.9" height="0.9" transform="matrix(-1 0 0 1 10.2 4.79999)" fill="#131814"/>
<rect width="0.9" height="0.9" transform="matrix(-1 0 0 1 9.30005 3.89999)" fill="#131814"/>
<rect width="0.9" height="0.9" transform="matrix(-1 0 0 1 8.40002 4.79999)" fill="#131814"/>
<rect width="0.9" height="0.9" transform="matrix(-1 0 0 1 9.30005 4.79999)" fill="#131814"/>
<rect width="0.9" height="0.9" transform="matrix(-1 0 0 1 11.1 5.7)" fill="#131814"/>
</svg>