<svg xmlns="http://www.w3.org/2000/svg" width="24" height="24" viewBox="0 0 24 24" fill="none">
  <rect width="24" height="24" fill="white"/>
  <rect x="4" y="5.34473" width="1.99999" height="0.999996" fill="#3A3E41"/>
  <rect x="6" y="5.34473" width="1.99999" height="0.999996" fill="#3A3E41"/>
  <rect x="8" y="5.34473" width="1.99999" height="0.999996" fill="#3A3E41"/>
  <rect x="10" y="5.34473" width="1.99999" height="0.999996" fill="#3A3E41"/>
  <rect x="12" y="5.34473" width="1.99999" height="0.999996" fill="#3A3E41"/>
  <rect x="14" y="5.34473" width="1.99999" height="0.999996" fill="#3A3E41"/>
  <rect x="16" y="5.34473" width="1.99999" height="0.999996" fill="#3A3E41"/>
  <rect x="18" y="5.34473" width="1.99999" height="0.999996" fill="#3A3E41"/>
  <rect x="20" y="5.34473" width="1.99999" height="0.999996" fill="#3A3E41"/>
  <rect x="20" y="6.34473" width="1.99999" height="0.999996" fill="#3A3E41"/>
  <rect x="12" y="6.34473" width="1.99999" height="0.999996" fill="#3A3E41"/>
  <rect x="14" y="6.34473" width="1.99999" height="0.999996" fill="#3A3E41"/>
  <rect x="16" y="6.34473" width="1.99999" height="0.999996" fill="#3A3E41"/>
  <rect x="18" y="6.34473" width="1.99999" height="0.999996" fill="#3A3E41"/>
  <rect x="10" y="6.34473" width="1.99999" height="0.999996" fill="#3A3E41"/>
  <rect x="8" y="6.34473" width="1.99999" height="0.999996" fill="#3A3E41"/>
  <rect x="6" y="6.34473" width="1.99999" height="0.999996" fill="#3A3E41"/>
  <rect x="4" y="6.34473" width="1.99999" height="0.999996" fill="#3A3E41"/>
  <rect x="2" y="6.34473" width="1.99999" height="0.999996" fill="#3A3E41"/>
  <rect x="2" y="5.34473" width="1.99999" height="0.999996" fill="#3A3E41"/>
  <rect x="3" y="17.4551" width="0.999999" height="0.999996" fill="#3A3E41"/>
  <rect x="4" y="17.4551" width="0.999999" height="0.999996" fill="#3A3E41"/>
  <rect x="5" y="17.4551" width="0.999999" height="0.999996" fill="#3A3E41"/>
  <rect x="6" y="17.4551" width="0.999999" height="0.999996" fill="#3A3E41"/>
  <rect x="7" y="17.4551" width="0.999999" height="0.999996" fill="#3A3E41"/>
  <rect x="8" y="17.4551" width="0.999999" height="0.999996" fill="#3A3E41"/>
  <rect x="9" y="17.4551" width="0.999999" height="0.999996" fill="#3A3E41"/>
  <rect x="10" y="17.4551" width="0.999999" height="0.999996" fill="#3A3E41"/>
  <rect x="11" y="17.4551" width="0.999999" height="0.999996" fill="#3A3E41"/>
  <rect x="7" y="16.4551" width="0.999999" height="0.999996" fill="#3A3E41"/>
  <rect x="8" y="16.4551" width="0.999999" height="0.999996" fill="#3A3E41"/>
  <rect x="9" y="16.4551" width="0.999999" height="0.999996" fill="#3A3E41"/>
  <rect x="10" y="16.4551" width="0.999999" height="0.999996" fill="#3A3E41"/>
  <rect x="11" y="16.4551" width="0.999999" height="0.999996" fill="#3A3E41"/>
  <rect x="6" y="16.4551" width="0.999999" height="0.999996" fill="#3A3E41"/>
  <rect x="5" y="16.4551" width="0.999999" height="0.999996" fill="#3A3E41"/>
  <rect x="4" y="16.4551" width="0.999999" height="0.999996" fill="#3A3E41"/>
  <rect x="3" y="16.4551" width="0.999999" height="0.999996" fill="#3A3E41"/>
  <rect x="2" y="16.4551" width="0.999999" height="0.999996" fill="#3A3E41"/>
  <rect x="2" y="17.4551" width="0.999999" height="0.999996" fill="#3A3E41"/>
  <rect x="2" y="10.9004" width="0.999996" height="0.999996" fill="#3A3E41"/>
  <rect x="2" y="11.9004" width="0.999996" height="0.999996" fill="#3A3E41"/>
  <rect x="3" y="10.9004" width="0.999996" height="0.999996" fill="#3A3E41"/>
  <rect x="4" y="10.9004" width="0.999996" height="0.999996" fill="#3A3E41"/>
  <rect x="5" y="10.9004" width="0.999996" height="0.999996" fill="#3A3E41"/>
  <rect x="6" y="10.9004" width="0.999996" height="0.999996" fill="#3A3E41"/>
  <rect x="7" y="10.9004" width="0.999996" height="0.999996" fill="#3A3E41"/>
  <rect x="8" y="10.9004" width="0.999996" height="0.999996" fill="#3A3E41"/>
  <rect x="9" y="10.9004" width="0.999996" height="0.999996" fill="#3A3E41"/>
  <rect x="10" y="10.9004" width="0.999996" height="0.999996" fill="#3A3E41"/>
  <rect x="11" y="10.9004" width="0.999996" height="0.999996" fill="#3A3E41"/>
  <rect x="12" y="10.9004" width="0.999996" height="0.999996" fill="#3A3E41"/>
  <rect x="13" y="10.9004" width="0.999996" height="0.999996" fill="#3A3E41"/>
  <rect x="14" y="10.9004" width="0.999996" height="0.999996" fill="#3A3E41"/>
  <rect x="15" y="10.9004" width="0.999996" height="0.999996" fill="#3A3E41"/>
  <rect x="16" y="10.9004" width="0.999996" height="0.999996" fill="#3A3E41"/>
  <rect x="17" y="10.9004" width="0.999996" height="0.999996" fill="#3A3E41"/>
  <rect x="18" y="10.9004" width="0.999996" height="0.999996" fill="#3A3E41"/>
  <rect x="18.9995" y="10.9004" width="0.999996" height="0.999996" fill="#3A3E41"/>
  <rect x="20" y="10.9004" width="0.999996" height="0.999996" fill="#3A3E41"/>
  <rect x="21" y="10.9004" width="0.999996" height="0.999996" fill="#3A3E41"/>
  <rect x="17" y="11.9004" width="0.999996" height="0.999996" fill="#3A3E41"/>
  <rect x="18" y="11.9004" width="0.999996" height="0.999996" fill="#3A3E41"/>
  <rect x="18.9995" y="11.9004" width="0.999996" height="0.999996" fill="#3A3E41"/>
  <rect x="20" y="11.9004" width="0.999996" height="0.999996" fill="#3A3E41"/>
  <rect x="21" y="11.9004" width="0.999996" height="0.999996" fill="#3A3E41"/>
  <rect x="16" y="11.9004" width="0.999996" height="0.999996" fill="#3A3E41"/>
  <rect x="15" y="11.9004" width="0.999996" height="0.999996" fill="#3A3E41"/>
  <rect x="14" y="11.9004" width="0.999996" height="0.999996" fill="#3A3E41"/>
  <rect x="13" y="11.9004" width="0.999996" height="0.999996" fill="#3A3E41"/>
  <rect x="12" y="11.9004" width="0.999996" height="0.999996" fill="#3A3E41"/>
  <rect x="11" y="11.9004" width="0.999996" height="0.999996" fill="#3A3E41"/>
  <rect x="10" y="11.9004" width="0.999996" height="0.999996" fill="#3A3E41"/>
  <rect x="9" y="11.9004" width="0.999996" height="0.999996" fill="#3A3E41"/>
  <rect x="8" y="11.9004" width="0.999996" height="0.999996" fill="#3A3E41"/>
  <rect x="7" y="11.9004" width="0.999996" height="0.999996" fill="#3A3E41"/>
  <rect x="6" y="11.9004" width="0.999996" height="0.999996" fill="#3A3E41"/>
  <rect x="5" y="11.9004" width="0.999996" height="0.999996" fill="#3A3E41"/>
  <rect x="4" y="11.9004" width="0.999996" height="0.999996" fill="#3A3E41"/>
  <rect x="3" y="11.9004" width="0.999996" height="0.999996" fill="#3A3E41"/>
</svg>