<svg xmlns="http://www.w3.org/2000/svg" width="25" height="25" viewBox="0 0 25 25" fill="none">
  <g filter="url(#filter0_d_275_18089)">
    <path d="M18.8771 6.11711C17.184 4.43028 14.9321 3.50089 12.5357 3.5C7.59503 3.5 3.57374 7.50248 3.5715 12.4227C3.57105 13.9265 3.95228 15.4083 4.67527 16.72L3.51588 20.9355C3.47372 21.0896 3.51678 21.2539 3.6298 21.3674C3.71502 21.4531 3.83028 21.5 3.94869 21.5C3.98681 21.5 4.02493 21.4951 4.06261 21.4853L8.40727 20.3509C9.67564 21.0065 11.0974 21.3526 12.5322 21.3531C17.4765 21.3531 21.4978 17.3501 21.5 12.4299C21.5009 10.0455 20.5694 7.80349 18.8771 6.11711Z" fill="white"/>
  </g>
  <path d="M17.5415 7.44393C16.205 6.11215 14.4285 5.37838 12.5376 5.37793C8.63379 5.37793 5.45883 8.53811 5.45703 12.4227C5.45658 13.754 5.83064 15.0501 6.53927 16.1724L6.70791 16.439L5.99255 19.0387L8.67146 18.3393L8.93025 18.4921C10.0165 19.1343 11.2625 19.4737 12.5326 19.4741H12.5353C16.4364 19.4741 19.6114 16.3135 19.6127 12.4285C19.6132 10.546 18.8781 8.7757 17.5415 7.44393Z" fill="url(#paint0_linear_275_18089)"/>
  <path fill-rule="evenodd" clip-rule="evenodd" d="M10.4402 8.78422C10.2809 8.43141 10.1132 8.42426 9.96116 8.41801C9.83693 8.41265 9.6952 8.4131 9.55347 8.4131C9.41175 8.4131 9.18121 8.46624 8.98612 8.67838C8.79102 8.89052 8.24115 9.40277 8.24115 10.4452C8.24115 11.4875 9.00361 12.4951 9.1099 12.6362C9.2162 12.7773 10.5819 14.9849 12.7446 15.8343C14.5417 16.54 14.9077 16.3997 15.2979 16.3645C15.6881 16.3292 16.5569 15.8522 16.734 15.3574C16.9112 14.8625 16.9112 14.4387 16.8583 14.3503C16.8049 14.2618 16.6632 14.2091 16.4506 14.1029C16.238 13.9966 15.1916 13.4843 14.9965 13.4137C14.8014 13.3432 14.6597 13.3079 14.5175 13.52C14.3758 13.7317 13.9681 14.2091 13.8439 14.3503C13.7196 14.4918 13.5954 14.5097 13.3828 14.4034C13.1702 14.2971 12.4849 14.0738 11.6718 13.3521C11.0394 12.7907 10.6124 12.0971 10.4882 11.885C10.3639 11.6733 10.4747 11.5585 10.5814 11.4527C10.677 11.3576 10.794 11.2053 10.9008 11.0816C11.0071 10.9579 11.0425 10.8694 11.1134 10.7283C11.1842 10.5867 11.1488 10.463 11.0954 10.3572C11.043 10.2509 10.6294 9.20314 10.4402 8.78422Z" fill="white"/>
  <defs>
    <filter id="filter0_d_275_18089" x="3.07143" y="3.5" width="18.8571" height="18.8571" filterUnits="userSpaceOnUse" color-interpolation-filters="sRGB">
      <feFlood flood-opacity="0" result="BackgroundImageFix"/>
      <feColorMatrix in="SourceAlpha" type="matrix" values="0 0 0 0 0 0 0 0 0 0 0 0 0 0 0 0 0 0 127 0" result="hardAlpha"/>
      <feOffset dy="0.428571"/>
      <feGaussianBlur stdDeviation="0.214286"/>
      <feColorMatrix type="matrix" values="0 0 0 0 0.562353 0 0 0 0 0.609412 0 0 0 0 0.717647 0 0 0 0.24 0"/>
      <feBlend mode="normal" in2="BackgroundImageFix" result="effect1_dropShadow_275_18089"/>
      <feBlend mode="normal" in="SourceGraphic" in2="effect1_dropShadow_275_18089" result="shape"/>
    </filter>
    <linearGradient id="paint0_linear_275_18089" x1="12.5349" y1="5.37793" x2="12.5349" y2="19.4741" gradientUnits="userSpaceOnUse">
      <stop stop-color="#7FCE76"/>
      <stop offset="1" stop-color="#58B04E"/>
    </linearGradient>
  </defs>
</svg>