<svg xmlns="http://www.w3.org/2000/svg" width="20" height="20" viewBox="0 0 20 20" fill="none">
<rect width="2.19546" height="2.08928" transform="matrix(-1 0 -0.0153903 0.999882 7.77899 10.9951)" fill="#484848"/>
<rect width="2.19546" height="2.08928" transform="matrix(-1 0 -0.0153903 0.999882 9.94293 13.084)" fill="#484848"/>
<rect width="2.19546" height="2.08928" transform="matrix(-1 0 -0.0153903 0.999882 7.81116 8.90625)" fill="#484848"/>
<rect width="2.19546" height="2.08928" transform="matrix(-1 0 -0.0153903 0.999882 7.84332 6.81738)" fill="#484848"/>
<rect width="2.19546" height="2.08928" transform="matrix(-1 0 -0.0153903 0.999882 10.0709 4.72852)" fill="#484848"/>
<rect width="2.19546" height="2.08928" transform="matrix(-1 0 -0.0153903 0.999882 5.61572 8.90625)" fill="#484848"/>
<rect width="2.19546" height="2.08928" transform="matrix(-1 0 -0.0153903 0.999882 16.5927 8.90625)" fill="#484848"/>
<rect width="2.19546" height="2.08928" transform="matrix(-1 0 -0.0153903 0.999882 14.397 8.90625)" fill="#484848"/>
<rect width="2.19546" height="2.08928" transform="matrix(-1 0 -0.0153903 0.999882 12.2025 8.90625)" fill="#484848"/>
<rect width="2.19546" height="2.08928" transform="matrix(-1 0 -0.0153903 0.999882 10.0066 8.90625)" fill="#484848"/>
</svg>
