<svg xmlns="http://www.w3.org/2000/svg" width="29" height="29" viewBox="0 0 29 29" fill="none">
<g filter="url(#filter0_d_3763_99607)">
<path d="M2.72783 2.72802H4.99033V0.465515H23.0903V2.72802H25.3528V4.99052H27.6153V23.0905H25.3528V25.353H23.0903V27.6155H4.99033V25.353H2.72783V23.0905H0.465332V4.99052H2.72783V2.72802Z" fill="#6DFBFB"/>
<path d="M19.9228 22.0347L17.6415 19.7533C17.3272 19.9544 16.9941 20.1273 16.6422 20.2718C16.2902 20.4164 15.9257 20.5326 15.5486 20.6206V19.0746C15.7246 19.0117 15.8974 18.9489 16.0671 18.886C16.2368 18.8232 16.3971 18.7478 16.5479 18.6598L14.0403 16.1522V20.0739L10.2695 16.303H7.25281V11.778H9.66614L6.04614 8.15802L7.10198 7.10219L20.9786 20.9789L19.9228 22.0347ZM19.772 17.6605L18.6784 16.567C18.8921 16.1773 19.0524 15.7688 19.1592 15.3415C19.2661 14.9141 19.3195 14.4742 19.3195 14.0217C19.3195 12.8401 18.9738 11.7843 18.2825 10.8542C17.5912 9.92403 16.6799 9.29556 15.5486 8.96875V7.42271C17.1073 7.77465 18.3768 8.56339 19.3572 9.78891C20.3376 11.0144 20.8278 12.4253 20.8278 14.0217C20.8278 14.6878 20.7367 15.3289 20.5544 15.9448C20.3722 16.5607 20.1114 17.1326 19.772 17.6605ZM17.2455 15.1341L15.5486 13.4372V10.9861C16.1394 11.2627 16.6013 11.6775 16.9344 12.2305C17.2675 12.7836 17.4341 13.3869 17.4341 14.0405C17.4341 14.2291 17.4183 14.4145 17.3869 14.5967C17.3555 14.779 17.3084 14.9581 17.2455 15.1341ZM14.0403 11.9289L12.0795 9.96802L14.0403 8.00719V11.9289ZM12.532 16.4161V14.6439L11.1745 13.2864H8.76114V14.7947H10.9105L12.532 16.4161Z" fill="#8157FB"/>
</g>
<defs>
<filter id="filter0_d_3763_99607" x="0.465332" y="0.465515" width="28.2812" height="28.2812" filterUnits="userSpaceOnUse" color-interpolation-filters="sRGB">
<feFlood flood-opacity="0" result="BackgroundImageFix"/>
<feColorMatrix in="SourceAlpha" type="matrix" values="0 0 0 0 0 0 0 0 0 0 0 0 0 0 0 0 0 0 127 0" result="hardAlpha"/>
<feOffset dx="1.13125" dy="1.13125"/>
<feComposite in2="hardAlpha" operator="out"/>
<feColorMatrix type="matrix" values="0 0 0 0 0.423529 0 0 0 0 0.345098 0 0 0 0 0.901961 0 0 0 1 0"/>
<feBlend mode="normal" in2="BackgroundImageFix" result="effect1_dropShadow_3763_99607"/>
<feBlend mode="normal" in="SourceGraphic" in2="effect1_dropShadow_3763_99607" result="shape"/>
</filter>
</defs>
</svg>