<svg width="24" height="25" viewBox="0 0 24 25" fill="none" xmlns="http://www.w3.org/2000/svg">
<g id="Icon/Insta">
<path id="Vector" d="M13.0281 2.24194C14.1535 2.2438 14.7238 2.24976 15.2166 2.26443L15.4107 2.27077C15.6349 2.27874 15.8561 2.28874 16.1228 2.30124C17.1869 2.35041 17.9128 2.51874 18.5503 2.76624C19.2094 3.02041 19.7661 3.36374 20.3219 3.91958C20.8769 4.47541 21.2203 5.03374 21.4753 5.69124C21.7219 6.32791 21.8903 7.05458 21.9403 8.11874C21.9522 8.38541 21.9618 8.60661 21.9697 8.83085L21.976 9.02494C21.9906 9.51768 21.9973 10.0881 21.9994 11.2135L22.0002 11.9591C22.0003 12.0502 22.0003 12.1442 22.0003 12.2412L22.0002 12.5233L21.9996 13.269C21.9977 14.3944 21.9918 14.9648 21.9771 15.4575L21.9707 15.6516C21.9628 15.8759 21.9528 16.0971 21.9403 16.3637C21.8911 17.4279 21.7219 18.1537 21.4753 18.7912C21.2211 19.4504 20.8769 20.0071 20.3219 20.5629C19.7661 21.1179 19.2069 21.4612 18.5503 21.7162C17.9128 21.9629 17.1869 22.1312 16.1228 22.1812C15.8561 22.1931 15.6349 22.2028 15.4107 22.2106L15.2166 22.2169C14.7238 22.2316 14.1535 22.2382 13.0281 22.2404L12.2824 22.2412C12.1913 22.2412 12.0973 22.2412 12.0003 22.2412H11.7182L10.9725 22.2405C9.8471 22.2387 9.27672 22.2327 8.78397 22.218L8.58989 22.2117C8.36564 22.2037 8.14444 22.1937 7.87778 22.1812C6.81361 22.1321 6.08861 21.9629 5.45028 21.7162C4.79194 21.4621 4.23444 21.1179 3.67861 20.5629C3.12278 20.0071 2.78028 19.4479 2.52528 18.7912C2.27778 18.1537 2.11028 17.4279 2.06028 16.3637C2.0484 16.0971 2.03871 15.8759 2.03086 15.6516L2.02457 15.4575C2.00994 14.9648 2.00327 14.3944 2.00111 13.269L2.00098 11.2135C2.00284 10.0881 2.00879 9.51768 2.02346 9.02494L2.02981 8.83085C2.03778 8.60661 2.04778 8.38541 2.06028 8.11874C2.10944 7.05374 2.27778 6.32874 2.52528 5.69124C2.77944 5.03291 3.12278 4.47541 3.67861 3.91958C4.23444 3.36374 4.79278 3.02124 5.45028 2.76624C6.08778 2.51874 6.81278 2.35124 7.87778 2.30124C8.14444 2.28937 8.36564 2.27968 8.58989 2.27183L8.78397 2.26554C9.27672 2.2509 9.8471 2.24423 10.9725 2.24207L13.0281 2.24194ZM12.0003 7.24124C9.23738 7.24124 7.00028 9.48077 7.00028 12.2412C7.00028 15.0041 9.23981 17.2412 12.0003 17.2412C14.7632 17.2412 17.0003 15.0017 17.0003 12.2412C17.0003 9.47834 14.7607 7.24124 12.0003 7.24124ZM12.0003 9.24124C13.6572 9.24124 15.0003 10.5839 15.0003 12.2412C15.0003 13.8981 13.6576 15.2412 12.0003 15.2412C10.3434 15.2412 9.00028 13.8986 9.00028 12.2412C9.00028 10.5843 10.3429 9.24124 12.0003 9.24124ZM17.2503 5.74124C16.561 5.74124 16.0003 6.30115 16.0003 6.99039C16.0003 7.67964 16.5602 8.24041 17.2503 8.24041C17.9395 8.24041 18.5003 7.68051 18.5003 6.99039C18.5003 6.30115 17.9386 5.74038 17.2503 5.74124Z" fill="black"/>
</g>
</svg>
