<svg width="25" height="25" viewBox="0 0 25 25" fill="none" xmlns="http://www.w3.org/2000/svg">
<g id="Icon/Linked in ">
<path id="Vector" d="M18.8362 19.0748H16.1707V14.898C16.1707 13.902 16.1505 12.6203 14.7817 12.6203C13.392 12.6203 13.1797 13.7041 13.1797 14.8245V19.0748H10.5142V10.4858H13.0747V11.6565H13.1092C13.467 10.9815 14.337 10.2691 15.6367 10.2691C18.3375 10.2691 18.837 12.0466 18.837 14.3603L18.8362 19.0748ZM7.50373 9.31059C6.64573 9.31059 5.95648 8.61609 5.95648 7.76184C5.95648 6.90834 6.64648 6.21459 7.50373 6.21459C8.35873 6.21459 9.05173 6.90834 9.05173 7.76184C9.05173 8.61609 8.35798 9.31059 7.50373 9.31059ZM8.84023 19.0748H6.16723V10.4858H8.84023V19.0748ZM20.1697 3.73584H4.82923C4.09498 3.73584 3.50098 4.31634 3.50098 5.03259V20.4391C3.50098 21.156 4.09498 21.7358 4.82923 21.7358H20.1675C20.901 21.7358 21.501 21.156 21.501 20.4391V5.03259C21.501 4.31634 20.901 3.73584 20.1675 3.73584H20.1697Z" fill="black"/>
</g>
</svg>
