<svg width="24" height="25" viewBox="0 0 24 25" fill="none" xmlns="http://www.w3.org/2000/svg">
<g id="Icon/Twitter">
<path id="Vector" d="M22.2125 6.39189C21.4491 6.72959 20.6395 6.95139 19.8106 7.04995C20.6839 6.52716 21.3374 5.70474 21.6493 4.73589C20.8287 5.22345 19.9305 5.56661 18.9938 5.75045C18.2031 4.9069 17.098 4.42887 15.9418 4.43018C13.6326 4.43018 11.7597 6.30245 11.7597 8.61267C11.7597 8.94042 11.7973 9.25826 11.8676 9.56493C8.39048 9.38988 5.31008 7.72589 3.24678 5.19525C2.87529 5.83351 2.68006 6.55902 2.68105 7.29751C2.68105 8.74843 3.41961 10.0291 4.5415 10.7788C3.87738 10.7578 3.22789 10.5785 2.64719 10.2556C2.64655 10.2731 2.64654 10.2907 2.64654 10.3073C2.64654 12.3342 4.0882 14.025 6.002 14.4089C5.64281 14.5061 5.27233 14.5552 4.90022 14.5549C4.62997 14.5549 4.36772 14.53 4.1128 14.4811C4.64532 16.1423 6.18886 17.3517 8.0196 17.3849C6.53813 18.5476 4.70869 19.1784 2.82543 19.1757C2.49212 19.176 2.15909 19.1563 1.82812 19.1169C3.74004 20.346 5.96552 20.9983 8.23842 20.9959C15.9316 20.9959 20.138 14.6233 20.138 9.09695C20.138 8.91614 20.1336 8.7347 20.1256 8.55581C20.9443 7.96429 21.651 7.23151 22.2125 6.39189Z" fill="black"/>
</g>
</svg>
