<svg width="188" height="44" viewBox="0 0 188 44" fill="none" xmlns="http://www.w3.org/2000/svg">
<g clip-path="url(#clip0_1437_17309)">
<path d="M142.975 42.6985V42.6575C139.396 42.6165 136.191 41.976 133.444 40.7616C130.719 39.5574 128.558 37.8921 127.018 35.8169V39.911C127.018 41.4226 125.753 42.6523 124.198 42.6523H118.294C116.739 42.6523 115.474 41.4226 115.474 39.911V35.3711C115.474 34.2746 114.556 33.3779 113.423 33.3779H113.107C112.511 33.3779 111.942 33.6341 111.552 34.0747L104.825 41.6942C104.287 42.3039 103.507 42.6523 102.685 42.6523H93.6652C92.9957 42.6523 92.4106 42.2885 92.1312 41.6942C91.8518 41.1049 91.952 40.4336 92.3842 39.9417L96.7596 34.9971C97.1866 34.5154 97.3553 33.8851 97.2235 33.26C97.097 32.6605 96.7016 32.1635 96.1481 31.897C94.9199 31.3129 93.8603 30.5392 93.001 29.6066C91.467 27.9413 90.6868 25.8046 90.6868 23.263V23.1093C90.6868 21.1519 91.2403 19.3995 92.3368 17.9033C93.4227 16.4173 94.9673 15.2439 96.9283 14.419C98.8735 13.5991 101.135 13.1841 103.65 13.1841H124.203C125.759 13.1841 127.024 14.4138 127.024 15.9254V19.999C128.563 17.9136 130.724 16.2482 133.45 15.0595C136.296 13.8143 139.644 13.1841 143.408 13.1841H157.109C157.594 13.1841 158.01 13.4505 158.195 13.8861C158.379 14.3165 158.289 14.793 157.952 15.1261C154.494 18.5746 152.591 23.1196 152.591 27.931C152.591 32.7425 154.483 37.2567 157.915 40.7001C158.253 41.0383 158.342 41.5097 158.152 41.9401C157.963 42.3705 157.546 42.6421 157.066 42.6421H151.178L150.793 42.6831H142.981L142.975 42.6985ZM143.36 22.6379C142.169 22.6379 141.03 22.8685 139.965 23.3245C138.916 23.7754 138.052 24.4211 137.403 25.246C136.766 26.0556 136.444 26.9677 136.444 27.9669C136.444 29.791 137.071 31.0925 138.368 31.9431C139.691 32.8142 141.373 33.2549 143.36 33.2549H146.95C147.509 33.2549 147.962 32.8142 147.962 32.2711V23.6217C147.962 23.0786 147.509 22.6379 146.95 22.6379H143.36ZM106.275 21.2032C105.073 21.2032 104.171 21.2442 103.592 21.3159C103.075 21.3825 102.68 21.5567 102.379 21.8488C102.094 22.1255 101.952 22.602 101.952 23.2682C101.952 23.9343 102.089 24.3545 102.369 24.6004C102.664 24.8669 103.08 25.036 103.592 25.1026C104.171 25.1794 105.073 25.2153 106.275 25.2153H113.418C114.546 25.2153 115.468 24.3237 115.468 23.222C115.468 22.1204 114.551 21.2339 113.423 21.2288C110.128 21.2288 108.204 21.2134 107.54 21.1929H106.275V21.2032ZM82.7214 42.6575C79.374 42.6575 76.6486 40.0084 76.6486 36.7546V19.1023C76.6486 15.8486 79.374 13.1995 82.7214 13.1995C86.0689 13.1995 88.7943 15.8486 88.7943 19.1023V36.7546C88.7943 40.0084 86.0689 42.6575 82.7214 42.6575ZM45.5727 42.6575C43.1636 42.6575 41.2026 40.7513 41.2026 38.4097C41.2026 36.068 43.1636 34.1618 45.5674 34.1618L61.1185 34.2489C61.6931 34.2489 62.1518 33.798 62.1518 33.2498V33.0243C62.1518 32.4709 61.6879 32.0251 61.1238 32.0251H48.8305C46.4688 32.0251 44.55 30.16 44.55 27.8644C44.55 25.5688 46.4688 23.7037 48.8305 23.7037H61.1238C61.6931 23.7037 62.1518 23.2528 62.1518 22.7045C62.1518 22.1562 61.6879 21.7053 61.1238 21.7053H45.6149L35.4565 40.4849C34.7343 41.8223 33.3163 42.6523 31.7612 42.6523H23.3372C21.7979 42.6523 20.3957 41.8376 19.6629 40.5208L7.83878 19.1741C7.13239 17.9033 7.1693 16.4071 7.9284 15.1722C8.68751 13.9373 10.0265 13.1943 11.5131 13.1943H14.3386C15.841 13.1943 17.2327 13.9834 17.9707 15.2542L26.0626 29.1557C26.3209 29.5963 26.7848 29.8628 27.3067 29.8628C27.8286 29.8628 28.3188 29.5861 28.5719 29.1198L36.0153 15.3669C36.7375 14.0295 38.1556 13.1995 39.7107 13.1995H66.5799C70.8499 13.1995 74.3186 16.5762 74.3186 20.7215V35.1354C74.3186 39.2859 70.8446 42.6575 66.5799 42.6575H45.5832H45.5727Z" fill="#FF8A00"/>
<path d="M157.103 13.5735C157.804 13.5735 158.163 14.3934 157.673 14.8802C154.288 18.2518 152.201 22.8634 152.201 27.9516C152.201 33.0397 154.273 37.6103 157.636 40.982C158.121 41.4687 157.762 42.2835 157.066 42.2835H150.788V42.3244H143.366V42.2835C139.665 42.2835 136.412 41.6634 133.608 40.4234C130.804 39.1834 128.637 37.4771 127.124 35.3045C126.95 35.0586 126.792 34.8075 126.639 34.5564V39.9213C126.639 41.2279 125.548 42.2886 124.204 42.2886H118.299C116.955 42.2886 115.864 41.2279 115.864 39.9213V35.3814C115.864 34.0748 114.773 33.0141 113.428 33.0141H113.112C112.4 33.0141 111.726 33.3164 111.262 33.8391L104.535 41.4585C104.071 41.9811 103.397 42.2835 102.685 42.2835H93.6653C92.553 42.2835 91.952 41.0127 92.6795 40.1929L97.0549 35.2482C98.0934 34.0748 97.7455 32.2455 96.3169 31.564C95.1308 30.9952 94.1187 30.2625 93.2858 29.3607C91.8097 27.7568 91.0717 25.7277 91.0717 23.2682V23.1145C91.0717 21.2288 91.5988 19.5635 92.6479 18.1288C93.6969 16.6941 95.1782 15.577 97.076 14.7726C98.979 13.9732 101.167 13.5684 103.644 13.5684H124.198C125.542 13.5684 126.634 14.6291 126.634 15.9357V21.2852C126.787 21.029 126.945 20.7779 127.119 20.532C128.637 18.3491 130.798 16.6377 133.603 15.4131C136.412 14.1833 139.676 13.5684 143.403 13.5684H157.103M106.28 25.5945H113.423C114.767 25.5945 115.859 24.5338 115.859 23.2272C115.859 21.9206 114.767 20.8599 113.423 20.8599C110.181 20.8599 108.225 20.8445 107.556 20.824H106.28C105.057 20.824 104.145 20.865 103.544 20.9419C102.943 21.0188 102.469 21.234 102.105 21.5824C101.747 21.9308 101.567 22.4945 101.567 23.2682C101.567 24.0419 101.747 24.5543 102.105 24.8771C102.464 25.2 102.943 25.3998 103.544 25.4767C104.145 25.5535 105.057 25.5945 106.28 25.5945ZM143.366 33.6239H146.956C147.731 33.6239 148.358 33.0141 148.358 32.2609V23.6115C148.358 22.8583 147.731 22.2485 146.956 22.2485H143.366C142.116 22.2485 140.93 22.4893 139.813 22.9659C138.695 23.4424 137.788 24.1239 137.098 25.0052C136.407 25.8866 136.059 26.8653 136.059 27.9516C136.059 29.8936 136.755 31.3232 138.152 32.2404C139.549 33.1576 141.283 33.6187 143.36 33.6187M82.7215 13.5582C85.8634 13.5582 88.4095 16.0331 88.4095 19.087V36.7393C88.4095 39.7932 85.8634 42.2681 82.7215 42.2681C79.5797 42.2681 77.0335 39.7932 77.0335 36.7393V19.087C77.0335 16.0331 79.5797 13.5582 82.7215 13.5582ZM66.5694 13.5582C70.6285 13.5582 73.9233 16.7607 73.9233 20.7062V35.1201C73.9233 39.0656 70.6285 42.2681 66.5694 42.2681H45.5728C43.3745 42.2681 41.5927 40.5362 41.5927 38.3994C41.5927 36.2627 43.3745 34.5308 45.5728 34.5308C45.578 34.5308 45.5886 34.5308 45.5938 34.5308L61.1186 34.6179H61.1292C61.9094 34.6179 62.5472 34.003 62.5472 33.2396V33.0141C62.5472 32.2557 61.9146 31.6357 61.1292 31.6357H48.8359C46.6851 31.6357 44.9454 29.9397 44.9454 27.8542C44.9454 25.7687 46.6903 24.0727 48.8359 24.0727H61.1292C61.9094 24.0727 62.5472 23.4578 62.5472 22.6943C62.5472 21.9308 61.9146 21.3159 61.1292 21.3159H45.5517C45.499 21.3159 45.4462 21.3159 45.3935 21.3159L35.1245 40.3005C34.4708 41.5097 33.1793 42.2681 31.7718 42.2681H23.3478C21.9561 42.2681 20.6751 41.5251 20.0162 40.3363L8.17625 18.9999C6.81618 16.5506 8.64542 13.5735 11.5079 13.5735H14.3334C15.6988 13.5735 16.9587 14.2858 17.6282 15.4438L25.72 29.3453C26.068 29.9448 26.6847 30.242 27.3015 30.242C27.9183 30.242 28.572 29.9243 28.9093 29.2992L36.3528 15.5463C37.0065 14.337 38.298 13.5787 39.7055 13.5787H66.5747M157.103 12.8254H143.403C139.586 12.8254 136.181 13.4659 133.286 14.7367C130.888 15.7871 128.916 17.1911 127.409 18.9281V15.9511C127.409 14.2294 125.969 12.8306 124.198 12.8306H103.644C101.077 12.8306 98.7629 13.2559 96.7703 14.0962C94.746 14.9519 93.1434 16.1663 92.0153 17.7086C90.8714 19.2663 90.2968 21.0905 90.2968 23.1298V23.2836C90.2968 25.9224 91.1086 28.1411 92.7111 29.8782C93.602 30.8466 94.7038 31.646 95.9742 32.2557C96.4223 32.4709 96.7386 32.8706 96.8441 33.3574C96.9495 33.8647 96.8124 34.3822 96.4698 34.7716L92.0944 39.7163C91.5567 40.321 91.4407 41.1459 91.7833 41.8735C92.126 42.6011 92.8482 43.0469 93.6706 43.0469H102.69C103.629 43.0469 104.514 42.6524 105.126 41.9606L111.852 34.3412C112.169 33.9825 112.627 33.7776 113.112 33.7776H113.428C114.346 33.7776 115.089 34.5001 115.089 35.3916V39.9315C115.089 41.6532 116.528 43.0521 118.299 43.0521H124.204C125.975 43.0521 127.414 41.6532 127.414 39.9315V36.9288C128.922 38.6556 130.893 40.0648 133.292 41.1254C135.991 42.3193 139.117 42.965 142.596 43.0469V43.0931H151.568V43.0521H157.072C157.704 43.0521 158.268 42.6883 158.516 42.1195C158.764 41.5558 158.637 40.9102 158.2 40.4696C154.837 37.0979 152.981 32.6554 152.981 27.9618C152.981 23.2682 154.847 18.7949 158.231 15.4182C158.669 14.9775 158.796 14.3319 158.553 13.7683C158.305 13.2046 157.741 12.8357 157.109 12.8357L157.103 12.8254ZM106.28 24.8515C105.094 24.8515 104.208 24.8157 103.65 24.7439C103.207 24.6876 102.88 24.5543 102.638 24.3391C102.448 24.17 102.348 23.796 102.348 23.2836C102.348 22.7251 102.453 22.3254 102.659 22.1307C102.896 21.9001 103.223 21.7617 103.65 21.7054C104.214 21.6336 105.099 21.5978 106.28 21.5978H107.556C108.21 21.6183 110.139 21.6336 113.423 21.6336C114.34 21.6336 115.084 22.3612 115.084 23.2477C115.084 24.1342 114.34 24.8618 113.423 24.8618H106.28V24.8515ZM143.366 32.8809C141.457 32.8809 139.85 32.4607 138.59 31.6306C137.409 30.8569 136.834 29.6579 136.834 27.9669C136.834 27.0446 137.124 26.2299 137.715 25.4767C138.321 24.7029 139.133 24.0983 140.124 23.673C141.136 23.2375 142.227 23.0171 143.366 23.0171H146.956C147.298 23.0171 147.583 23.2887 147.583 23.6269V32.2762C147.583 32.6093 147.304 32.886 146.956 32.886H143.366V32.8809ZM82.7268 12.8203C79.1632 12.8203 76.2638 15.6385 76.2638 19.1024V36.7546C76.2638 40.2185 79.1632 43.0367 82.7268 43.0367C86.2904 43.0367 89.1897 40.2185 89.1897 36.7546V19.1024C89.1897 15.6385 86.2904 12.8203 82.7268 12.8203ZM66.5747 12.8203H39.7055C38.0081 12.8203 36.4582 13.7273 35.6675 15.1876L28.224 28.9405C28.0395 29.2787 27.6969 29.4836 27.3015 29.4836C27.117 29.4836 26.6636 29.4324 26.3948 28.9712L18.3029 15.0698C17.4964 13.6811 15.9729 12.8203 14.3334 12.8203H11.5079C9.88424 12.8203 8.42401 13.6299 7.5911 14.9827C6.75819 16.3354 6.72129 17.97 7.49094 19.3586L19.3362 40.7104C20.1322 42.1451 21.6715 43.0418 23.3531 43.0418H31.7771C33.4745 43.0418 35.0244 42.1349 35.8151 40.6694L45.8627 22.0897H61.1344C61.4876 22.0897 61.7776 22.3715 61.7776 22.7148C61.7776 23.0581 61.4876 23.3399 61.1344 23.3399H48.8411C46.2686 23.3399 44.1758 25.3742 44.1758 27.8747C44.1758 30.3752 46.2686 32.4095 48.8411 32.4095H61.1344C61.4876 32.4095 61.7776 32.6913 61.7776 33.0346V33.26C61.7776 33.6034 61.4876 33.8852 61.1344 33.8852L45.6044 33.7981H45.578C44.3076 33.7981 43.1162 34.2797 42.2148 35.1508C41.3186 36.0219 40.8231 37.1851 40.8231 38.4199C40.8231 40.9666 42.9581 43.0418 45.578 43.0418H66.5747C71.0555 43.0418 74.7035 39.496 74.7035 35.1406V20.7267C74.7035 16.3713 71.0555 12.8254 66.5747 12.8254V12.8203Z" fill="black"/>
<path d="M171.468 43.6208C162.565 43.6208 155.322 36.5804 155.322 27.926C155.322 19.2715 162.565 12.2311 171.468 12.2311C175.78 12.2311 179.834 13.8656 182.887 16.8273C185.939 19.7941 187.615 23.7345 187.615 27.926C187.615 36.5804 180.372 43.6208 171.468 43.6208ZM171.468 22.6175C168.458 22.6175 166.007 25.0001 166.007 27.926C166.007 30.8518 168.458 33.2345 171.468 33.2345C174.478 33.2345 176.93 30.8518 176.93 27.926C176.93 25.0001 174.478 22.6175 171.468 22.6175Z" fill="#FF8A00"/>
<path d="M171.468 12.605C180.172 12.605 187.23 19.4661 187.23 27.9259C187.23 36.3856 180.172 43.2467 171.468 43.2467C162.765 43.2467 155.706 36.3856 155.706 27.9259C155.706 19.4661 162.765 12.605 171.468 12.605ZM171.468 33.6084C174.7 33.6084 177.314 31.0618 177.314 27.9259C177.314 24.79 174.695 22.2433 171.468 22.2433C168.242 22.2433 165.622 24.79 165.622 27.9259C165.622 31.0618 168.242 33.6084 171.468 33.6084ZM171.468 11.8518C167.051 11.8518 162.897 13.5222 159.776 16.5608C156.655 19.5942 154.931 23.6319 154.931 27.9259C154.931 36.7904 162.348 43.9999 171.468 43.9999C175.886 43.9999 180.04 42.3295 183.161 39.291C186.281 36.2575 188.005 32.2198 188.005 27.9259C188.005 19.0613 180.588 11.8518 171.468 11.8518ZM171.468 32.8552C168.669 32.8552 166.397 30.6416 166.397 27.9259C166.397 25.2101 168.674 22.9966 171.468 22.9966C174.262 22.9966 176.54 25.2101 176.54 27.9259C176.54 30.6416 174.262 32.8552 171.468 32.8552Z" fill="black"/>
<path d="M141.563 40.326V40.285C137.983 40.244 134.778 39.6035 132.032 38.3891C129.306 37.185 127.145 35.5197 125.606 33.4445V37.5386C125.606 39.0501 124.341 40.2799 122.785 40.2799H116.881C115.326 40.2799 114.061 39.0501 114.061 37.5386V32.9987C114.061 31.9021 113.144 31.0106 112.01 31.0106H111.694C111.098 31.0106 110.529 31.2616 110.139 31.7074L103.412 39.3268C102.875 39.9366 102.095 40.285 101.272 40.285H92.2525C91.583 40.285 90.9979 39.9212 90.7185 39.3268C90.4391 38.7376 90.5393 38.0663 90.9715 37.5744L95.3469 32.6297C95.7739 32.1481 95.9426 31.5178 95.8108 30.8927C95.6843 30.2932 95.289 29.7962 94.7354 29.5297C93.5072 28.9456 92.4476 28.1718 91.5883 27.2393C90.0543 25.574 89.2741 23.4372 89.2741 20.8957V20.742C89.2741 18.7846 89.8276 17.0322 90.9241 15.536C92.01 14.05 93.5599 12.8766 95.5156 12.0517C97.4608 11.2318 99.7223 10.8168 102.237 10.8168H122.791C124.346 10.8168 125.611 12.0465 125.611 13.5581V17.6317C127.15 15.5462 129.312 13.8861 132.037 12.6922C134.884 11.447 138.231 10.8168 141.995 10.8168H155.696C156.181 10.8168 156.597 11.0832 156.782 11.5188C156.966 11.9492 156.877 12.4257 156.539 12.7639C153.081 16.2124 151.178 20.7574 151.178 25.5688C151.178 30.3803 153.071 34.8997 156.502 38.3379C156.84 38.6761 156.929 39.1475 156.74 39.5779C156.55 40.0083 156.133 40.2799 155.654 40.2799H149.765L149.381 40.3209H141.568L141.563 40.326ZM141.948 20.2655C140.756 20.2655 139.612 20.4961 138.553 20.9521C137.504 21.403 136.639 22.0486 135.991 22.8736C135.353 23.6832 135.031 24.5953 135.031 25.5945C135.031 27.4186 135.659 28.7201 136.955 29.5707C138.279 30.4418 139.96 30.8825 141.948 30.8825H145.538C146.096 30.8825 146.55 30.4418 146.55 29.8986V21.2493C146.55 20.7061 146.096 20.2655 145.538 20.2655H141.948ZM104.862 18.8307C103.66 18.8307 102.759 18.8666 102.179 18.9435C101.662 19.0101 101.267 19.1843 100.966 19.4764C100.682 19.7531 100.539 20.2296 100.539 20.8957C100.539 21.5619 100.676 21.982 100.956 22.228C101.251 22.4944 101.668 22.6635 102.179 22.7301C102.759 22.807 103.66 22.8429 104.862 22.8429H112.005C113.133 22.8429 114.056 21.9513 114.056 20.8496C114.056 19.7479 113.138 18.8615 112.01 18.8564C108.779 18.8564 106.802 18.841 106.127 18.8205H104.862V18.8307ZM81.3087 40.285C77.9613 40.285 75.2359 37.6359 75.2359 34.3822V16.7299C75.2359 13.4761 77.9613 10.827 81.3087 10.827C84.6562 10.827 87.3816 13.4761 87.3816 16.7299V34.3822C87.3816 37.6359 84.6562 40.285 81.3087 40.285ZM44.16 40.285C41.7509 40.285 39.7899 38.3789 39.7899 36.0423C39.7899 33.7058 41.7509 31.7945 44.1547 31.7945L59.7059 31.8816C60.2805 31.8816 60.7391 31.4307 60.7391 30.8825V30.657C60.7391 30.1036 60.2752 29.6578 59.7111 29.6578H47.4178C45.0562 29.6578 43.1373 27.7927 43.1373 25.4971C43.1373 23.2015 45.0562 21.3364 47.4178 21.3364H59.7111C60.2805 21.3364 60.7391 20.8855 60.7391 20.3372C60.7391 19.7889 60.2752 19.338 59.7111 19.338H44.2022L34.0438 38.1176C33.3216 39.4549 31.9036 40.285 30.3485 40.285H21.9245C20.3852 40.285 18.983 39.4703 18.2502 38.1534L6.42082 16.8068C5.71443 15.536 5.75133 14.0398 6.51043 12.7998C7.26954 11.5598 8.60852 10.8219 10.0951 10.8219H12.9207C14.4231 10.8219 15.8148 11.611 16.5528 12.8818L24.6446 26.7832C24.9029 27.2239 25.3668 27.4903 25.8887 27.4903C26.4317 27.4903 26.9009 27.2137 27.1539 26.7474L34.5974 12.9945C35.3196 11.6571 36.7376 10.827 38.2927 10.827H65.1619C69.4319 10.827 72.9006 14.2038 72.9006 18.3491V32.763C72.9006 36.9134 69.4266 40.285 65.1619 40.285H44.1653H44.16Z" fill="#00956D"/>
<path d="M155.691 11.2011C156.392 11.2011 156.75 12.021 156.26 12.5077C152.876 15.8793 150.788 20.491 150.788 25.5791C150.788 30.6673 152.86 35.2379 156.223 38.6095C156.708 39.0963 156.349 39.911 155.654 39.911H149.375V39.952H141.953V39.911C138.252 39.911 135 39.291 132.195 38.051C129.391 36.811 127.224 35.1047 125.711 32.9321C125.537 32.6861 125.379 32.4351 125.226 32.184V37.5488C125.226 38.8555 124.135 39.9161 122.791 39.9161H116.887C115.542 39.9161 114.451 38.8555 114.451 37.5488V33.009C114.451 31.7023 113.36 30.6417 112.016 30.6417H111.699C110.988 30.6417 110.313 30.944 109.849 31.4666L103.122 39.086C102.659 39.6087 101.984 39.911 101.272 39.911H92.2525C91.1402 39.911 90.5392 38.6403 91.2667 37.8204L95.6421 32.8757C96.6806 31.7023 96.3327 29.8731 94.9041 29.1916C93.718 28.6228 92.7058 27.8901 91.8729 26.9882C90.3969 25.3844 89.6589 23.3553 89.6589 20.8958V20.742C89.6589 18.8564 90.186 17.1911 91.2351 15.7564C92.2841 14.3216 93.7654 13.2046 95.6632 12.4001C97.5662 11.6008 99.7539 11.196 102.232 11.196H122.785C124.13 11.196 125.221 12.2567 125.221 13.5633V18.9128C125.374 18.6566 125.532 18.4055 125.706 18.1595C127.224 15.9767 129.385 14.2653 132.19 13.0406C135 11.8109 138.263 11.196 141.99 11.196H155.691M104.867 23.2221H112.01C113.355 23.2221 114.446 22.1614 114.446 20.8548C114.446 19.5481 113.355 18.4875 112.01 18.4875C108.768 18.4875 106.813 18.4721 106.143 18.4516H104.867C103.644 18.4516 102.732 18.4926 102.131 18.5695C101.53 18.6463 101.056 18.8615 100.692 19.21C100.334 19.5584 100.155 20.122 100.155 20.8958C100.155 21.6695 100.334 22.1819 100.692 22.5047C101.051 22.8275 101.53 23.0274 102.131 23.1042C102.732 23.1811 103.644 23.2221 104.867 23.2221ZM141.953 31.2514H145.543C146.318 31.2514 146.94 30.6417 146.94 29.8884V21.2442C146.94 20.491 146.312 19.8812 145.543 19.8812H141.953C140.703 19.8812 139.517 20.122 138.4 20.5986C137.282 21.0751 136.376 21.7566 135.685 22.6379C134.994 23.5193 134.646 24.498 134.646 25.5842C134.646 27.5262 135.342 28.9559 136.739 29.8731C138.136 30.7903 139.871 31.2514 141.948 31.2514M81.3087 11.1909C84.4505 11.1909 86.9967 13.6658 86.9967 16.7197V34.3719C86.9967 37.4259 84.4505 39.9008 81.3087 39.9008C78.1668 39.9008 75.6207 37.4259 75.6207 34.3719V16.7197C75.6207 13.6658 78.1668 11.1909 81.3087 11.1909ZM65.1566 11.1909C69.2157 11.1909 72.5104 14.3934 72.5104 18.3389V32.7528C72.5104 36.6983 69.2157 39.9008 65.1566 39.9008H44.1599C41.9617 39.9008 40.1799 38.1688 40.1799 36.0321C40.1799 33.8954 41.9617 32.1635 44.1599 32.1635C44.1652 32.1635 44.1757 32.1635 44.181 32.1635L59.7058 32.2506H59.7163C60.4965 32.2506 61.1344 31.6357 61.1344 30.8722V30.6468C61.1344 29.8884 60.5018 29.2684 59.7163 29.2684H47.423C45.2722 29.2684 43.5326 27.5724 43.5326 25.4869C43.5326 23.4014 45.2775 21.7054 47.423 21.7054H59.7163C60.4965 21.7054 61.1344 21.0905 61.1344 20.327C61.1344 19.5635 60.5018 18.9486 59.7163 18.9486H44.1388C44.0861 18.9486 44.0334 18.9486 43.9807 18.9486L33.7117 37.9331C33.058 39.1424 31.7665 39.9008 30.359 39.9008H21.935C20.5433 39.9008 19.2623 39.1578 18.6034 37.969L6.76341 16.6274C5.40334 14.1782 7.23257 11.2011 10.095 11.2011H12.9206C14.2859 11.2011 15.5458 11.9133 16.2153 13.0714L24.3072 26.9729C24.6551 27.5724 25.2719 27.8696 25.8887 27.8696C26.5054 27.8696 27.1591 27.5519 27.4965 26.9267L34.94 13.1739C35.5936 11.9646 36.8852 11.2062 38.2927 11.2062H65.1619M155.691 10.453H141.99C138.173 10.453 134.768 11.0935 131.874 12.3643C129.475 13.4147 127.503 14.8187 125.996 16.5557V13.5787C125.996 11.857 124.557 10.4581 122.785 10.4581H102.232C99.6643 10.4581 97.3501 10.8834 95.3574 11.7238C93.3331 12.5795 91.7306 13.7939 90.6025 15.3362C89.4585 16.8939 88.8839 18.7181 88.8839 20.7574V20.9111C88.8839 23.55 89.6958 25.7687 91.2983 27.5058C92.1892 28.4742 93.291 29.2735 94.5614 29.8833C95.0095 30.0985 95.3258 30.4982 95.4312 30.985C95.5367 31.4922 95.3996 32.0098 95.0569 32.3992L90.6815 37.3439C90.1438 37.9485 90.0279 38.7735 90.3705 39.5011C90.7132 40.2287 91.4354 40.6796 92.2577 40.6796H101.277C102.216 40.6796 103.101 40.2851 103.713 39.5882L110.439 31.9688C110.756 31.6101 111.214 31.4051 111.699 31.4051H112.016C112.933 31.4051 113.676 32.1276 113.676 33.0192V37.5591C113.676 39.2808 115.115 40.6796 116.887 40.6796H122.791C124.562 40.6796 126.001 39.2808 126.001 37.5591V34.5564C127.509 36.2832 129.48 37.6923 131.879 38.753C134.578 39.9469 137.704 40.5925 141.183 40.6745V40.7206H150.155V40.6796H155.659C156.292 40.6796 156.856 40.3158 157.103 39.747C157.351 39.1834 157.225 38.5378 156.787 38.0971C153.424 34.7255 151.568 30.283 151.568 25.5894C151.568 20.8958 153.434 16.4225 156.819 13.0458C157.261 12.6051 157.383 11.9595 157.14 11.3958C156.892 10.8322 156.328 10.4632 155.696 10.4632L155.691 10.453ZM104.867 22.4791C103.681 22.4791 102.796 22.4432 102.237 22.3715C101.794 22.3151 101.467 22.1819 101.225 21.9667C101.035 21.7976 100.935 21.4235 100.935 20.9111C100.935 20.3526 101.04 19.9529 101.246 19.7582C101.483 19.5276 101.81 19.3893 102.237 19.3329C102.796 19.2612 103.681 19.2253 104.867 19.2253H106.143C106.797 19.2458 108.726 19.2612 112.01 19.2612C112.928 19.2612 113.671 19.9888 113.671 20.8753C113.671 21.7617 112.928 22.4893 112.01 22.4893H104.867V22.4791ZM141.953 30.5084C140.045 30.5084 138.437 30.0883 137.177 29.2582C135.996 28.4844 135.421 27.2854 135.421 25.5945C135.421 24.6722 135.711 23.8574 136.302 23.1042C136.908 22.3305 137.72 21.7259 138.711 21.3006C139.723 20.865 140.814 20.6447 141.953 20.6447H145.543C145.885 20.6447 146.17 20.9163 146.17 21.2544V29.8987C146.17 30.2317 145.891 30.5084 145.543 30.5084H141.953ZM81.314 10.4479C77.7504 10.4479 74.851 13.2661 74.851 16.7299V34.3822C74.851 37.846 77.7504 40.6642 81.314 40.6642C84.8775 40.6642 87.7769 37.846 87.7769 34.3822V16.7299C87.7769 13.2661 84.8775 10.4479 81.314 10.4479ZM65.1619 10.4479H38.2927C36.5952 10.4479 35.0454 11.3548 34.2546 12.8152L26.8112 26.5681C26.6267 26.9062 26.284 27.1112 25.8887 27.1112C25.7042 27.1112 25.2508 27.06 24.982 26.5988L16.8901 12.6973C16.0835 11.3087 14.5601 10.4479 12.9206 10.4479H10.095C8.47139 10.4479 7.01117 11.2575 6.17826 12.6102C5.34535 13.963 5.30845 15.5975 6.0781 16.9861L17.9233 38.3379C18.7193 39.7727 20.2586 40.6694 21.9403 40.6694H30.3642C32.0617 40.6694 33.6115 39.7624 34.4023 38.2969L44.4499 19.7172H59.7216C60.0748 19.7172 60.3647 19.9991 60.3647 20.3424C60.3647 20.6857 60.0748 20.9675 59.7216 20.9675H47.4283C44.8558 20.9675 42.763 23.0017 42.763 25.5023C42.763 28.0028 44.8558 30.037 47.4283 30.037H59.7216C60.0748 30.037 60.3647 30.3188 60.3647 30.6622V30.8876C60.3647 31.2309 60.0748 31.5127 59.7216 31.5127L44.1916 31.4256H44.1652C42.8947 31.4256 41.7034 31.9073 40.8019 32.7784C39.9058 33.6495 39.4102 34.8126 39.4102 36.0475C39.4102 38.5941 41.5452 40.6694 44.1652 40.6694H65.1619C69.6427 40.6694 73.2906 37.1235 73.2906 32.7681V18.3542C73.2906 13.9988 69.6427 10.453 65.1619 10.453V10.4479Z" fill="black"/>
<path d="M170.05 41.2484C161.147 41.2484 153.904 34.208 153.904 25.5535C153.904 16.8991 161.147 9.85864 170.05 9.85864C178.954 9.85864 186.197 16.8991 186.197 25.5535C186.197 34.208 178.954 41.2484 170.05 41.2484ZM170.05 20.245C167.04 20.245 164.589 22.6277 164.589 25.5535C164.589 28.4793 167.04 30.862 170.05 30.862C173.06 30.862 175.512 28.4793 175.512 25.5535C175.512 22.6277 173.06 20.245 170.05 20.245Z" fill="#00956D"/>
<path d="M170.05 10.2379C178.754 10.2379 185.812 17.0989 185.812 25.5587C185.812 34.0184 178.754 40.8795 170.05 40.8795C161.347 40.8795 154.288 34.0184 154.288 25.5587C154.288 17.0989 161.347 10.2379 170.05 10.2379ZM170.05 31.2412C173.282 31.2412 175.897 28.6946 175.897 25.5587C175.897 22.4228 173.277 19.8761 170.05 19.8761C166.824 19.8761 164.204 22.4228 164.204 25.5587C164.204 28.6946 166.824 31.2412 170.05 31.2412ZM170.05 9.48462C165.633 9.48462 161.479 11.1551 158.358 14.1936C155.237 17.227 153.513 21.2648 153.513 25.5587C153.513 34.4232 160.931 41.6327 170.05 41.6327C174.468 41.6327 178.622 39.9623 181.743 36.9238C184.863 33.8903 186.587 29.8526 186.587 25.5587C186.587 16.6941 179.17 9.48462 170.05 9.48462ZM170.05 30.488C167.251 30.488 164.979 28.2744 164.979 25.5587C164.979 22.843 167.256 20.6294 170.05 20.6294C172.844 20.6294 175.122 22.843 175.122 25.5587C175.122 28.2744 172.844 30.488 170.05 30.488Z" fill="black"/>
<path d="M140.182 37.9537V37.9127C136.602 37.8717 133.397 37.2312 130.651 36.0168C127.925 34.8127 125.764 33.1474 124.225 31.0721V35.1662C124.225 36.6778 122.959 37.9076 121.404 37.9076H115.5C113.945 37.9076 112.68 36.6778 112.68 35.1662V30.6264C112.68 29.5298 111.763 28.6331 110.629 28.6331H110.313C109.717 28.6331 109.148 28.8893 108.758 29.33L102.031 36.9494C101.494 37.5592 100.713 37.9076 99.891 37.9076H90.8713C90.2018 37.9076 89.6167 37.5438 89.3373 36.9494C89.0579 36.3601 89.158 35.6889 89.5903 35.197L93.9657 30.2523C94.3927 29.7706 94.5614 29.1404 94.4296 28.5153C94.3031 27.9157 93.9077 27.4187 93.3542 27.1523C92.1259 26.5681 91.0664 25.7944 90.2071 24.8618C88.6731 23.1965 87.8929 21.0598 87.8929 18.5183V18.3646C87.8929 16.4072 88.4464 14.6548 89.5429 13.1586C90.6288 11.6726 92.1734 10.4992 94.1344 9.67422C96.0796 8.85437 98.3411 8.43933 100.856 8.43933H121.41C122.965 8.43933 124.23 9.66909 124.23 11.1807V15.2543C125.769 13.1688 127.93 11.5035 130.656 10.3096C133.503 9.06446 136.85 8.4342 140.614 8.4342H154.315C154.8 8.4342 155.216 8.70065 155.401 9.1362C155.585 9.56661 155.495 10.0431 155.158 10.3762C151.7 13.8247 149.797 18.3697 149.797 23.1811C149.797 27.9926 151.689 32.5069 155.121 35.9502C155.459 36.2884 155.548 36.7598 155.358 37.1902C155.169 37.6207 154.752 37.8922 154.272 37.8922H148.384L147.999 37.9332H140.187L140.182 37.9537ZM140.566 17.8932C139.375 17.8932 138.231 18.1237 137.172 18.5798C136.122 19.0307 135.258 19.6763 134.61 20.5013C133.966 21.3211 133.65 22.2127 133.65 23.2221C133.65 25.0463 134.277 26.3478 135.574 27.1984C136.897 28.0695 138.579 28.5101 140.566 28.5101H144.156C144.715 28.5101 145.168 28.0695 145.168 27.5263V18.877C145.168 18.3338 144.715 17.8932 144.156 17.8932H140.566ZM103.481 16.4584C102.279 16.4584 101.378 16.4943 100.798 16.5712C100.281 16.6378 99.8857 16.812 99.5852 17.1041C99.3058 17.3808 99.1582 17.8573 99.1582 18.5234C99.1582 19.1895 99.2953 19.6097 99.5747 19.8557C99.8699 20.1221 100.286 20.2912 100.798 20.3578C101.372 20.4347 102.279 20.4705 103.481 20.4705H110.624C111.752 20.4705 112.675 19.579 112.675 18.4773C112.675 17.3756 111.757 16.4892 110.629 16.484C107.403 16.484 105.426 16.4687 104.746 16.4482H103.481V16.4584ZM79.9275 37.9127C76.5801 37.9127 73.8547 35.2636 73.8547 32.0098V14.3576C73.8547 11.1038 76.5801 8.4547 79.9275 8.4547C83.275 8.4547 86.0004 11.1038 86.0004 14.3576V32.0098C86.0004 35.2636 83.275 37.9127 79.9275 37.9127ZM42.7788 37.9127C40.3697 37.9127 38.4086 36.0066 38.4086 33.6649C38.4086 31.3232 40.3697 29.4171 42.7735 29.4171L58.3246 29.5042C58.8992 29.5042 59.3579 29.0533 59.3579 28.505V28.2796C59.3579 27.7262 58.894 27.2804 58.3299 27.2804H46.0366C43.6749 27.2804 41.7561 25.4152 41.7561 23.1197C41.7561 20.8241 43.6749 18.959 46.0366 18.959H58.3299C58.8992 18.959 59.3579 18.508 59.3579 17.9598C59.3579 17.4115 58.894 16.9606 58.3299 16.9606H42.8209L32.6626 35.7401C31.9404 37.0775 30.5224 37.9076 28.9672 37.9076H20.5433C19.0093 37.9076 17.6017 37.0929 16.869 35.776L5.03959 14.4344C4.3332 13.1637 4.3701 11.6675 5.12921 10.4326C5.88831 9.19256 7.22729 8.4547 8.71388 8.4547H11.5394C13.0418 8.4547 14.4335 9.2438 15.1715 10.5146L23.2634 24.416C23.5217 24.8567 23.9856 25.1232 24.5075 25.1232C25.0294 25.1232 25.5196 24.8465 25.7727 24.3802L33.2161 10.6273C33.9383 9.28992 35.3564 8.45982 36.9115 8.45982H63.7807C68.0507 8.45982 71.5194 11.8366 71.5194 15.9819V30.3958C71.5194 34.5462 68.0454 37.9178 63.7807 37.9178H42.784L42.7788 37.9127Z" fill="#FF4C00"/>
<path d="M154.309 8.82867C155.011 8.82867 155.369 9.64851 154.879 10.1353C151.494 13.5069 149.407 18.1185 149.407 23.2067C149.407 28.2948 151.479 32.8655 154.842 36.2371C155.327 36.7239 154.968 37.5386 154.273 37.5386H147.994V37.5796H140.572V37.5386C136.871 37.5386 133.619 36.9186 130.814 35.6786C128.01 34.4385 125.843 32.7322 124.33 30.5597C124.156 30.3137 123.998 30.0626 123.845 29.8115V35.1764C123.845 36.483 122.754 37.5437 121.41 37.5437H115.505C114.161 37.5437 113.07 36.483 113.07 35.1764V30.6365C113.07 29.3299 111.979 28.2692 110.634 28.2692H110.318C109.607 28.2692 108.932 28.5715 108.468 29.0942L101.741 36.7136C101.277 37.2363 100.603 37.5386 99.891 37.5386H90.8714C89.7591 37.5386 89.1581 36.2678 89.8856 35.448L94.261 30.5033C95.2995 29.3299 94.9516 27.5006 93.523 26.8191C92.3369 26.2504 91.3247 25.5176 90.4918 24.6158C89.0158 23.012 88.2778 20.9829 88.2778 18.5233V18.3696C88.2778 16.484 88.8049 14.8187 89.854 13.3839C90.903 11.9492 92.3843 10.8322 94.2821 10.0277C96.1851 9.22834 98.3728 8.82355 100.85 8.82355H121.404C122.749 8.82355 123.84 9.88422 123.84 11.1908V16.5403C123.993 16.2841 124.151 16.033 124.325 15.7871C125.843 13.6043 128.004 11.8928 130.809 10.6682C133.619 9.43843 136.882 8.82355 140.609 8.82355H154.309M103.486 20.8496H110.629C111.973 20.8496 113.065 19.789 113.065 18.4823C113.065 17.1757 111.973 16.115 110.629 16.115C107.387 16.115 105.431 16.0997 104.762 16.0792H103.486C102.263 16.0792 101.351 16.1202 100.75 16.197C100.149 16.2739 99.6749 16.4891 99.3111 16.8375C98.9527 17.186 98.7734 17.7496 98.7734 18.5233C98.7734 19.2971 98.9527 19.8095 99.3111 20.1323C99.6696 20.4551 100.149 20.6549 100.75 20.7318C101.351 20.8086 102.263 20.8496 103.486 20.8496ZM140.572 28.879H144.162C144.937 28.879 145.564 28.2692 145.564 27.516V18.8718C145.564 18.1185 144.937 17.5088 144.162 17.5088H140.572C139.322 17.5088 138.136 17.7496 137.019 18.2261C135.901 18.7027 134.994 19.3842 134.304 20.2655C133.613 21.1468 133.265 22.1255 133.265 23.2118C133.265 25.1538 133.961 26.5834 135.358 27.5006C136.755 28.4178 138.489 28.879 140.566 28.879M79.9276 8.81842C83.0694 8.81842 85.6156 11.2933 85.6156 14.3472V31.9995C85.6156 35.0534 83.0694 37.5283 79.9276 37.5283C76.7857 37.5283 74.2396 35.0534 74.2396 31.9995V14.3575C74.2396 11.3036 76.7857 8.82867 79.9276 8.82867M63.7755 8.82867C67.8346 8.82867 71.1293 12.0312 71.1293 15.9767V30.3906C71.1293 34.3361 67.8346 37.5386 63.7755 37.5386H42.7788C40.5806 37.5386 38.7988 35.8067 38.7988 33.6699C38.7988 31.5332 40.5806 29.8013 42.7788 29.8013C42.7841 29.8013 42.7947 29.8013 42.7999 29.8013L58.3247 29.8884H58.3352C59.1154 29.8884 59.7533 29.2735 59.7533 28.51V28.2846C59.7533 27.5262 59.1207 26.9062 58.3352 26.9062H46.0419C43.8911 26.9062 42.1515 25.2102 42.1515 23.1247C42.1515 21.0392 43.8964 19.3432 46.0419 19.3432H58.3352C59.1154 19.3432 59.7533 18.7283 59.7533 17.9648C59.7533 17.2013 59.1207 16.5864 58.3352 16.5864H42.7578C42.705 16.5864 42.6523 16.5864 42.5996 16.5864L32.3306 35.5709C31.6769 36.7802 30.3854 37.5386 28.9779 37.5386H20.5539C19.1622 37.5386 17.8812 36.7956 17.2223 35.6068L5.38232 14.255C4.02226 11.8057 5.85149 8.82867 8.71396 8.82867H11.5395C12.9049 8.82867 14.1648 9.54091 14.8342 10.6989L22.9261 24.6004C23.274 25.1999 23.8908 25.4971 24.5076 25.4971C25.1244 25.4971 25.778 25.1794 26.1154 24.5543L33.5589 10.8014C34.2125 9.59215 35.5041 8.83379 36.9116 8.83379H63.7808M154.309 8.08056H140.609C136.792 8.08056 133.387 8.72107 130.492 9.99182C128.094 11.0422 126.122 12.4462 124.615 14.1833V11.2062C124.615 9.48455 123.176 8.08569 121.404 8.08569H100.85C98.2832 8.08569 95.969 8.51098 93.9763 9.35132C91.952 10.207 90.3495 11.4214 89.2214 12.9638C88.0774 14.5215 87.5028 16.3456 87.5028 18.385V18.5387C87.5028 21.1776 88.3147 23.3963 89.9172 25.1333C90.8081 26.1018 91.9099 26.9011 93.1803 27.5109C93.6284 27.7261 93.9447 28.1257 94.0501 28.6125C94.1556 29.1198 94.0185 29.6373 93.6758 30.0268L89.3004 34.9714C88.7627 35.5761 88.6468 36.401 88.9894 37.1287C89.3321 37.8563 90.0543 38.3072 90.8766 38.3072H99.8963C100.835 38.3072 101.72 37.9126 102.332 37.2209L109.058 29.6015C109.375 29.2428 109.833 29.0378 110.318 29.0378H110.634C111.552 29.0378 112.295 29.7603 112.295 30.6519V35.1918C112.295 36.9134 113.734 38.3123 115.505 38.3123H121.41C123.181 38.3123 124.62 36.9134 124.62 35.1918V32.1891C126.128 33.9159 128.099 35.325 130.498 36.3857C133.197 37.5796 136.323 38.2252 139.802 38.3072V38.3533H148.774V38.3123H154.278C154.91 38.3123 155.474 37.9485 155.722 37.3797C155.97 36.8161 155.843 36.1705 155.406 35.7298C152.043 32.3582 150.187 27.9157 150.187 23.2221C150.187 18.5284 152.053 14.0552 155.438 10.6784C155.88 10.2378 156.002 9.59215 155.759 9.02851C155.511 8.46487 154.947 8.09594 154.315 8.09594L154.309 8.08056ZM103.486 20.1066C102.3 20.1066 101.42 20.0708 100.856 19.999C100.413 19.9427 100.086 19.8095 99.8436 19.5942C99.6538 19.4252 99.5536 19.0511 99.5536 18.5387C99.5536 17.9802 99.6591 17.5805 99.8647 17.3858C100.102 17.1552 100.429 17.0169 100.856 16.9605C101.42 16.8888 102.305 16.8529 103.486 16.8529H104.762C105.416 16.8734 107.345 16.8888 110.629 16.8888C111.546 16.8888 112.29 17.6164 112.29 18.5028C112.29 19.3893 111.546 20.1169 110.629 20.1169H103.486V20.1066ZM140.572 28.136C138.663 28.136 137.056 27.7158 135.796 26.8857C134.615 26.112 134.04 24.913 134.04 23.2221C134.04 22.2997 134.33 21.485 134.921 20.7318C135.527 19.958 136.339 19.3534 137.33 18.9281C138.342 18.4926 139.433 18.2722 140.572 18.2722H144.162C144.504 18.2722 144.789 18.5438 144.789 18.882V27.5262C144.789 27.8593 144.51 28.136 144.162 28.136H140.572ZM79.9276 8.07544C76.364 8.07544 73.4646 10.8937 73.4646 14.3575V32.0098C73.4646 35.4736 76.364 38.2918 79.9276 38.2918C83.4912 38.2918 86.3905 35.4736 86.3905 32.0098V14.3575C86.3905 10.8937 83.4912 8.07544 79.9276 8.07544ZM63.7755 8.07544H36.9063C35.2089 8.07544 33.659 8.98239 32.8683 10.4427L25.4248 24.1956C25.2403 24.5338 24.8977 24.7388 24.5023 24.7388C24.3178 24.7388 23.8644 24.6875 23.5956 24.2264L15.5037 10.3249C14.6972 8.93628 13.1737 8.07544 11.5342 8.07544H8.70868C7.08504 8.07544 5.62482 8.88503 4.79191 10.2378C3.959 11.5905 3.9221 13.2251 4.69175 14.6137L16.537 35.9655C17.333 37.4002 18.8723 38.2969 20.5539 38.2969H28.9779C30.6753 38.2969 32.2252 37.39 33.0159 35.9245L43.0635 17.3448H58.3352C58.6884 17.3448 58.9784 17.6266 58.9784 17.9699C58.9784 18.3132 58.6884 18.5951 58.3352 18.5951H46.0419C43.4694 18.5951 41.3766 20.6293 41.3766 23.1298C41.3766 25.6303 43.4694 27.6646 46.0419 27.6646H58.3352C58.6884 27.6646 58.9784 27.9464 58.9784 28.2897V28.5152C58.9784 28.8585 58.6884 29.1403 58.3352 29.1403L42.8052 29.0532H42.7788C41.5084 29.0532 40.317 29.5349 39.4156 30.4059C38.5194 31.277 38.0239 32.4402 38.0239 33.6751C38.0239 36.2217 40.1589 38.2969 42.7788 38.2969H63.7755C68.2563 38.2969 71.9043 34.7511 71.9043 30.3957V15.9818C71.9043 11.6264 68.2563 8.08056 63.7755 8.08056V8.07544Z" fill="black"/>
<path d="M168.669 38.8811C159.765 38.8811 152.522 31.8407 152.522 23.1862C152.522 14.5317 159.765 7.49133 168.669 7.49133C177.573 7.49133 184.816 14.5317 184.816 23.1862C184.816 31.8407 177.573 38.8811 168.669 38.8811ZM168.669 17.8777C165.659 17.8777 163.208 20.2604 163.208 23.1862C163.208 26.112 165.659 28.4947 168.669 28.4947C171.679 28.4947 174.131 26.112 174.131 23.1862C174.131 20.2604 171.679 17.8777 168.669 17.8777Z" fill="#FF4C00"/>
<path d="M168.669 7.86541C177.372 7.86541 184.431 14.7265 184.431 23.1862C184.431 31.646 177.372 38.5071 168.669 38.5071C159.966 38.5071 152.907 31.646 152.907 23.1862C152.907 14.7265 159.966 7.86541 168.669 7.86541ZM168.669 28.8688C171.901 28.8688 174.515 26.3221 174.515 23.1862C174.515 20.0503 171.895 17.5037 168.669 17.5037C165.443 17.5037 162.823 20.0503 162.823 23.1862C162.823 26.3221 165.443 28.8688 168.669 28.8688ZM168.669 7.11218C164.252 7.11218 160.098 8.78261 156.977 11.8212C153.856 14.8546 152.132 18.8923 152.132 23.1862C152.132 32.0508 159.549 39.2603 168.669 39.2603C173.087 39.2603 177.241 37.5899 180.361 34.5513C183.482 31.5179 185.206 27.4802 185.206 23.1862C185.206 14.3217 177.789 7.11218 168.669 7.11218ZM168.669 28.1156C165.87 28.1156 163.598 25.902 163.598 23.1862C163.598 20.4705 165.875 18.2569 168.669 18.2569C171.463 18.2569 173.74 20.4705 173.74 23.1862C173.74 25.902 171.463 28.1156 168.669 28.1156Z" fill="black"/>
<path d="M138.8 35.5813V35.5403C135.221 35.4993 132.016 34.8588 129.269 33.6444C126.544 32.4403 124.383 30.7749 122.843 28.6997V32.7938C122.843 34.3054 121.578 35.5352 120.023 35.5352H114.119C112.564 35.5352 111.299 34.3054 111.299 32.7938V28.2539C111.299 27.1574 110.381 26.2607 109.248 26.2607H108.932C108.331 26.2607 107.767 26.5118 107.377 26.9575L100.65 34.577C100.112 35.1867 99.3322 35.5352 98.5098 35.5352H89.4902C88.8207 35.5352 88.2355 35.1714 87.9562 34.577C87.6768 33.9877 87.7769 33.3165 88.2092 32.8246L92.5846 27.8799C93.0116 27.3982 93.1803 26.768 93.0485 26.1428C92.922 25.5433 92.5266 25.0463 91.9731 24.7798C90.7448 24.1957 89.6852 23.4271 88.826 22.4894C87.2919 20.8241 86.5117 18.6874 86.5117 16.1459V15.9921C86.5117 14.0348 87.0653 12.2823 88.1618 10.7912C89.2477 9.30528 90.7923 8.13188 92.7533 7.30691C94.6985 6.48707 96.96 6.07202 99.4745 6.07202H120.028C121.583 6.07202 122.849 7.30179 122.849 8.81337V12.887C124.388 10.8015 126.549 9.13619 129.275 7.94741C132.121 6.70228 135.474 6.07202 139.233 6.07202H152.934C153.419 6.07202 153.835 6.33847 154.019 6.77401C154.209 7.20443 154.114 7.68096 153.777 8.01915C150.319 11.4676 148.416 16.0126 148.416 20.8241C148.416 25.6355 150.308 30.1498 153.74 33.5932C154.077 33.9262 154.167 34.4028 153.977 34.8332C153.788 35.2636 153.371 35.5352 152.891 35.5352H147.003L146.618 35.5762H138.806L138.8 35.5813ZM139.185 15.5207C137.994 15.5207 136.85 15.7513 135.79 16.2073C134.741 16.6583 133.877 17.3039 133.228 18.1289C132.585 18.9487 132.269 19.8403 132.269 20.8497C132.269 22.6739 132.896 23.9754 134.193 24.826C135.516 25.697 137.198 26.1377 139.185 26.1377H142.775C143.334 26.1377 143.787 25.697 143.787 25.1539V16.5097C143.787 15.9665 143.334 15.5258 142.775 15.5258H139.185V15.5207ZM102.1 14.086C100.898 14.086 99.9911 14.127 99.4165 14.1987C98.8999 14.2653 98.5046 14.4396 98.2041 14.7316C97.9194 15.0083 97.7771 15.4849 97.7771 16.151C97.7771 16.8171 97.9141 17.2373 98.1935 17.4832C98.4888 17.7497 98.9052 17.9188 99.4165 17.9854C99.9964 18.0622 100.898 18.0981 102.1 18.0981H109.243C110.371 18.0981 111.293 17.2065 111.293 16.1049C111.293 15.0032 110.376 14.1167 109.248 14.1116C105.953 14.1116 104.034 14.0962 103.365 14.0757H102.1V14.086ZM78.5464 35.5403C75.199 35.5403 72.4735 32.8912 72.4735 29.6374V11.9851C72.4735 8.73139 75.199 6.08227 78.5464 6.08227C81.8938 6.08227 84.6193 8.73139 84.6193 11.9851V29.6374C84.6193 32.8912 81.8938 35.5403 78.5464 35.5403ZM41.3977 35.5403C38.9885 35.5403 37.0275 33.6342 37.0275 31.2976C37.0275 28.961 38.9885 27.0498 41.3924 27.0498L56.9435 27.1369C57.5181 27.1369 57.9767 26.686 57.9767 26.1377V25.9122C57.9767 25.3589 57.5128 24.9131 56.9488 24.9131H44.6555C42.2938 24.9131 40.375 23.0479 40.375 20.7524C40.375 18.4568 42.2938 16.5916 44.6555 16.5916H56.9488C57.5181 16.5916 57.9767 16.1407 57.9767 15.5925C57.9767 15.0442 57.5128 14.5933 56.9488 14.5933H41.4398L31.2815 33.3728C30.5593 34.7102 29.1413 35.5403 27.5861 35.5403H19.1622C17.6281 35.5403 16.2206 34.7256 15.4879 33.4087L3.65849 12.062C2.9521 10.7912 2.989 9.29503 3.7481 8.05502C4.50721 6.81501 5.84619 6.07715 7.33277 6.07715H10.1583C11.6607 6.07715 13.0524 6.86625 13.7904 8.137L21.8823 22.0385C22.1406 22.4791 22.6045 22.7456 23.1264 22.7456C23.6483 22.7456 24.1385 22.4689 24.3916 22.0026L31.835 8.24973C32.5572 6.91236 33.9753 6.08227 35.5304 6.08227H62.3996C66.6696 6.08227 70.1383 9.459 70.1383 13.6043V28.0182C70.1383 32.1687 66.6643 35.5403 62.3996 35.5403H41.4029H41.3977Z" fill="#FF65FF"/>
<path d="M152.923 6.45623C153.624 6.45623 153.983 7.27608 153.492 7.76286C150.108 11.1345 148.02 15.7461 148.02 20.8342C148.02 25.9224 150.092 30.493 153.455 33.8646C153.94 34.3514 153.582 35.1661 152.886 35.1661H146.608V35.2071H139.185V35.1661C135.485 35.1661 132.232 34.5461 129.428 33.3061C126.623 32.0661 124.456 30.3598 122.944 28.1872C122.77 27.9413 122.611 27.6902 122.459 27.4391V32.804C122.459 34.1106 121.367 35.1713 120.023 35.1713H114.119C112.775 35.1713 111.683 34.1106 111.683 32.804V28.2641C111.683 26.9575 110.592 25.8968 109.248 25.8968H108.932C108.22 25.8968 107.545 26.1991 107.081 26.7218L100.355 34.3412C99.8909 34.8638 99.2162 35.1661 98.5045 35.1661H89.4849C88.3726 35.1661 87.7716 33.8954 88.4991 33.0755L92.8745 28.1309C93.913 26.9575 93.5651 25.1282 92.1365 24.4467C90.9504 23.8779 89.9382 23.1452 89.1053 22.2434C87.6293 20.6395 86.8913 18.6104 86.8913 16.1509V15.9972C86.8913 14.1115 87.4184 12.4462 88.4675 11.0115C89.5165 9.57677 90.9978 8.45973 92.8956 7.65526C94.7986 6.85591 96.9863 6.45111 99.464 6.45111H120.018C121.362 6.45111 122.453 7.51178 122.453 8.81841V14.1679C122.606 13.9117 122.764 13.6606 122.938 13.4147C124.456 11.2318 126.618 9.5204 129.422 8.29576C132.232 7.06599 135.495 6.45111 139.222 6.45111H152.923M102.1 18.4772H109.243C110.587 18.4772 111.678 17.4165 111.678 16.1099C111.678 14.8033 110.587 13.7426 109.243 13.7426C106.001 13.7426 104.045 13.7272 103.375 13.7067H102.1C100.877 13.7067 99.9648 13.7477 99.3638 13.8246C98.7628 13.9014 98.2884 14.1167 97.9247 14.4651C97.5662 14.8135 97.387 15.3772 97.387 16.1509C97.387 16.9246 97.5662 17.437 97.9247 17.7598C98.2831 18.0826 98.7628 18.2825 99.3638 18.3593C99.9648 18.4362 100.877 18.4772 102.1 18.4772ZM139.185 26.5065H142.775C143.55 26.5065 144.177 25.8968 144.177 25.1436V16.4942C144.177 15.741 143.55 15.1312 142.775 15.1312H139.185C137.936 15.1312 136.75 15.372 135.632 15.8486C134.515 16.3251 133.608 17.0066 132.917 17.8879C132.227 18.7693 131.879 19.748 131.879 20.8342C131.879 22.7763 132.575 24.2059 133.972 25.1231C135.369 26.0403 137.103 26.5014 139.18 26.5014M78.5464 6.45623C81.6882 6.45623 84.2344 8.93114 84.2344 11.9851V29.6373C84.2344 32.6912 81.6882 35.1661 78.5464 35.1661C75.4045 35.1661 72.8583 32.6912 72.8583 29.6373V11.9851C72.8583 8.93114 75.4045 6.45623 78.5464 6.45623ZM62.3943 6.45623C66.4534 6.45623 69.7481 9.65875 69.7481 13.6042V28.0181C69.7481 31.9636 66.4534 35.1661 62.3943 35.1661H41.3976C39.1994 35.1661 37.4176 33.4342 37.4176 31.2975C37.4176 29.1608 39.1994 27.4289 41.3976 27.4289C41.4029 27.4289 41.4134 27.4289 41.4187 27.4289L56.9435 27.516H56.954C57.7342 27.516 58.3721 26.9011 58.3721 26.1376V25.9122C58.3721 25.1538 57.7395 24.5338 56.954 24.5338H44.6607C42.5099 24.5338 40.7703 22.8377 40.7703 20.7523C40.7703 18.6668 42.5152 16.9707 44.6607 16.9707H56.954C57.7342 16.9707 58.3721 16.3559 58.3721 15.5924C58.3721 14.8289 57.7395 14.214 56.954 14.214H41.3765C41.3238 14.214 41.2711 14.214 41.2184 14.214L30.9494 33.1985C30.2957 34.4078 29.0042 35.1661 27.5966 35.1661H19.1727C17.781 35.1661 16.5 34.4232 15.841 33.2344L4.0011 11.8826C2.64103 9.43329 4.47027 6.45623 7.33273 6.45623H10.1583C11.5236 6.45623 12.7835 7.16847 13.453 8.3265L21.5449 22.228C21.8928 22.8275 22.5096 23.1247 23.1264 23.1247C23.7431 23.1247 24.3968 22.807 24.7342 22.1819L32.1776 8.42898C32.8313 7.21971 34.1228 6.46136 35.5304 6.46136H62.3995M152.928 5.70813H139.227C135.411 5.70813 132.005 6.34863 129.111 7.61939C126.713 8.66981 124.741 10.0738 123.233 11.8108V8.83378C123.233 7.11211 121.794 5.71325 120.023 5.71325H99.4692C96.902 5.71325 94.5877 6.13854 92.5951 6.97888C90.5708 7.8346 88.9683 9.04899 87.8401 10.5913C86.6962 12.149 86.1216 13.9732 86.1216 16.0125V16.1663C86.1216 18.8051 86.9334 21.0238 88.536 22.7609C89.4269 23.7293 90.5286 24.5287 91.7991 25.1384C92.2472 25.3536 92.5635 25.7533 92.6689 26.2401C92.7743 26.7474 92.6373 27.2649 92.2946 27.6543L87.9192 32.599C87.3815 33.2036 87.2655 34.0286 87.6082 34.7562C87.9508 35.4838 88.673 35.9296 89.4954 35.9296H98.5151C99.4534 35.9296 100.339 35.5351 100.951 34.8433L107.677 27.2239C107.993 26.8652 108.452 26.6603 108.937 26.6603H109.253C110.171 26.6603 110.914 27.3828 110.914 28.2743V32.8142C110.914 34.5359 112.353 35.9347 114.124 35.9347H120.028C121.8 35.9347 123.239 34.5359 123.239 32.8142V29.8115C124.746 31.5383 126.718 32.9474 129.117 34.0081C131.816 35.202 134.942 35.8476 138.421 35.9296V35.9757H147.393V35.9347H152.897C153.529 35.9347 154.093 35.5709 154.341 35.0022C154.589 34.4385 154.462 33.7929 154.025 33.3522C150.661 29.9806 148.806 25.5381 148.806 20.8445C148.806 16.1509 150.672 11.6776 154.056 8.30088C154.499 7.86022 154.62 7.21459 154.378 6.65095C154.13 6.0873 153.566 5.71837 152.933 5.71837L152.928 5.70813ZM102.105 17.7342C100.919 17.7342 100.039 17.6983 99.4745 17.6266C99.0317 17.5702 98.7048 17.437 98.4624 17.2218C98.2726 17.0527 98.1724 16.6787 98.1724 16.1663C98.1724 15.6077 98.2779 15.2081 98.4834 15.0134C98.7207 14.7828 99.0475 14.6444 99.4745 14.5881C100.039 14.5163 100.924 14.4805 102.105 14.4805H103.381C104.034 14.501 105.964 14.5163 109.248 14.5163C110.165 14.5163 110.909 15.2439 110.909 16.1304C110.909 17.0168 110.165 17.7445 109.248 17.7445H102.105V17.7342ZM139.191 25.7636C137.282 25.7636 135.674 25.3434 134.414 24.5133C133.234 23.7396 132.659 22.5405 132.659 20.8496C132.659 19.9273 132.949 19.1126 133.539 18.3593C134.146 17.5856 134.957 16.981 135.948 16.5557C136.961 16.1201 138.052 15.8998 139.191 15.8998H142.78C143.123 15.8998 143.408 16.1714 143.408 16.5096V25.1589C143.408 25.492 143.128 25.7687 142.78 25.7687H139.191V25.7636ZM78.5464 5.703C74.9828 5.703 72.0834 8.52122 72.0834 11.9851V29.6373C72.0834 33.1012 74.9828 35.9194 78.5464 35.9194C82.1099 35.9194 85.0093 33.1012 85.0093 29.6373V11.9851C85.0093 8.52122 82.1099 5.703 78.5464 5.703ZM62.3943 5.703H35.5251C33.8276 5.703 32.2778 6.60996 31.4871 8.0703L24.0436 21.8232C23.8591 22.1614 23.5164 22.3663 23.1211 22.3663C22.9366 22.3663 22.4832 22.3151 22.2144 21.8539L14.1225 7.95245C13.316 6.56384 11.7925 5.703 10.153 5.703H7.32746C5.70381 5.703 4.24359 6.5126 3.41068 7.86534C2.57777 9.21808 2.54087 10.8526 3.31052 12.2413L15.1557 33.5931C15.9517 35.0278 17.491 35.9245 19.1727 35.9245H27.5966C29.2941 35.9245 30.8439 35.0175 31.6347 33.5521L41.6823 14.9724H56.954C57.3072 14.9724 57.5971 15.2542 57.5971 15.5975C57.5971 15.9408 57.3072 16.2226 56.954 16.2226H44.6607C42.0882 16.2226 39.9954 18.2569 39.9954 20.7574C39.9954 23.2579 42.0882 25.2921 44.6607 25.2921H56.954C57.3072 25.2921 57.5971 25.574 57.5971 25.9173V26.1427C57.5971 26.486 57.3072 26.7679 56.954 26.7679L41.424 26.6808H41.3976C40.1272 26.6808 38.9358 27.1624 38.0344 28.0335C37.1382 28.9046 36.6427 30.0677 36.6427 31.3026C36.6427 33.8493 38.7776 35.9245 41.3976 35.9245H62.3943C66.8751 35.9245 70.523 32.3787 70.523 28.0233V13.6094C70.523 9.25395 66.8751 5.70813 62.3943 5.70813V5.703Z" fill="black"/>
<path d="M167.288 36.5087C158.384 36.5087 151.141 29.4683 151.141 20.8138C151.141 16.6223 152.823 12.682 155.87 9.71515C158.922 6.74834 162.976 5.1189 167.288 5.1189C176.192 5.1189 183.435 12.1593 183.435 20.8138C183.435 29.4683 176.192 36.5087 167.288 36.5087ZM167.288 15.5053C164.278 15.5053 161.827 17.888 161.827 20.8138C161.827 23.7396 164.278 26.1223 167.288 26.1223C170.298 26.1223 172.749 23.7396 172.749 20.8138C172.749 17.888 170.298 15.5053 167.288 15.5053Z" fill="#FF65FF"/>
<path d="M167.288 5.49298C175.991 5.49298 183.05 12.354 183.05 20.8138C183.05 29.2736 175.991 36.1346 167.288 36.1346C158.585 36.1346 151.526 29.2736 151.526 20.8138C151.526 12.354 158.585 5.49298 167.288 5.49298ZM167.288 26.4964C170.519 26.4964 173.134 23.9497 173.134 20.8138C173.134 17.6779 170.514 15.1313 167.288 15.1313C164.062 15.1313 161.442 17.6779 161.442 20.8138C161.442 23.9497 164.062 26.4964 167.288 26.4964ZM167.288 4.73975C162.87 4.73975 158.716 6.41018 155.596 9.44873C152.475 12.4821 150.751 16.5199 150.751 20.8138C150.751 29.6784 158.168 36.8879 167.288 36.8879C171.706 36.8879 175.86 35.2174 178.98 32.1789C182.101 29.1455 183.825 25.1077 183.825 20.8138C183.825 11.9492 176.408 4.73975 167.288 4.73975ZM167.288 25.7431C164.489 25.7431 162.217 23.5295 162.217 20.8138C162.217 18.0981 164.494 15.8845 167.288 15.8845C170.082 15.8845 172.359 18.0981 172.359 20.8138C172.359 23.5295 170.082 25.7431 167.288 25.7431Z" fill="black"/>
<path d="M137.43 33.214V33.173C133.85 33.132 130.645 32.4915 127.899 31.2771C125.173 30.0729 123.012 28.4076 121.473 26.3324V30.4265C121.473 31.9381 120.208 33.1678 118.652 33.1678H112.748C111.193 33.1678 109.928 31.9381 109.928 30.4265V25.8866C109.928 24.7901 109.011 23.8934 107.877 23.8934H107.561C106.965 23.8934 106.396 24.1496 106.006 24.5902L99.2795 32.2097C98.7418 32.8194 97.9616 33.1678 97.1392 33.1678H88.1196C87.4501 33.1678 86.8649 32.804 86.5855 32.2097C86.3061 31.6204 86.4063 30.9491 86.8386 30.4572L91.214 25.5126C91.641 25.0309 91.8097 24.4006 91.6779 23.7755C91.5514 23.176 91.156 22.679 90.6025 22.4125C89.3742 21.8284 88.3146 21.0547 87.4553 20.1221C85.9213 18.4568 85.1411 16.3201 85.1411 13.7785V13.6248C85.1411 11.6674 85.6946 9.91503 86.7911 8.41881C87.8771 6.93284 89.4216 5.75944 91.3827 4.93447C93.3279 4.11463 95.5894 3.69958 98.1039 3.69958H118.658C120.213 3.69958 121.478 4.92935 121.478 6.44094V10.5145C123.017 8.42906 125.179 6.76375 127.904 5.57498C130.751 4.32984 134.098 3.69958 137.862 3.69958H151.563C152.048 3.69958 152.464 3.96603 152.649 4.40158C152.833 4.83199 152.744 5.30853 152.406 5.64671C148.948 9.09518 147.045 13.6402 147.045 18.4516C147.045 23.2631 148.938 27.7774 152.369 31.2207C152.707 31.5589 152.796 32.0303 152.607 32.4607C152.417 32.8911 152 33.1627 151.521 33.1627H145.632L145.248 33.2037H137.435L137.43 33.214ZM137.815 13.1534C136.623 13.1534 135.479 13.384 134.42 13.84C133.371 14.2909 132.506 14.9366 131.858 15.7615C131.22 16.5711 130.898 17.4832 130.898 18.4824C130.898 20.3065 131.526 21.608 132.822 22.4586C134.146 23.3297 135.827 23.7704 137.815 23.7704H141.405C141.963 23.7704 142.417 23.3297 142.417 22.7866V14.1372C142.417 13.5941 141.963 13.1534 141.405 13.1534H137.815ZM100.729 11.7187C99.5272 11.7187 98.6258 11.7546 98.0459 11.8314C97.5293 11.898 97.1339 12.0722 96.8335 12.3643C96.5488 12.641 96.4065 13.1175 96.4065 13.7837C96.4065 14.4498 96.5435 14.87 96.8229 15.1159C97.1234 15.3875 97.524 15.5515 98.0459 15.6181C98.6258 15.6949 99.5272 15.7308 100.729 15.7308H107.872C109 15.7308 109.923 14.8392 109.923 13.7375C109.923 12.6359 109.006 11.7494 107.877 11.7443C104.651 11.7443 102.674 11.7289 101.994 11.7084H100.729V11.7187ZM77.1758 33.173C73.8283 33.173 71.1029 30.5239 71.1029 27.2701V9.61783C71.1029 6.36408 73.8283 3.71496 77.1758 3.71496C80.5232 3.71496 83.2486 6.36408 83.2486 9.61783V27.2701C83.2486 30.5239 80.5232 33.173 77.1758 33.173ZM40.027 33.173C37.6179 33.173 35.6569 31.2668 35.6569 28.9303C35.6569 26.5937 37.6179 24.6825 40.0218 24.6825L55.5729 24.7696C56.1475 24.7696 56.6061 24.3187 56.6061 23.7704V23.5449C56.6061 22.9915 56.1422 22.5457 55.5782 22.5457H43.2849C40.9232 22.5457 39.0043 20.6806 39.0043 18.385C39.0043 16.0895 40.9232 14.2243 43.2849 14.2243H55.5782C56.1475 14.2243 56.6061 13.7734 56.6061 13.2251C56.6061 12.6769 56.1422 12.226 55.5782 12.226H40.0692L29.9109 31.0055C29.1887 32.3429 27.7706 33.173 26.2155 33.173H17.7915C16.2522 33.173 14.85 32.3583 14.1173 31.0414L2.29313 9.68957C1.58674 8.41881 1.62364 6.9226 2.38275 5.68771C3.14185 4.44769 4.48083 3.70983 5.96741 3.70983H8.79298C10.2954 3.70983 11.6871 4.49893 12.4251 5.76969L20.5169 19.6712C20.7753 20.1118 21.2392 20.3783 21.761 20.3783C22.2829 20.3783 22.7732 20.1016 23.0262 19.6353L30.4697 5.88242C31.1919 4.54505 32.6099 3.71496 34.165 3.71496H61.0342C65.3042 3.71496 68.7729 7.09169 68.7729 11.237V25.6509C68.7729 29.8014 65.2989 33.173 61.0342 33.173H40.0376H40.027Z" fill="#0088C4"/>
<path d="M151.558 4.08892C152.259 4.08892 152.617 4.90877 152.127 5.39555C148.743 8.76716 146.655 13.3788 146.655 18.4669C146.655 23.5551 148.727 28.1257 152.09 31.4973C152.575 31.9841 152.217 32.7988 151.521 32.7988H145.242V32.8398H137.82V32.7988C134.119 32.7988 130.867 32.1788 128.062 30.9388C125.258 29.6988 123.091 27.9925 121.578 25.8199C121.404 25.574 121.246 25.3229 121.093 25.0718V30.4367C121.093 31.7433 120.002 32.804 118.658 32.804H112.754C111.409 32.804 110.318 31.7433 110.318 30.4367V25.8968C110.318 24.5901 109.227 23.5295 107.883 23.5295H107.566C106.855 23.5295 106.18 23.8318 105.716 24.3544L98.9895 31.9739C98.5256 32.4965 97.8508 32.7988 97.1392 32.7988H88.1195C87.0072 32.7988 86.4063 31.5281 87.1337 30.7082L91.5091 25.7635C92.5476 24.5901 92.1997 22.7609 90.7711 22.0794C89.585 21.5106 88.5729 20.7779 87.74 19.876C86.2639 18.2722 85.5259 16.2431 85.5259 13.7836V13.6299C85.5259 11.7442 86.0531 10.0789 87.1021 8.64418C88.1512 7.20946 89.6325 6.09242 91.5302 5.28795C93.4333 4.4886 95.621 4.0838 98.0986 4.0838H118.652C119.997 4.0838 121.088 5.14447 121.088 6.4511V11.8006C121.241 11.5444 121.399 11.2933 121.573 11.0474C123.091 8.86452 125.252 7.15309 128.057 5.92845C130.867 4.69868 134.13 4.0838 137.857 4.0838H151.558M100.734 16.1099H107.877C109.222 16.1099 110.313 15.0492 110.313 13.7426C110.313 12.436 109.222 11.3753 107.877 11.3753C104.635 11.3753 102.68 11.3599 102.01 11.3394H100.734C99.5114 11.3394 98.5994 11.3804 97.9984 11.4573C97.3975 11.5341 96.923 11.7493 96.5593 12.0978C96.2008 12.4462 96.0216 13.0099 96.0216 13.7836C96.0216 14.5573 96.2008 15.0697 96.5593 15.3925C96.9178 15.7153 97.3975 15.9152 97.9984 15.992C98.5994 16.0689 99.5114 16.1099 100.734 16.1099ZM137.82 24.1392H141.41C142.185 24.1392 142.812 23.5295 142.812 22.7762V14.132C142.812 13.3788 142.185 12.769 141.41 12.769H137.82C136.571 12.769 135.384 13.0099 134.267 13.4864C133.149 13.9629 132.243 14.6444 131.552 15.5257C130.861 16.4071 130.513 17.3858 130.513 18.4721C130.513 20.4141 131.209 21.8437 132.606 22.7609C134.003 23.6781 135.738 24.1392 137.815 24.1392M77.181 4.08892C80.3229 4.08892 82.869 6.56383 82.869 9.61775V27.27C82.869 30.3239 80.3229 32.7988 77.181 32.7988C74.0392 32.7988 71.493 30.3239 71.493 27.27V9.61775C71.493 6.56383 74.0392 4.08892 77.181 4.08892ZM61.0289 4.08892C65.088 4.08892 68.3828 7.29144 68.3828 11.2369V25.6508C68.3828 29.5963 65.088 32.7988 61.0289 32.7988H40.0323C37.834 32.7988 36.0522 31.0669 36.0522 28.9302C36.0522 26.7935 37.834 25.0616 40.0323 25.0616C40.0375 25.0616 40.0481 25.0616 40.0533 25.0616L55.5781 25.1487H55.5887C56.3689 25.1487 57.0067 24.5338 57.0067 23.7703V23.5448C57.0067 22.7865 56.3741 22.1665 55.5887 22.1665H43.2954C41.1446 22.1665 39.4049 20.4704 39.4049 18.385C39.4049 16.2995 41.1498 14.6034 43.2954 14.6034H55.5887C56.3689 14.6034 57.0067 13.9885 57.0067 13.2251C57.0067 12.4616 56.3741 11.8467 55.5887 11.8467H40.0112C39.9585 11.8467 39.9057 11.8467 39.853 11.8467L29.584 30.8312C28.9303 32.0405 27.6388 32.7988 26.2313 32.7988H17.8073C16.4156 32.7988 15.1346 32.0559 14.4757 30.8671L2.63047 9.51527C1.27041 7.06598 3.09964 4.08892 5.9621 4.08892H8.78766C10.153 4.08892 11.4129 4.80116 12.0824 5.95919L20.1743 19.8607C20.5222 20.4602 21.139 20.7574 21.7557 20.7574C22.3725 20.7574 23.0262 20.4397 23.3636 19.8146L30.807 6.06167C31.4607 4.8524 32.7522 4.09405 34.1597 4.09405H61.0289M151.558 3.34082H137.857C134.04 3.34082 130.635 3.98132 127.741 5.25208C125.342 6.3025 123.371 7.70649 121.863 9.44353V6.46647C121.863 4.7448 120.424 3.34594 118.652 3.34594H98.0986C95.5313 3.34594 93.2171 3.77124 91.2245 4.61158C89.2002 5.46729 87.5976 6.68168 86.4695 8.22401C85.3256 9.78172 84.751 11.6059 84.751 13.6452V13.799C84.751 16.4378 85.5628 18.6565 87.1654 20.3936C88.0563 21.362 89.158 22.1614 90.4285 22.7711C90.8765 22.9863 91.1928 23.386 91.2983 23.8728C91.4037 24.3801 91.2666 24.8976 90.924 25.287L86.5486 30.2317C86.0109 30.8363 85.8949 31.6613 86.2376 32.3889C86.5802 33.1165 87.3024 33.5674 88.1248 33.5674H97.1444C98.0828 33.5674 98.9684 33.1729 99.5799 32.476L106.306 24.8566C106.623 24.4979 107.081 24.293 107.566 24.293H107.883C108.8 24.293 109.543 25.0154 109.543 25.907V30.4469C109.543 32.1686 110.982 33.5674 112.754 33.5674H118.658C120.429 33.5674 121.868 32.1686 121.868 30.4469V27.4442C123.376 29.171 125.347 30.5801 127.746 31.6408C130.445 32.8347 133.571 33.4803 137.05 33.5623V33.6084H146.022V33.5674H151.526C152.159 33.5674 152.723 33.2036 152.97 32.6349C153.218 32.0712 153.092 31.4256 152.654 30.9849C149.291 27.6133 147.435 23.1708 147.435 18.4772C147.435 13.7836 149.301 9.31031 152.686 5.93357C153.123 5.49291 153.25 4.84728 153.007 4.28364C152.76 3.71999 152.195 3.35107 151.563 3.35107L151.558 3.34082ZM100.734 15.3669C99.5483 15.3669 98.6627 15.331 98.1039 15.2593C97.6611 15.2029 97.3342 15.0697 97.0917 14.8545C96.902 14.6854 96.8018 14.3114 96.8018 13.799C96.8018 13.2404 96.9072 12.8408 97.1128 12.646C97.35 12.4155 97.6769 12.2771 98.1039 12.2208C98.6627 12.149 99.5483 12.1131 100.734 12.1131H102.01C102.664 12.1336 104.593 12.149 107.877 12.149C108.795 12.149 109.538 12.8766 109.538 13.7631C109.538 14.6495 108.795 15.3772 107.877 15.3772H100.734V15.3669ZM137.82 23.3963C135.912 23.3963 134.304 22.9761 133.044 22.146C131.863 21.3723 131.288 20.1732 131.288 18.4823C131.288 17.56 131.578 16.7453 132.169 15.992C132.775 15.2183 133.587 14.6137 134.578 14.1884C135.59 13.7528 136.681 13.5325 137.82 13.5325H141.41C141.752 13.5325 142.037 13.8041 142.037 14.1423V22.7865C142.037 23.1196 141.758 23.3963 141.41 23.3963H137.82ZM77.181 3.33569C73.6174 3.33569 70.7181 6.15391 70.7181 9.61775V27.27C70.7181 30.7339 73.6174 33.5521 77.181 33.5521C80.7446 33.5521 83.644 30.7339 83.644 27.27V9.61775C83.644 6.15391 80.7446 3.33569 77.181 3.33569ZM61.0289 3.33569H34.1597C32.4623 3.33569 30.9124 4.24265 30.1217 5.70299L22.6783 19.4559C22.4937 19.7941 22.1511 19.999 21.7557 19.999C21.5712 19.999 21.1179 19.9478 20.849 19.4866L12.7572 5.58514C11.9506 4.19653 10.4271 3.33569 8.78766 3.33569H5.9621C4.33846 3.33569 2.87823 4.14529 2.04533 5.49803C1.21242 6.85077 1.17552 8.48534 1.94517 9.87395L13.7904 31.2258C14.5864 32.6605 16.1257 33.5572 17.8073 33.5572H26.2313C27.9287 33.5572 29.4786 32.6502 30.2693 31.1848L40.3169 12.6051H55.5887C55.9419 12.6051 56.2318 12.8869 56.2318 13.2302C56.2318 13.5735 55.9419 13.8553 55.5887 13.8553H43.2954C40.7228 13.8553 38.63 15.8896 38.63 18.3901C38.63 20.8906 40.7228 22.9248 43.2954 22.9248H55.5887C55.9419 22.9248 56.2318 23.2067 56.2318 23.55V23.7754C56.2318 24.1187 55.9419 24.4006 55.5887 24.4006L40.0586 24.3135H40.0323C38.7618 24.3135 37.5704 24.7951 36.669 25.6662C35.7728 26.5373 35.2773 27.7004 35.2773 28.9353C35.2773 31.482 37.4123 33.5572 40.0323 33.5572H61.0289C65.5098 33.5572 69.1577 30.0114 69.1577 25.6559V11.2421C69.1577 6.88664 65.5098 3.34082 61.0289 3.34082V3.33569Z" fill="black"/>
<path d="M165.923 34.1362C157.019 34.1362 149.776 27.0958 149.776 18.4413C149.776 9.78687 157.019 2.74646 165.923 2.74646C174.826 2.74646 182.07 9.78687 182.07 18.4413C182.07 27.0958 174.826 34.1362 165.923 34.1362ZM165.923 13.1329C162.913 13.1329 160.461 15.5155 160.461 18.4413C160.461 21.3672 162.913 23.7498 165.923 23.7498C168.933 23.7498 171.384 21.3672 171.384 18.4413C171.384 15.5155 168.933 13.1329 165.923 13.1329Z" fill="#0088C4"/>
<path d="M165.923 3.12054C174.626 3.12054 181.685 9.98161 181.685 18.4414C181.685 26.9011 174.626 33.7622 165.923 33.7622C157.219 33.7622 150.161 26.9011 150.161 18.4414C150.161 9.98161 157.219 3.12054 165.923 3.12054ZM165.923 24.1239C169.154 24.1239 171.769 21.5773 171.769 18.4414C171.769 15.3055 169.149 12.7588 165.923 12.7588C162.696 12.7588 160.076 15.3055 160.076 18.4414C160.076 21.5773 162.696 24.1239 165.923 24.1239ZM165.923 2.36731C161.505 2.36731 157.351 4.03774 154.23 7.07629C151.11 10.1097 149.386 14.1474 149.386 18.4414C149.386 27.3059 156.803 34.5154 165.923 34.5154C170.34 34.5154 174.494 32.845 177.615 29.8065C180.736 26.773 182.46 22.7353 182.46 18.4414C182.46 9.57681 175.042 2.36731 165.923 2.36731ZM165.923 23.3707C163.123 23.3707 160.851 21.1571 160.851 18.4414C160.851 15.7256 163.129 13.5121 165.923 13.5121C168.717 13.5121 170.994 15.7256 170.994 18.4414C170.994 21.1571 168.717 23.3707 165.923 23.3707Z" fill="black"/>
<path d="M136.418 30.8415C136.354 30.8415 136.296 30.8262 136.244 30.8005C132.575 30.78 129.296 30.1447 126.497 28.9046C123.771 27.7005 121.61 26.0352 120.071 23.96V28.0592C120.071 29.5708 118.805 30.8005 117.25 30.8005H111.346C109.791 30.8005 108.526 29.5708 108.526 28.0592V23.5193C108.526 22.4228 107.609 21.5261 106.475 21.5261H106.159C105.558 21.5261 104.994 21.7771 104.604 22.2229L97.8773 29.8423C97.3396 30.4521 96.5594 30.8005 95.737 30.8005H86.7173C86.0479 30.8005 85.4627 30.4367 85.1833 29.8423C84.9039 29.2531 85.0041 28.5818 85.4364 28.0899L89.8118 23.1452C90.2387 22.6636 90.4074 22.0333 90.2757 21.4082C90.1491 20.8087 89.7538 20.3117 89.195 20.0452C87.9667 19.4611 86.9071 18.6873 86.0479 17.7548C84.5138 16.0895 83.7336 13.9527 83.7336 11.4112V11.2575C83.7336 9.30013 84.2871 7.54772 85.3836 6.0515C86.4696 4.56554 88.0141 3.39726 89.9752 2.56717C91.9204 1.74732 94.1819 1.33228 96.6964 1.33228H117.25C118.805 1.33228 120.071 2.56204 120.071 4.07363V8.15235C121.61 6.06687 123.771 4.40157 126.497 3.20767C129.343 1.96253 132.691 1.33228 136.455 1.33228H150.155C150.64 1.33228 151.057 1.59872 151.241 2.03427C151.426 2.46468 151.336 2.94122 150.999 3.27428C147.541 6.72275 145.638 11.2678 145.638 16.0792C145.638 20.8907 147.53 25.4101 150.962 28.8483C151.294 29.1813 151.389 29.6579 151.199 30.0883C151.009 30.5187 150.593 30.7903 150.113 30.7903H143.993C143.945 30.8159 143.893 30.8313 143.835 30.8313H136.412L136.418 30.8415ZM136.418 10.781C135.226 10.781 134.088 11.0116 133.023 11.4676C131.974 11.9185 131.109 12.5641 130.461 13.3891C129.823 14.1987 129.501 15.1108 129.501 16.11C129.501 17.9341 130.129 19.2356 131.426 20.0862C132.749 20.9573 134.43 21.398 136.418 21.398H140.008C140.566 21.398 141.02 20.9573 141.02 20.4141V11.7648C141.02 11.2216 140.566 10.781 140.008 10.781H136.418ZM99.3322 9.34625C98.1303 9.34625 97.2289 9.38212 96.649 9.45898C96.1324 9.52559 95.737 9.69981 95.4365 9.99188C95.1518 10.2686 95.0095 10.7451 95.0095 11.4164C95.0095 12.0876 95.1466 12.5026 95.426 12.7486C95.7212 13.015 96.1376 13.1841 96.649 13.2559C97.2289 13.3327 98.1303 13.3686 99.3322 13.3686H106.475C107.603 13.3686 108.526 12.477 108.526 11.3754C108.526 10.2737 107.609 9.38724 106.48 9.38212C103.191 9.38212 101.267 9.36674 100.597 9.34625H99.3322ZM75.7788 30.8005C72.4314 30.8005 69.706 28.1514 69.706 24.8977V7.2454C69.706 3.99164 72.4314 1.34252 75.7788 1.34252C79.1263 1.34252 81.8517 3.99164 81.8517 7.2454V24.8977C81.8517 28.1514 79.1263 30.8005 75.7788 30.8005ZM38.6301 30.8005C36.221 30.8005 34.2652 28.8944 34.2652 26.5578C34.2652 24.2213 36.2262 22.3152 38.6301 22.3152L54.1812 22.4023C54.7558 22.4023 55.2197 21.9513 55.2197 21.4031V21.1776C55.2197 20.6242 54.7558 20.1733 54.1918 20.1733H41.8985C39.5368 20.1733 37.6179 18.3082 37.6179 16.0126C37.6179 13.717 39.5368 11.8519 41.8985 11.8519H54.1918C54.7611 11.8519 55.2197 11.401 55.2197 10.8527C55.2197 10.3044 54.7558 9.8484 54.1918 9.8484H38.6828L28.5245 28.628C27.8023 29.9653 26.3842 30.7954 24.8291 30.7954H16.4051C14.8658 30.7954 13.4636 29.9807 12.7309 28.6638L0.890908 7.32226C0.184518 6.0515 0.221419 4.55529 0.980525 3.3204C1.73963 2.08551 3.07861 1.34252 4.56519 1.34252H7.39075C8.89315 1.34252 10.2848 2.13162 11.0229 3.40238L19.1147 17.3039C19.373 17.7445 19.8369 18.011 20.3588 18.011C20.8807 18.011 21.371 17.7343 21.624 17.268L29.0675 3.51511C29.7897 2.17774 31.2077 1.34765 32.7575 1.34765H59.6267C63.8967 1.34765 67.3654 4.72438 67.3654 8.86971V23.2836C67.3654 27.4341 63.8914 30.8057 59.6267 30.8057H38.6301V30.8005Z" fill="#00F092"/>
<path d="M150.161 1.71649C150.862 1.71649 151.22 2.53633 150.73 3.02311C147.346 6.39472 145.258 11.0063 145.258 16.0945C145.258 21.1827 147.33 25.7533 150.693 29.1249C151.178 29.6117 150.82 30.4264 150.124 30.4264H143.845V30.4674H136.423V30.4264C132.722 30.4264 129.47 29.8064 126.665 28.5664C123.861 27.3264 121.694 25.6201 120.181 23.4475C120.007 23.2015 119.849 22.9504 119.696 22.6994V28.0642C119.696 29.3708 118.605 30.4315 117.261 30.4315H111.357C110.012 30.4315 108.921 29.3708 108.921 28.0642V23.5243C108.921 22.2177 107.83 21.157 106.486 21.157H106.169C105.458 21.157 104.783 21.4594 104.319 21.982L97.5925 29.6014C97.1286 30.1241 96.4539 30.4264 95.7422 30.4264H86.7226C85.6103 30.4264 85.0093 29.1556 85.7368 28.3358L90.1122 23.3911C91.1507 22.2177 90.8027 20.3884 89.3742 19.7069C88.188 19.1382 87.1759 18.4054 86.343 17.5036C84.867 15.8998 84.1289 13.8707 84.1289 11.4111V11.2574C84.1289 9.37178 84.6561 7.70647 85.7051 6.27175C86.7542 4.83702 88.2355 3.71998 90.1333 2.91551C92.0363 2.11616 94.224 1.71136 96.7016 1.71136H117.255C118.6 1.71136 119.691 2.77204 119.691 4.07866V9.42815C119.844 9.17194 120.002 8.92087 120.176 8.67491C121.694 6.49208 123.856 4.78066 126.66 3.55601C129.47 2.32625 132.733 1.71136 136.46 1.71136H150.161M99.3374 13.7375H106.48C107.825 13.7375 108.916 12.6768 108.916 11.3702C108.916 10.0635 107.825 9.00285 106.48 9.00285C103.238 9.00285 101.283 8.98748 100.613 8.96698H99.3374C98.1144 8.96698 97.2024 9.00798 96.6015 9.08484C96.0005 9.1617 95.5261 9.37691 95.1623 9.72534C94.8039 10.0738 94.6246 10.6374 94.6246 11.4111C94.6246 12.1849 94.8039 12.6973 95.1623 13.0201C95.5208 13.3429 96.0005 13.5427 96.6015 13.6196C97.2024 13.6965 98.1144 13.7375 99.3374 13.7375ZM136.423 21.7668H140.013C140.788 21.7668 141.415 21.157 141.415 20.4038V11.7596C141.415 11.0063 140.788 10.3966 140.013 10.3966H136.423C135.174 10.3966 133.987 10.6374 132.87 11.114C131.752 11.5905 130.846 12.272 130.155 13.1533C129.464 14.0346 129.117 15.0133 129.117 16.0996C129.117 18.0416 129.812 19.4712 131.209 20.3884C132.606 21.3056 134.341 21.7668 136.418 21.7668M75.7788 1.71649C78.9206 1.71649 81.4668 4.19139 81.4668 7.24531V24.8976C81.4668 27.9515 78.9206 30.4264 75.7788 30.4264C72.6369 30.4264 70.0908 27.9515 70.0908 24.8976V7.24531C70.0908 4.19139 72.6369 1.71649 75.7788 1.71649ZM59.6267 1.71649C63.6858 1.71649 66.9805 4.919 66.9805 8.8645V23.2784C66.9805 27.2239 63.6858 30.4264 59.6267 30.4264H38.63C36.4318 30.4264 34.65 28.6945 34.65 26.5578C34.65 24.421 36.4318 22.6891 38.63 22.6891C38.6353 22.6891 38.6458 22.6891 38.6511 22.6891L54.1759 22.7762H54.1864C54.9666 22.7762 55.6045 22.1613 55.6045 21.3979V21.1724C55.6045 20.4141 54.9719 19.794 54.1864 19.794H41.8931C39.7423 19.794 38.0027 18.098 38.0027 16.0125C38.0027 13.927 39.7476 12.231 41.8931 12.231H54.1864C54.9666 12.231 55.6045 11.6161 55.6045 10.8526C55.6045 10.0891 54.9719 9.47426 54.1864 9.47426H38.6089C38.5562 9.47426 38.5035 9.47426 38.4508 9.47426L28.1818 28.4588C27.5281 29.668 26.2366 30.4264 24.829 30.4264H16.4051C15.0134 30.4264 13.7324 29.6834 13.0734 28.4946L1.2335 7.14283C-0.126567 4.68842 1.6974 1.71649 4.56513 1.71649H7.39069C8.75603 1.71649 10.0159 2.42873 10.6854 3.58676L18.7773 17.4882C19.1252 18.0877 19.742 18.3849 20.3588 18.3849C20.9755 18.3849 21.6292 18.0673 21.9666 17.4421L29.41 3.68924C30.0637 2.47997 31.3553 1.72161 32.7628 1.72161H59.632M150.161 0.968381H136.46C132.643 0.968381 129.238 1.60888 126.344 2.87964C123.945 3.93007 121.974 5.33917 120.461 7.07109V4.08891C120.461 2.36724 119.021 0.968381 117.25 0.968381H96.6964C94.1291 0.968381 91.8149 1.39367 89.8222 2.23401C87.798 3.08973 86.2007 4.30412 85.0673 5.84133C83.9233 7.39903 83.3488 9.22318 83.3488 11.2625V11.4163C83.3488 14.0551 84.1606 16.2687 85.7631 18.0109C86.654 18.9793 87.7558 19.7787 89.0262 20.3884C89.4743 20.6036 89.7959 21.0033 89.896 21.4901C90.0015 21.9974 89.8644 22.5149 89.5165 22.9043L85.1411 27.849C84.6087 28.4536 84.4874 29.2786 84.8301 30.0062C85.1727 30.7287 85.8949 31.1796 86.7173 31.1796H95.7369C96.6753 31.1796 97.5609 30.7851 98.1724 30.0933L104.899 22.4739C105.215 22.1152 105.674 21.9103 106.159 21.9103H106.475C107.392 21.9103 108.136 22.6328 108.136 23.5243V28.0642C108.136 29.7859 109.575 31.1848 111.346 31.1848H117.25C119.021 31.1848 120.461 29.7859 120.461 28.0642V25.0564C121.968 26.7832 123.94 28.1923 126.338 29.253C129.169 30.5033 132.48 31.154 136.17 31.1796C136.249 31.2052 136.333 31.2206 136.418 31.2206H143.84C143.924 31.2206 144.009 31.2052 144.088 31.1796H150.118C150.751 31.1796 151.315 30.8158 151.563 30.2522C151.811 29.6885 151.684 29.0429 151.247 28.6022C147.883 25.2306 146.028 20.7881 146.028 16.0945C146.028 11.4009 147.894 6.92762 151.278 3.55089C151.716 3.11022 151.842 2.4646 151.6 1.90095C151.352 1.33731 150.788 0.968381 150.155 0.968381H150.161ZM99.3374 12.9945C98.1513 12.9945 97.2657 12.9586 96.7069 12.8869C96.2641 12.8305 95.932 12.6973 95.6948 12.4769C95.505 12.3078 95.4048 11.9338 95.4048 11.4163C95.4048 10.8577 95.5103 10.4581 95.7159 10.2582C95.9531 10.0277 96.2799 9.88931 96.7069 9.83294C97.271 9.76121 98.1566 9.72534 99.3374 9.72534H100.613C101.267 9.74584 103.196 9.76121 106.48 9.76121C107.398 9.76121 108.141 10.4888 108.141 11.3753C108.141 12.2617 107.398 12.9893 106.48 12.9893H99.3374V12.9945ZM136.423 21.0238C134.515 21.0238 132.907 20.6036 131.647 19.7736C130.466 18.9998 129.891 17.8008 129.891 16.1099C129.891 15.1824 130.181 14.3677 130.772 13.6196C131.383 12.8459 132.19 12.2412 133.186 11.8159C134.198 11.3804 135.29 11.1601 136.428 11.1601H140.018C140.366 11.1601 140.645 11.4316 140.645 11.7698V20.4141C140.645 20.7522 140.366 21.0238 140.018 21.0238H136.428H136.423ZM75.7788 0.963257C72.2152 0.963257 69.3158 3.78147 69.3158 7.24531V24.8976C69.3158 28.3614 72.2152 31.1796 75.7788 31.1796C79.3424 31.1796 82.2417 28.3614 82.2417 24.8976V7.24531C82.2417 3.78147 79.3424 0.963257 75.7788 0.963257ZM59.6267 0.963257H32.7575C31.06 0.963257 29.5155 1.87021 28.7247 3.33056L21.2813 17.0834C21.0968 17.4216 20.7541 17.6266 20.3588 17.6266C20.1742 17.6266 19.7209 17.5753 19.452 17.1142L11.3602 3.2127C10.5536 1.82409 9.03015 0.963257 7.39069 0.963257H4.56513C2.94676 0.963257 1.48126 1.77285 0.648354 3.1256C-0.184554 4.47834 -0.221455 6.1129 0.548194 7.50151L12.3934 28.8533C13.1894 30.288 14.7287 31.1796 16.4051 31.1796H24.829C26.5265 31.1796 28.0763 30.2727 28.8671 28.8123L38.9147 10.2326H54.1864C54.5396 10.2326 54.8296 10.5144 54.8296 10.8577C54.8296 11.2011 54.5396 11.4829 54.1864 11.4829H41.8931C39.3206 11.4829 37.2278 13.5171 37.2278 16.0176C37.2278 18.5182 39.3206 20.5524 41.8931 20.5524H54.1864C54.5396 20.5524 54.8296 20.8342 54.8296 21.1775V21.403C54.8296 21.7463 54.5396 22.0281 54.1864 22.0281L38.6564 21.941H38.63C37.3596 21.941 36.1682 22.4227 35.272 23.2938C34.3759 24.1648 33.8803 25.328 33.8803 26.5629C33.8803 29.1095 36.0101 31.1848 38.6353 31.1848H59.632C64.1128 31.1848 67.7607 27.6389 67.7607 23.2835V8.86963C67.7607 4.51421 64.1128 0.968381 59.632 0.968381L59.6267 0.963257Z" fill="black"/>
<path d="M164.52 31.7638C155.617 31.7638 148.374 24.7234 148.374 16.0689C148.374 7.41443 155.617 0.374023 164.52 0.374023C173.424 0.374023 180.667 7.41443 180.667 16.0689C180.667 24.7234 173.424 31.7638 164.52 31.7638ZM164.52 10.7604C161.51 10.7604 159.059 13.1431 159.059 16.0689C159.059 18.9947 161.51 21.3774 164.52 21.3774C167.53 21.3774 169.982 18.9947 169.982 16.0689C169.982 13.1431 167.53 10.7604 164.52 10.7604Z" fill="#00F092"/>
<path d="M164.52 0.753232C173.224 0.753232 180.282 7.6143 180.282 16.0741C180.282 24.5338 173.224 31.3949 164.52 31.3949C155.817 31.3949 148.758 24.5338 148.758 16.0741C148.758 7.6143 155.817 0.753232 164.52 0.753232ZM164.52 21.7566C167.752 21.7566 170.367 19.21 170.367 16.0741C170.367 12.9382 167.747 10.3915 164.52 10.3915C161.294 10.3915 158.674 12.9382 158.674 16.0741C158.674 19.21 161.294 21.7566 164.52 21.7566ZM164.52 0C160.103 0 155.954 1.67043 152.828 4.70898C149.707 7.7424 147.984 11.7801 147.984 16.0741C147.984 24.9335 155.401 32.143 164.515 32.143C168.933 32.143 173.081 30.4726 176.208 27.434C179.328 24.4006 181.052 20.3629 181.052 16.0689C181.052 7.2095 173.635 0 164.52 0ZM164.52 21.0034C161.721 21.0034 159.444 18.7898 159.444 16.0689C159.444 13.3481 161.721 11.1345 164.52 11.1345C167.32 11.1345 169.597 13.3481 169.597 16.0689C169.597 18.7898 167.32 21.0034 164.52 21.0034Z" fill="black"/>
</g>
<defs>
<clipPath id="clip0_1437_17309">
<rect width="188" height="44" fill="white"/>
</clipPath>
</defs>
</svg>
