<svg width="25" height="25" viewBox="0 0 25 25" fill="none" xmlns="http://www.w3.org/2000/svg">
<g id="Icon/WhatsApp">
<path id="Vector" d="M12.501 2.73584C18.0238 2.73584 22.501 7.21299 22.501 12.7358C22.501 18.2586 18.0238 22.7358 12.501 22.7358C10.6671 22.7358 8.94851 22.2422 7.47086 21.3805L2.50516 22.7358L3.85712 17.7673C2.99494 16.2894 2.50098 14.5703 2.50098 12.7358C2.50098 7.21299 6.97813 2.73584 12.501 2.73584ZM8.89232 8.04417C8.76293 8.05326 8.63607 8.08486 8.52057 8.14395C8.43392 8.18828 8.35348 8.25235 8.22709 8.3717C8.10774 8.48439 8.03857 8.58281 7.96569 8.6777C7.59599 9.15904 7.39729 9.74989 7.40098 10.3568C7.40299 10.8474 7.53043 11.3242 7.73169 11.7694C8.13982 12.6722 8.81288 13.6266 9.70194 14.5117C9.9155 14.7243 10.1247 14.9392 10.3503 15.1378C11.4538 16.1094 12.7688 16.81 14.1907 17.184C14.1907 17.184 14.7507 17.27 14.7589 17.2705C14.9444 17.2805 15.1296 17.2671 15.3153 17.2576C15.6066 17.2426 15.891 17.1638 16.1484 17.0267C16.3139 16.9386 16.3922 16.8948 16.5311 16.8072C16.5311 16.8072 16.5737 16.7784 16.6559 16.7172C16.7909 16.6166 16.8743 16.5458 16.9866 16.4292C17.0694 16.3432 17.1406 16.2416 17.1956 16.1271C17.2738 15.9639 17.3525 15.6524 17.3838 15.3937C17.4077 15.1961 17.4005 15.0881 17.3979 15.0212C17.3936 14.9136 17.3047 14.8029 17.2073 14.7559L16.6258 14.4945C16.6258 14.4945 15.7563 14.1161 15.2245 13.8735C15.1691 13.8482 15.1085 13.8365 15.0476 13.8328C14.9142 13.8246 14.7647 13.8594 14.6696 13.9596C14.6646 13.9576 14.5984 14.0148 13.8749 14.8913C13.835 14.939 13.7415 15.0427 13.5798 15.033C13.5554 15.0313 13.5311 15.0278 13.5074 15.0216C13.4419 15.0043 13.3781 14.9815 13.3157 14.9551C13.192 14.9026 13.1486 14.8827 13.0641 14.8463C12.4868 14.5941 11.957 14.2567 11.4887 13.8438C11.3631 13.7332 11.2463 13.6141 11.1259 13.4974C10.7057 13.0901 10.3617 12.6569 10.1058 12.2296C10.0918 12.2063 10.0703 12.1726 10.0471 12.1349C10.0052 12.0668 9.95903 11.9858 9.94455 11.9302C9.90738 11.7831 10.006 11.6649 10.006 11.6649C10.006 11.6649 10.2494 11.3988 10.3625 11.2541C10.4713 11.1148 10.5652 10.9786 10.625 10.8815C10.7428 10.6922 10.7801 10.4965 10.7182 10.3455C10.4376 9.66149 10.1482 8.9812 9.84986 8.30478C9.79098 8.17129 9.61585 8.0743 9.45659 8.05591C9.40265 8.04968 9.34875 8.04342 9.29459 8.03986C9.16053 8.03332 9.0262 8.03476 8.89232 8.04417Z" fill="black"/>
</g>
</svg>
