<svg width="52" height="78" viewBox="0 0 52 78" fill="none" xmlns="http://www.w3.org/2000/svg">
<path d="M0.536133 28.5986C17.3513 28.5986 34.1665 28.5986 50.9817 28.6126C51.0252 28.6126 51.0686 28.6266 51.17 28.6545C51.17 35.4839 51.17 42.3133 51.17 49.2405C34.2824 49.2405 17.4093 49.2405 0.536133 49.2405C0.536133 42.3552 0.536133 35.4839 0.536133 28.5986ZM1.99896 47.802C17.9596 47.802 33.8479 47.802 49.7361 47.802C49.7361 41.8525 49.7361 35.9308 49.7361 30.0371C33.79 30.0371 17.9017 30.0371 1.99896 30.0371C1.99896 35.9727 1.99896 41.8664 1.99896 47.802Z" fill="#BC8B57"/>
<path d="M26.0996 0.428711C29.1266 2.71915 30.2853 5.95929 30.995 9.40891C31.4584 11.6714 31.4874 13.9758 31.1398 16.2663C30.9515 17.5093 30.546 18.7383 30.2563 19.9673C30.1404 20.4421 29.8653 20.5399 29.3728 20.512C27.5914 20.4282 25.8244 20.3863 24.0429 20.3723C23.3767 20.3583 22.696 20.484 22.0298 20.484C21.827 20.484 21.5084 20.2606 21.4504 20.093C20.4511 16.8947 20.2338 13.6546 20.7118 10.3446C21.0449 8.11007 21.6387 5.95929 22.6815 3.9342C23.4057 2.55156 24.3616 1.36444 25.6651 0.442678C25.8099 0.428712 25.9547 0.428711 26.0996 0.428711Z" fill="#BC8B57"/>
<path d="M20.4507 64.7701C20.4073 62.34 20.7694 60.1054 21.5949 57.9267C21.7253 57.5636 21.8701 57.4658 22.2467 57.4798C24.7523 57.5077 27.2724 57.4938 29.778 57.5217C29.9663 57.5217 30.2415 57.787 30.3139 57.9826C31.1395 60.5942 31.4581 63.2757 31.2408 66.0131C30.9946 69.1275 30.3429 72.1582 28.6194 74.8397C28.0255 75.7614 27.142 76.5156 26.3889 77.3396C26.0703 77.6887 25.7661 77.6049 25.404 77.3396C23.7095 76.1385 22.7246 74.4486 21.9715 72.633C20.8852 70.0912 20.3638 67.4237 20.4507 64.7701Z" fill="#BC8B57"/>
<path d="M46.4487 27.5092C32.7184 27.5092 19.0027 27.5092 5.27246 27.5092C6.93805 25.5818 16.0336 22.3557 21.0304 21.7691C30.2273 20.6937 38.6566 22.7048 46.4921 27.2997C46.4776 27.3695 46.4632 27.4393 46.4487 27.5092Z" fill="#BC8B57"/>
<path d="M5.30126 50.5107C19.017 50.5107 32.7328 50.5107 46.4485 50.5107C45.3188 52.2286 35.8757 55.6084 31.1541 56.2229C21.7978 57.424 13.2237 55.3849 5.25781 50.7342C5.2723 50.6644 5.28678 50.5806 5.30126 50.5107Z" fill="#BC8B57"/>
<path d="M31.2705 57.3543C32.5016 57.1029 33.6748 56.8934 34.8334 56.642C36.3831 56.3068 36.4121 56.2789 37.0349 57.7174C38.1356 60.2033 38.7294 62.7871 38.9612 65.4825C39.2219 68.5271 38.8163 71.474 37.9908 74.3929C37.9473 74.5465 37.8749 74.6862 37.788 74.9515C37.4404 74.756 37.0783 74.6164 36.8176 74.3929C35.0072 72.8706 33.5734 71.069 32.4581 69.016C31.9947 68.164 32.2699 67.2702 32.3423 66.4183C32.603 63.5133 32.1105 60.7061 31.4153 57.9129C31.3864 57.7453 31.3429 57.5917 31.2705 57.3543Z" fill="#BC8B57"/>
<path d="M20.4219 20.6794C18.7708 21.0146 17.1486 21.3498 15.3816 21.7129C12.2967 15.7634 11.9346 9.57638 13.9478 2.98438C14.5561 3.43129 15.1065 3.73854 15.541 4.15753C17.0472 5.5681 18.2493 7.20214 19.2777 8.97584C19.828 9.9395 19.5094 10.9032 19.408 11.8389C19.1763 13.8779 19.4804 15.8611 19.8136 17.8443C19.9729 18.794 20.2191 19.7297 20.4219 20.6794Z" fill="#BC8B57"/>
<path d="M37.7444 3.1377C39.8445 8.47275 39.4534 16.5172 36.2816 21.7405C34.645 21.3914 32.9939 21.0422 31.2559 20.6652C31.5021 19.7853 31.7628 18.8915 31.9945 17.9837C32.5883 15.5396 32.6028 13.0816 32.2987 10.5956C32.2407 10.0788 32.2842 9.45037 32.5304 8.98949C33.6166 6.95044 35.036 5.14881 36.8609 3.66841C37.1071 3.47288 37.4113 3.33322 37.7444 3.1377Z" fill="#BC8B57"/>
<path d="M15.382 56.2646C17.1924 56.6557 18.8291 57.0049 20.4222 57.354C20.0891 58.8623 19.5967 60.3428 19.4808 61.8371C19.3215 63.6667 19.4953 65.5242 19.4953 67.3677C19.4953 67.8565 19.5098 68.4012 19.307 68.8341C18.2497 70.9989 16.7724 72.8564 14.8606 74.3926C14.6144 74.5882 14.3102 74.7278 13.9337 74.9513C11.9205 68.4571 12.2971 62.2561 15.382 56.2646Z" fill="#BC8B57"/>
<path d="M44.6095 71.4743C42.8426 70.5386 41.4522 69.3235 40.2645 67.871C40.1342 67.7174 40.0183 67.494 40.0328 67.3124C40.1921 63.346 39.1638 59.631 37.5127 55.9719C37.6575 55.916 37.8168 55.8462 37.9906 55.7764C39.0914 55.3853 40.2211 55.0501 41.2639 54.5753C41.9012 54.282 42.1184 54.4775 42.4081 54.9664C43.6971 57.187 44.5516 59.5472 44.9716 62.0472C45.4641 64.9382 45.5075 67.8571 44.8702 70.7481C44.8413 70.8877 44.7978 71.0134 44.7544 71.1391C44.7254 71.2369 44.682 71.3207 44.6095 71.4743Z" fill="#BC8B57"/>
<path d="M44.7396 6.62988C46.0141 12.6772 45.2465 18.3614 42.0312 23.7244C40.496 23.1657 39.0042 22.635 37.5703 22.1043C38.0917 20.6239 38.6855 19.1575 39.12 17.6491C39.7718 15.4146 40.2208 13.1521 40.018 10.8057C40.0035 10.5963 40.1049 10.3449 40.2353 10.1773C41.3794 8.79463 42.7409 7.62148 44.334 6.72765C44.4209 6.68575 44.5368 6.68575 44.7396 6.62988Z" fill="#BC8B57"/>
<path d="M14.2377 22.0338C12.7314 22.5785 11.2831 23.1092 9.74784 23.6679C6.53253 18.3468 5.75043 12.6346 7.03945 6.47559C8.87883 7.48115 10.3706 8.68223 11.5583 10.2185C11.6452 10.3442 11.7031 10.5258 11.7031 10.6654C11.6162 14.5759 12.5142 18.2769 14.1797 21.8243C14.2232 21.9081 14.2232 21.978 14.2377 22.0338Z" fill="#BC8B57"/>
<path d="M9.74772 54.3096C11.2685 54.8682 12.7168 55.3989 14.252 55.9576C14.1941 56.0972 14.1362 56.2788 14.0493 56.4604C12.572 59.6726 11.703 63.0244 11.703 66.5299C11.703 67.5075 11.3554 68.15 10.7181 68.7645C9.64634 69.798 8.53111 70.7616 7.05381 71.4879C5.75031 65.3707 6.51793 59.6865 9.74772 54.3096Z" fill="#BC8B57"/>
<path d="M43.002 53.8774C44.6675 53.0115 46.2752 52.1595 47.8973 51.3076C50.8664 54.6595 52.2423 62.6062 50.1278 66.2095C48.6215 65.6229 47.2601 64.8128 46.3186 63.5419C45.9566 63.0531 46.029 62.257 45.8986 61.6146C45.3772 58.7934 44.4937 56.4471 43.002 53.8774Z" fill="#BC8B57"/>
<path d="M50.1131 11.8525C52.1988 14.967 50.9821 23.1651 47.9551 26.7963C46.3185 25.9443 44.6964 25.0784 43.1611 24.2824C43.8419 22.6483 44.6095 21.0422 45.1598 19.3663C45.6233 17.9418 45.8261 16.4474 46.1592 14.9809C46.2026 14.7715 46.2751 14.5201 46.4199 14.3664C47.4337 13.2491 48.6648 12.4251 50.1131 11.8525Z" fill="#BC8B57"/>
<path d="M29.8504 43.0527C29.2276 43.0527 28.6772 43.0527 28.04 43.0527C28.04 41.2091 28.04 39.3935 28.04 37.5779C27.9965 37.5779 27.9386 37.564 27.8951 37.564C27.5041 39.198 27.0696 40.832 26.722 42.48C26.6206 42.9968 26.4033 43.1504 25.9254 43.0946C25.7661 43.0806 25.5778 43.0666 25.4185 43.0946C24.8102 43.2063 24.6364 42.8711 24.535 42.3823C24.2019 40.9158 23.8543 39.4634 23.5067 37.9969C23.4487 37.7735 23.3763 37.564 23.2315 37.3685C23.2315 39.2399 23.2315 41.1114 23.2315 43.0387C22.6232 43.0387 22.0583 43.0387 21.4355 43.0387C21.4355 40.2594 21.4355 37.4662 21.4355 34.5892C22.2466 34.5892 23.0287 34.5613 23.8108 34.6032C23.9556 34.6171 24.1729 34.8546 24.2163 35.0221C24.6943 36.9215 25.1433 38.8209 25.7226 40.7483C26.1861 38.7092 26.664 36.6701 27.142 34.6171C28.04 34.6171 28.9234 34.6171 29.8649 34.6171C29.8504 37.4243 29.8504 40.2175 29.8504 43.0527Z" fill="#BC8B57"/>
<path d="M38.9757 43.0813C38.3674 43.0813 37.0929 43.0813 37.0929 43.0813L36.3832 41.3774L33.3996 41.3495L32.69 43.0673C32.69 43.0673 31.3575 43.0813 30.7637 43.0813C31.1837 41.9221 31.5603 40.8607 31.9513 39.8132C32.5162 38.263 33.081 36.7267 33.6314 35.1765C33.7762 34.7435 33.9935 34.562 34.5004 34.5759C35.9053 34.6039 35.9053 34.5759 36.3832 35.9027C37.2377 38.249 38.0778 40.5953 38.9757 43.0813ZM33.8486 39.7713C34.5728 39.7713 35.2101 39.7713 35.9053 39.7713C35.5722 38.7937 35.239 37.8859 34.8625 36.8105C34.5004 37.8719 34.1962 38.7658 33.8486 39.7713Z" fill="#BC8B57"/>
<path d="M14.3101 39.911C14.9184 39.911 15.4832 39.911 16.135 39.911C16.135 40.2322 16.1205 40.5395 16.135 40.8328C16.1784 41.3775 16.4102 41.7545 17.0764 41.7406C17.7426 41.7266 17.9599 41.3495 17.9599 40.7909C17.9744 39.0032 17.9599 37.2156 17.9744 35.4279C17.9744 35.1765 17.9744 34.9251 17.9744 34.6318C18.6261 34.6318 19.2199 34.6318 19.8717 34.6318C19.8717 35.9865 19.8717 37.2994 19.8717 38.6122C19.8717 39.2825 19.8717 39.9529 19.8717 40.6373C19.8862 42.5506 18.713 43.4165 16.8302 43.3048C14.8604 43.1791 14.0928 42.1177 14.3101 39.911Z" fill="#BC8B57"/>
<path d="M45.9704 43.0531C43.9572 43.0531 42.0309 43.0531 40.0322 43.0531C40.0322 40.2459 40.0322 37.4806 40.0322 34.6455C40.6116 34.6455 41.1909 34.6455 41.8426 34.6455C41.8426 36.922 41.8426 39.1845 41.8426 41.5168C43.2475 41.5168 44.58 41.5168 45.9559 41.5168C45.9704 42.0475 45.9704 42.5224 45.9704 43.0531Z" fill="#BC8B57"/>
<path d="M1.68043 11.8525C-0.405171 14.967 0.811436 23.1651 3.83846 26.7963C5.47508 25.9443 7.09721 25.0784 8.63245 24.2824C7.95173 22.6483 7.18412 21.0422 6.63375 19.3663C6.17028 17.9418 5.96751 16.4474 5.63439 14.9809C5.59094 14.7715 5.51853 14.5201 5.37369 14.3664C4.35986 13.2491 3.14325 12.4251 1.68043 11.8525Z" fill="#BC8B57"/>
<path d="M8.64716 53.8774C6.98157 53.0115 5.37392 52.1595 3.75178 51.3076C0.782691 54.6595 -0.593224 62.6062 1.52135 66.2095C3.02762 65.6229 4.38905 64.8128 5.33047 63.5419C5.69256 63.0531 5.62013 62.257 5.75048 61.6146C6.28637 58.7934 7.15537 56.4471 8.64716 53.8774Z" fill="#BC8B57"/>
<path d="M13.8898 43.0813C13.2815 43.0813 12.007 43.0813 12.007 43.0813L11.2973 41.3774L8.31371 41.3495L7.60403 43.0673C7.60403 43.0673 6.27155 43.0813 5.67773 43.0813C6.09775 41.9221 6.47432 40.8607 6.86537 39.8132C7.43022 38.263 7.99508 36.7267 8.54545 35.1765C8.69028 34.7435 8.90753 34.562 9.41445 34.5759C10.8193 34.6039 10.8193 34.5759 11.2973 35.9027C12.1518 38.249 13.0063 40.5953 13.8898 43.0813ZM8.7627 39.7713C9.48687 39.7713 10.1241 39.7713 10.8193 39.7713C10.4862 38.7937 10.1531 37.8859 9.77653 36.8105C9.41445 37.8719 9.1103 38.7658 8.7627 39.7713Z" fill="#BC8B57"/>
</svg>
