<svg width="18" height="14" viewBox="0 0 18 14" fill="none" xmlns="http://www.w3.org/2000/svg">
<path d="M18 1.64422C17.3571 1.90384 16.6225 2.07692 15.8878 2.16346C16.6225 1.73077 17.2653 1.03846 17.5408 0.259618C16.8061 0.69231 16.0714 0.951925 15.1531 1.125C14.5102 0.432695 13.5 0 12.4898 0C10.4694 0 8.81632 1.55769 8.81632 3.46154C8.81632 3.72115 8.81633 3.98076 8.90816 4.24038C5.87755 4.0673 3.12244 2.68269 1.28571 0.605766C1.0102 1.125 0.826525 1.73077 0.826525 2.33653C0.826525 3.54807 1.46939 4.58654 2.47959 5.19231C1.83673 5.19231 1.28571 5.01923 0.826525 4.75961C0.826525 6.40384 2.11224 7.87499 3.7653 8.13461C3.48979 8.22115 3.12245 8.22115 2.7551 8.22115C2.47959 8.22115 2.29592 8.22115 2.02041 8.13461C2.47959 9.51922 3.85714 10.5577 5.51021 10.5577C4.22449 11.5096 2.66327 12.0288 0.918368 12.0288C0.642857 12.0288 0.367347 12.0288 0 11.9423C1.65306 12.8942 3.58163 13.5 5.69388 13.5C12.4898 13.5 16.1633 8.22115 16.1633 3.63461V3.20192C16.898 2.9423 17.5408 2.33653 18 1.64422Z" fill="#BC8C58"/>
</svg>
