<svg width="18" height="13" viewBox="0 0 18 13" fill="none" xmlns="http://www.w3.org/2000/svg">
<path fill-rule="evenodd" clip-rule="evenodd" d="M16.0322 0.376358C16.8072 0.5838 17.4162 1.19279 17.6236 1.96773C17.9985 3.37092 18 6.30029 18 6.30029C18 6.30029 18 9.22968 17.6236 10.6329C17.4162 11.4078 16.8072 12.0168 16.0322 12.2242C14.6291 12.6006 8.99997 12.6006 8.99997 12.6006C8.99997 12.6006 3.37092 12.6006 1.96773 12.2242C1.19279 12.0168 0.5838 11.4078 0.376358 10.6329C0 9.22968 0 6.30029 0 6.30029C0 6.30029 0 3.37092 0.376358 1.96773C0.5838 1.19279 1.19279 0.5838 1.96773 0.376358C3.37092 0 8.99997 0 8.99997 0C8.99997 0 14.6291 0 16.0322 0.376358ZM11.8755 6.30031L7.19922 8.99998V3.60059L11.8755 6.30031Z" fill="#BC8C58"/>
</svg>
