<svg width="192" height="33" viewBox="0 0 192 33" fill="none" xmlns="http://www.w3.org/2000/svg">
<path d="M0.484863 32.1001V31.2811L4.07286 30.6961V2.30412L0.484863 1.75812V0.900119H23.9629V9.83112H22.9099L19.9069 1.87512H8.36286V16.5001H14.9539L17.2549 10.8451H18.3079V23.1691H17.2549L14.9539 17.4361H8.36286V30.6961L11.9509 31.2811V32.1001H0.484863Z" fill="#333333"/>
<path d="M34.566 32.4901C32.694 32.4901 31.212 32.0221 30.12 31.0861C29.054 30.1501 28.521 28.7591 28.521 26.9131V13.0681L25.791 12.6781V11.8981H32.421V26.8351C32.421 28.1611 32.694 29.2011 33.24 29.9551C33.786 30.7091 34.631 31.0861 35.775 31.0861C36.971 31.0861 38.115 30.6961 39.207 29.9161C40.325 29.1101 41.313 28.1221 42.171 26.9521V13.0681L39.441 12.6781V11.8981H46.071V30.9301L48.801 31.3201V32.1001H42.171V28.3561C41.235 29.6561 40.104 30.6701 38.778 31.3981C37.478 32.1261 36.074 32.4901 34.566 32.4901Z" fill="#333333"/>
<path d="M50.8226 31.3201L53.5526 30.9301V13.0681L50.8226 12.6781V11.8981H57.4526V14.9011C59.0906 12.6651 60.9366 11.5471 62.9906 11.5471C63.9786 11.5471 64.8496 11.8071 65.6036 12.3271C66.3576 12.8211 66.7346 13.5361 66.7346 14.4721C66.7346 15.1481 66.5136 15.7201 66.0716 16.1881C65.6296 16.6301 65.0446 16.8511 64.3166 16.8511C63.4846 16.8511 62.8086 16.5261 62.2886 15.8761C62.5746 15.5121 62.7176 15.1221 62.7176 14.7061C62.7176 14.2641 62.5616 13.9131 62.2496 13.6531C61.9636 13.3671 61.5736 13.2241 61.0796 13.2241C60.5336 13.2241 59.9746 13.4841 59.4026 14.0041C58.8306 14.4981 58.1806 15.2781 57.4526 16.3441V30.9301L60.5726 31.3201V32.1001H50.8226V31.3201Z" fill="#333333"/>
<path d="M68.0755 31.3201L70.8055 30.9301V13.0681L68.0755 12.6781V11.8981H74.7055V16.1101C75.6675 14.7061 76.7985 13.6011 78.0985 12.7951C79.3985 11.9631 80.8025 11.5471 82.3105 11.5471C84.1825 11.5471 85.6515 12.0151 86.7175 12.9511C87.8095 13.8871 88.3555 15.2781 88.3555 17.1241V30.9301L91.0855 31.3201V32.1001H82.1155V31.3201L84.4555 30.9301V17.2021C84.4555 15.8501 84.1825 14.8101 83.6365 14.0821C83.0905 13.3281 82.2455 12.9511 81.1015 12.9511C79.9055 12.9511 78.7485 13.3931 77.6305 14.2771C76.5385 15.1351 75.5635 16.2011 74.7055 17.4751V30.9301L77.0455 31.3201V32.1001H68.0755V31.3201Z" fill="#333333"/>
<path d="M97.0044 7.37412C96.2764 7.37412 95.6524 7.12712 95.1324 6.63312C94.6124 6.11312 94.3524 5.48912 94.3524 4.76112C94.3524 4.03312 94.5994 3.42212 95.0934 2.92812C95.6134 2.43412 96.2504 2.18712 97.0044 2.18712C97.7064 2.18712 98.3044 2.43412 98.7984 2.92812C99.2924 3.42212 99.5394 4.03312 99.5394 4.76112C99.5394 5.48912 99.2924 6.11312 98.7984 6.63312C98.3044 7.12712 97.7064 7.37412 97.0044 7.37412ZM92.8704 32.1001V31.3201L95.6004 30.9301V13.1071L92.8704 12.7171V11.9371H99.5004V30.9301L102.23 31.3201V32.1001H92.8704Z" fill="#333333"/>
<path d="M119.276 32.8801C116.442 32.8801 113.959 32.1911 111.827 30.8131C109.695 29.4351 108.044 27.5111 106.874 25.0411C105.73 22.5711 105.158 19.7241 105.158 16.5001C105.158 13.2761 105.743 10.4291 106.913 7.95912C108.109 5.46312 109.786 3.53912 111.944 2.18712C114.128 0.809118 116.637 0.120117 119.471 0.120117C120.589 0.120117 121.72 0.315117 122.864 0.705117C124.034 1.09512 125.087 1.64112 126.023 2.34312L128.636 0.120117H129.455V9.79212H128.636L126.218 3.74712C125.308 2.91512 124.242 2.25212 123.02 1.75812C121.824 1.26412 120.641 1.01712 119.471 1.01712C117.651 1.01712 116.039 1.48512 114.635 2.42112C113.257 3.35712 112.178 4.72212 111.398 6.51612C110.618 8.31012 110.228 10.4421 110.228 12.9121V20.0491C110.228 22.5191 110.605 24.6511 111.359 26.4451C112.113 28.2391 113.166 29.6171 114.518 30.5791C115.87 31.5151 117.456 31.9831 119.276 31.9831C120.602 31.9831 121.928 31.6971 123.254 31.1251C124.58 30.5271 125.685 29.7341 126.569 28.7461L128.831 22.4671H129.65V32.4901H128.831L126.023 30.5011C125.087 31.2551 124.021 31.8401 122.825 32.2561C121.629 32.6721 120.446 32.8801 119.276 32.8801Z" fill="#333333"/>
<path d="M139.599 32.4901C137.935 32.4901 136.57 32.0611 135.504 31.2031C134.438 30.3191 133.905 29.0191 133.905 27.3031C133.905 24.8591 134.932 23.1301 136.986 22.1161C139.04 21.0761 141.419 20.5561 144.123 20.5561H146.736V17.5531C146.736 16.2011 146.58 15.1611 146.268 14.4331C145.982 13.6791 145.527 13.1591 144.903 12.8731C144.279 12.5611 143.434 12.4051 142.368 12.4051C141.146 12.4051 140.236 12.6521 139.638 13.1461C139.04 13.6141 138.741 14.2511 138.741 15.0571C138.741 15.8111 139.105 16.3051 139.833 16.5391C139.833 17.1891 139.586 17.7611 139.092 18.2551C138.598 18.7491 138.013 18.9961 137.337 18.9961C136.609 18.9961 136.024 18.8011 135.582 18.4111C135.14 17.9951 134.919 17.3711 134.919 16.5391C134.919 15.0311 135.673 13.8221 137.181 12.9121C138.689 12.0021 140.574 11.5471 142.836 11.5471C148.036 11.5471 150.636 13.8091 150.636 18.3331V29.4871C150.636 30.0591 150.753 30.5011 150.987 30.8131C151.247 31.0991 151.611 31.2421 152.079 31.2421C152.521 31.2421 152.872 31.0991 153.132 30.8131C153.392 30.5011 153.522 30.0851 153.522 29.5651H154.341C154.341 30.4751 154.042 31.1901 153.444 31.7101C152.872 32.2301 152.066 32.4901 151.026 32.4901C149.83 32.4901 148.816 32.1521 147.984 31.4761C147.178 30.7741 146.762 29.6951 146.736 28.2391C146.112 29.5651 145.15 30.6051 143.85 31.3591C142.576 32.1131 141.159 32.4901 139.599 32.4901ZM141.744 30.7741C142.446 30.7741 143.161 30.5661 143.889 30.1501C144.643 29.7341 145.28 29.1361 145.8 28.3561C146.32 27.5501 146.632 26.5881 146.736 25.4701V21.4141H144.123C141.991 21.4141 140.392 21.8951 139.326 22.8571C138.286 23.7931 137.766 25.1191 137.766 26.8351C137.766 28.2651 138.104 29.2791 138.78 29.8771C139.456 30.4751 140.444 30.7741 141.744 30.7741Z" fill="#333333"/>
<path d="M155.292 31.3201L158.022 30.9301V13.0681L155.292 12.6781V11.8981H161.922V14.9011C163.56 12.6651 165.406 11.5471 167.46 11.5471C168.448 11.5471 169.319 11.8071 170.073 12.3271C170.827 12.8211 171.204 13.5361 171.204 14.4721C171.204 15.1481 170.983 15.7201 170.541 16.1881C170.099 16.6301 169.514 16.8511 168.786 16.8511C167.954 16.8511 167.278 16.5261 166.758 15.8761C167.044 15.5121 167.187 15.1221 167.187 14.7061C167.187 14.2641 167.031 13.9131 166.719 13.6531C166.433 13.3671 166.043 13.2241 165.549 13.2241C165.003 13.2241 164.444 13.4841 163.872 14.0041C163.3 14.4981 162.65 15.2781 161.922 16.3441V30.9301L165.042 31.3201V32.1001H155.292V31.3201Z" fill="#333333"/>
<path d="M183.084 32.4901C181.16 32.4901 179.418 32.0611 177.858 31.2031C176.298 30.3191 175.063 29.0841 174.153 27.4981C173.243 25.9121 172.788 24.0791 172.788 21.9991C172.788 19.9191 173.23 18.0991 174.114 16.5391C175.024 14.9531 176.233 13.7311 177.741 12.8731C179.275 11.9891 180.978 11.5471 182.85 11.5471C184.488 11.5471 185.957 11.9111 187.257 12.6391C188.557 13.3671 189.571 14.3811 190.299 15.6811C191.027 16.9551 191.404 18.4241 191.43 20.0881H177.078V23.9491C177.078 26.2371 177.585 28.0961 178.599 29.5261C179.639 30.9301 181.134 31.6321 183.084 31.6321C184.878 31.6321 186.464 31.1251 187.842 30.1111C189.22 29.0971 190.065 27.7841 190.377 26.1721H191.274C190.91 28.0961 189.987 29.6301 188.505 30.7741C187.023 31.9181 185.216 32.4901 183.084 32.4901ZM187.14 19.1131C187.14 16.8511 186.789 15.1741 186.087 14.0821C185.385 12.9641 184.293 12.4051 182.811 12.4051C181.069 12.4051 179.717 13.0161 178.755 14.2381C177.793 15.4601 177.247 17.0851 177.117 19.1131H187.14Z" fill="#333333"/>
</svg>
