<svg width="225" height="31" viewBox="0 0 225 31" fill="none" xmlns="http://www.w3.org/2000/svg">
<path d="M0.686035 2.22825H4.68035L14.0724 25.1686H14.3963L23.7883 2.22825H27.7826V29.8646H24.6519V8.86746H24.3821L15.7457 29.8646H12.723L4.0866 8.86746H3.81672V29.8646H0.686035V2.22825Z" fill="#333333"/>
<path d="M39.0203 30.3504C37.7068 30.3504 36.5148 30.103 35.4443 29.6082C34.3737 29.1044 33.5236 28.3802 32.8939 27.4356C32.2641 26.482 31.9493 25.3305 31.9493 23.9811C31.9493 22.7936 32.1832 21.831 32.651 21.0933C33.1188 20.3466 33.744 19.7619 34.5267 19.339C35.3094 18.9162 36.173 18.6014 37.1176 18.3944C38.0712 18.1785 39.0293 18.0076 39.9919 17.8817C41.2514 17.7197 42.2724 17.5983 43.0551 17.5173C43.8468 17.4274 44.4225 17.2789 44.7824 17.072C45.1512 16.8651 45.3356 16.5052 45.3356 15.9925V15.8845C45.3356 14.5531 44.9713 13.5185 44.2426 12.7808C43.5229 12.0431 42.4299 11.6743 40.9635 11.6743C39.4431 11.6743 38.2511 12.0071 37.3875 12.6729C36.5238 13.3386 35.9166 14.0493 35.5657 14.805L32.543 13.7254C33.0828 12.4659 33.8025 11.4854 34.7021 10.7836C35.6107 10.0729 36.6003 9.57816 37.6709 9.29927C38.7504 9.01139 39.812 8.86746 40.8555 8.86746C41.5212 8.86746 42.2859 8.94842 43.1496 9.11035C44.0222 9.26329 44.8633 9.58265 45.673 10.0684C46.4916 10.5542 47.1709 11.2874 47.7106 12.268C48.2504 13.2486 48.5203 14.5621 48.5203 16.2084V29.8646H45.3356V27.0578H45.1737C44.9578 27.5076 44.5979 27.9889 44.0942 28.5017C43.5904 29.0145 42.9201 29.4508 42.0835 29.8106C41.2469 30.1705 40.2258 30.3504 39.0203 30.3504ZM39.5061 27.4896C40.7656 27.4896 41.8271 27.2422 42.6907 26.7474C43.5634 26.2526 44.2201 25.6139 44.6609 24.8312C45.1107 24.0486 45.3356 23.2254 45.3356 22.3618V19.447C45.2007 19.6089 44.9038 19.7574 44.445 19.8923C43.9952 20.0183 43.4734 20.1307 42.8797 20.2297C42.2949 20.3196 41.7237 20.4006 41.1659 20.4726C40.6171 20.5355 40.1718 20.5895 39.8299 20.6345C39.0023 20.7425 38.2286 20.9179 37.5089 21.1608C36.7982 21.3947 36.2225 21.75 35.7817 22.2268C35.3498 22.6946 35.1339 23.3334 35.1339 24.143C35.1339 25.2496 35.5433 26.0862 36.3619 26.653C37.1896 27.2107 38.2376 27.4896 39.5061 27.4896Z" fill="#333333"/>
<path d="M56.1617 22.3078L56.1077 18.3675H56.7555L65.8237 9.13734H69.764L60.1021 18.9072H59.8322L56.1617 22.3078ZM53.193 29.8646V2.22825H56.3776V29.8646H53.193ZM66.3634 29.8646L58.2668 19.6089L60.5339 17.3959L70.4117 29.8646H66.3634Z" fill="#333333"/>
<path d="M80.5597 30.2964C78.5626 30.2964 76.8398 29.8556 75.3914 28.974C73.952 28.0834 72.841 26.8419 72.0583 25.2496C71.2846 23.6482 70.8978 21.786 70.8978 19.6629C70.8978 17.5398 71.2846 15.6686 72.0583 14.0493C72.841 12.421 73.9295 11.1525 75.3239 10.2439C76.7273 9.32626 78.3646 8.86746 80.2359 8.86746C81.3154 8.86746 82.3814 9.04738 83.434 9.40723C84.4866 9.76708 85.4447 10.3518 86.3083 11.1615C87.1719 11.9622 87.8601 13.0237 88.3729 14.3461C88.8857 15.6686 89.1421 17.2969 89.1421 19.2311V20.5805H73.1648V17.8277H85.9035C85.9035 16.6582 85.6696 15.6146 85.2018 14.697C84.743 13.7794 84.0862 13.0552 83.2316 12.5244C82.3859 11.9936 81.3874 11.7282 80.2359 11.7282C78.9674 11.7282 77.8699 12.0431 76.9432 12.6729C76.0256 13.2936 75.3194 14.1033 74.8246 15.1018C74.3298 16.1004 74.0824 17.171 74.0824 18.3135V20.1487C74.0824 21.714 74.3523 23.041 74.8921 24.1295C75.4409 25.2091 76.2011 26.0322 77.1726 26.599C78.1442 27.1568 79.2733 27.4356 80.5597 27.4356C81.3964 27.4356 82.152 27.3187 82.8268 27.0848C83.5105 26.8419 84.0997 26.482 84.5945 26.0052C85.0893 25.5194 85.4716 24.9167 85.7415 24.197L88.8182 25.0606C88.4944 26.1042 87.9501 27.0218 87.1854 27.8135C86.4207 28.5961 85.4761 29.2079 84.3516 29.6487C83.2271 30.0805 81.9631 30.2964 80.5597 30.2964Z" fill="#333333"/>
<path d="M103.372 9.13734V13.4555H90.5795V9.13734H103.372ZM93.5078 29.8646V7.63947C93.5078 6.1371 93.8002 4.89113 94.3849 3.90154C94.9787 2.91196 95.7883 2.16977 96.8139 1.67498C97.8395 1.18019 99.0045 0.932794 100.309 0.932794C101.191 0.932794 101.996 1.00027 102.724 1.13521C103.462 1.27015 104.011 1.3916 104.371 1.49956L103.345 5.81774C103.12 5.74577 102.841 5.6783 102.508 5.61532C102.185 5.55235 101.852 5.52086 101.51 5.52086C100.664 5.52086 100.075 5.71878 99.7422 6.11461C99.4093 6.50145 99.2429 7.04572 99.2429 7.74743V29.8646H93.5078Z" fill="#333333"/>
<path d="M105.744 29.8646V9.13734H111.493V29.8646H105.744ZM108.632 6.46547C107.777 6.46547 107.044 6.18209 106.432 5.61532C105.829 5.03957 105.528 4.35136 105.528 3.55069C105.528 2.75903 105.829 2.07981 106.432 1.51305C107.044 0.937293 107.777 0.649414 108.632 0.649414C109.486 0.649414 110.215 0.937293 110.818 1.51305C111.43 2.07981 111.736 2.75903 111.736 3.55069C111.736 4.35136 111.43 5.03957 110.818 5.61532C110.215 6.18209 109.486 6.46547 108.632 6.46547Z" fill="#333333"/>
<path d="M119.762 9.13734L123.567 16.3838L127.467 9.13734H133.364L127.359 19.501L133.526 29.8646H127.656L123.567 22.6991L119.546 29.8646H113.608L119.762 19.501L113.824 9.13734H119.762Z" fill="#333333"/>
<path d="M146.663 9.13734V13.4555H134.18V9.13734H146.663ZM137.014 4.17143H142.763V23.4953C142.763 24.0261 142.844 24.4399 143.006 24.7368C143.168 25.0247 143.393 25.2271 143.68 25.344C143.977 25.461 144.319 25.5194 144.706 25.5194C144.976 25.5194 145.246 25.497 145.516 25.452C145.786 25.398 145.993 25.3575 146.136 25.3305L147.041 29.6082C146.753 29.6982 146.348 29.8016 145.826 29.9186C145.304 30.0445 144.67 30.121 143.923 30.148C142.538 30.202 141.323 30.0175 140.28 29.5947C139.245 29.1719 138.44 28.5152 137.864 27.6246C137.289 26.7339 137.005 25.6094 137.014 24.251V4.17143Z" fill="#333333"/>
<path d="M162.559 21.0393V9.13734H168.308V29.8646H162.789V26.0997H162.573C162.105 27.3142 161.327 28.2903 160.238 29.028C159.159 29.7657 157.841 30.1345 156.284 30.1345C154.899 30.1345 153.68 29.8196 152.627 29.1899C151.575 28.5602 150.752 27.665 150.158 26.5045C149.573 25.344 149.276 23.9541 149.267 22.3348V9.13734H155.016V21.3092C155.025 22.5327 155.353 23.4998 156.001 24.2105C156.649 24.9212 157.517 25.2765 158.605 25.2765C159.298 25.2765 159.946 25.1191 160.549 24.8042C161.151 24.4804 161.637 24.0036 162.006 23.3738C162.384 22.7441 162.568 21.9659 162.559 21.0393Z" fill="#333333"/>
<path d="M171.766 29.8646V9.13734H177.339V12.7538H177.555C177.933 11.4674 178.567 10.4958 179.458 9.83905C180.348 9.17333 181.374 8.84047 182.535 8.84047C182.822 8.84047 183.133 8.85846 183.466 8.89444C183.798 8.93043 184.091 8.97991 184.343 9.04288V14.1437C184.073 14.0628 183.7 13.9908 183.223 13.9278C182.746 13.8649 182.31 13.8334 181.914 13.8334C181.068 13.8334 180.312 14.0178 179.647 14.3866C178.99 14.7465 178.468 15.2503 178.081 15.898C177.704 16.5457 177.515 17.2924 177.515 18.1381V29.8646H171.766Z" fill="#333333"/>
<path d="M194.656 30.2694C192.524 30.2694 190.689 29.8376 189.15 28.974C187.621 28.1014 186.443 26.8689 185.615 25.2765C184.787 23.6752 184.373 21.7815 184.373 19.5954C184.373 17.4633 184.787 15.5921 185.615 13.9818C186.443 12.3715 187.608 11.1165 189.11 10.2169C190.621 9.31727 192.394 8.86746 194.427 8.86746C195.794 8.86746 197.067 9.08786 198.246 9.52868C199.433 9.96049 200.468 10.6127 201.349 11.4854C202.24 12.358 202.933 13.4555 203.427 14.778C203.922 16.0914 204.17 17.6298 204.17 19.393V20.9719H186.667V17.4094H198.758C198.758 16.5817 198.578 15.8485 198.219 15.2098C197.859 14.5711 197.359 14.0718 196.721 13.7119C196.091 13.3431 195.358 13.1586 194.521 13.1586C193.648 13.1586 192.875 13.3611 192.2 13.7659C191.534 14.1617 191.013 14.697 190.635 15.3717C190.257 16.0374 190.064 16.7796 190.055 17.5983V20.9854C190.055 22.0109 190.243 22.897 190.621 23.6437C191.008 24.3904 191.552 24.9662 192.254 25.371C192.956 25.7758 193.788 25.9783 194.751 25.9783C195.389 25.9783 195.974 25.8883 196.505 25.7084C197.036 25.5284 197.49 25.2586 197.868 24.8987C198.246 24.5389 198.533 24.098 198.731 23.5763L204.048 23.9271C203.778 25.2046 203.225 26.3201 202.388 27.2737C201.561 28.2183 200.49 28.956 199.177 29.4868C197.872 30.0086 196.365 30.2694 194.656 30.2694Z" fill="#333333"/>
<path d="M224.027 15.0479L218.764 15.3717C218.674 14.9219 218.481 14.5171 218.184 14.1572C217.887 13.7884 217.495 13.496 217.01 13.2801C216.533 13.0552 215.962 12.9427 215.296 12.9427C214.405 12.9427 213.654 13.1317 213.042 13.5095C212.431 13.8783 212.125 14.3731 212.125 14.9939C212.125 15.4887 212.323 15.907 212.718 16.2488C213.114 16.5907 213.794 16.8651 214.756 17.072L218.508 17.8277C220.523 18.2415 222.025 18.9072 223.015 19.8248C224.004 20.7425 224.499 21.9479 224.499 23.4413C224.499 24.7997 224.099 25.9917 223.298 27.0173C222.506 28.0429 221.418 28.8435 220.032 29.4193C218.656 29.9861 217.068 30.2694 215.269 30.2694C212.525 30.2694 210.339 29.6982 208.711 28.5557C207.091 27.4042 206.142 25.8388 205.863 23.8596L211.517 23.5628C211.688 24.3994 212.102 25.0381 212.759 25.479C213.416 25.9108 214.257 26.1267 215.282 26.1267C216.29 26.1267 217.1 25.9333 217.711 25.5464C218.332 25.1506 218.647 24.6423 218.656 24.0216C218.647 23.4998 218.427 23.0725 217.995 22.7396C217.563 22.3978 216.897 22.1369 215.998 21.9569L212.408 21.2417C210.384 20.8369 208.877 20.1352 207.888 19.1366C206.907 18.1381 206.417 16.8651 206.417 15.3177C206.417 13.9863 206.776 12.8393 207.496 11.8767C208.225 10.9141 209.246 10.1719 210.559 9.65012C211.882 9.12834 213.429 8.86746 215.201 8.86746C217.819 8.86746 219.879 9.42072 221.382 10.5273C222.893 11.6338 223.775 13.1407 224.027 15.0479Z" fill="#333333"/>
</svg>
