<svg width="90" height="29" viewBox="0 0 90 29" fill="none" xmlns="http://www.w3.org/2000/svg">
<path d="M16.8289 27.7998L4.51688 13.9298L16.5629 1.19982H22.1489L8.84888 15.0318L8.88688 12.6378L22.5289 27.7998H16.8289ZM0.754883 27.7998V1.19982H5.12488V27.7998H0.754883Z" fill="#333333"/>
<path d="M38.5049 28.1798C36.6809 28.1798 34.9582 27.8252 33.3369 27.1158C31.7156 26.4065 30.2969 25.4312 29.0809 24.1898C27.8649 22.9232 26.9022 21.4665 26.1929 19.8198C25.5089 18.1478 25.1669 16.3618 25.1669 14.4618C25.1669 12.5618 25.5089 10.7885 26.1929 9.14182C26.9022 7.49516 27.8649 6.05116 29.0809 4.80982C30.3222 3.54316 31.7662 2.56782 33.4129 1.88382C35.0849 1.17449 36.8836 0.819824 38.8089 0.819824C40.9116 0.819824 42.8622 1.22516 44.6609 2.03582C46.4596 2.84649 47.9669 3.99916 49.1829 5.49382L46.2189 8.45783C45.4336 7.34316 44.3822 6.49449 43.0649 5.91182C41.7476 5.30382 40.3289 4.99982 38.8089 4.99982C36.9849 4.99982 35.3762 5.40516 33.9829 6.21583C32.6149 7.00116 31.5509 8.10316 30.7909 9.52182C30.0309 10.9405 29.6509 12.5872 29.6509 14.4618C29.6509 16.3365 30.0309 17.9958 30.7909 19.4398C31.5762 20.8585 32.6276 21.9732 33.9449 22.7838C35.2622 23.5945 36.7569 23.9998 38.4289 23.9998C40.2022 23.9998 41.7222 23.6832 42.9889 23.0498C44.2809 22.3912 45.2689 21.4285 45.9529 20.1618C46.6369 18.8698 46.9789 17.2865 46.9789 15.4118L49.7149 17.3878H38.3529V13.3978H51.5009V14.0058C51.5009 17.1725 50.9309 19.8072 49.7909 21.9098C48.6762 24.0125 47.1436 25.5832 45.1929 26.6218C43.2422 27.6605 41.0129 28.1798 38.5049 28.1798Z" fill="#333333"/>
<path d="M60.8284 27.7998L68.6184 16.8938L70.1764 15.9438C69.9231 16.5012 69.5938 16.9952 69.1884 17.4258C68.8084 17.8565 68.3018 18.1858 67.6684 18.4138C67.0351 18.6418 66.2244 18.7558 65.2364 18.7558C63.7164 18.7558 62.3231 18.4012 61.0564 17.6918C59.7898 16.9572 58.7764 15.9438 58.0164 14.6518C57.2564 13.3598 56.8764 11.8652 56.8764 10.1678C56.8764 8.44516 57.2944 6.87449 58.1304 5.45583C58.9918 4.03716 60.1318 2.90982 61.5504 2.07382C62.9691 1.23782 64.5524 0.819824 66.3004 0.819824C68.0738 0.819824 69.6698 1.23782 71.0884 2.07382C72.5071 2.88449 73.6218 3.98649 74.4324 5.37982C75.2684 6.74783 75.6864 8.29316 75.6864 10.0158C75.6864 12.4478 74.8378 14.9052 73.1404 17.3878L65.8824 27.7998H60.8284ZM66.3004 15.3358C67.2631 15.3358 68.1244 15.1078 68.8844 14.6518C69.6444 14.1958 70.2398 13.5752 70.6704 12.7898C71.1011 12.0045 71.3164 11.1305 71.3164 10.1678C71.3164 9.15449 71.1011 8.25516 70.6704 7.46982C70.2398 6.68449 69.6444 6.06382 68.8844 5.60782C68.1244 5.15182 67.2631 4.92382 66.3004 4.92382C65.3378 4.92382 64.4764 5.15182 63.7164 5.60782C62.9564 6.06382 62.3484 6.68449 61.8924 7.46982C61.4618 8.25516 61.2464 9.15449 61.2464 10.1678C61.2464 11.1558 61.4618 12.0425 61.8924 12.8278C62.3484 13.5878 62.9564 14.1958 63.7164 14.6518C64.5018 15.1078 65.3631 15.3358 66.3004 15.3358Z" fill="#333333"/>
<path d="M85.7057 27.7998V1.19982H89.9997V27.7998H85.7057ZM80.3857 5.11383V1.19982H89.6197V5.11383H80.3857Z" fill="#333333"/>
</svg>
