<svg width="136" height="13" viewBox="0 0 136 13" fill="none" xmlns="http://www.w3.org/2000/svg">
<path d="M0.0371094 1.30957L0 0.660156H0.788574L1.05762 0.650879C1.42871 0.632324 1.68538 0.623047 1.82764 0.623047C1.90186 0.623047 2.11833 0.629232 2.47705 0.641602C2.55745 0.647786 2.62549 0.650879 2.68115 0.650879C2.73682 0.650879 2.93164 0.644694 3.26562 0.632324C3.59961 0.619954 3.78825 0.61377 3.83154 0.61377C3.89958 0.61377 3.99544 0.616862 4.11914 0.623047C5.07161 1.48893 5.84782 2.23421 6.44775 2.85889C7.04769 3.48356 9.23714 5.66992 13.0161 9.41797V9.18604L12.979 8.10986C12.9604 7.479 12.9357 6.98112 12.9048 6.61621C12.8739 6.24512 12.8553 5.80599 12.8491 5.29883C12.8429 4.78548 12.8213 4.32161 12.7842 3.90723C12.71 3.09701 12.6729 2.63005 12.6729 2.50635C12.6667 2.10433 12.6234 1.86003 12.543 1.77344C12.4131 1.63737 12.1162 1.53532 11.6523 1.46729C11.3122 1.41162 11.0586 1.34049 10.8916 1.25391L10.9009 0.706543L11.1421 0.678711L12.9697 0.623047L15.0107 0.567383C15.1468 0.561198 15.2767 0.558105 15.4004 0.558105L15.4097 1.16113C15.2674 1.23535 15.1221 1.29102 14.9736 1.32812C14.5778 1.4209 14.349 1.48584 14.2871 1.52295C13.9717 1.70231 13.8016 1.81055 13.7769 1.84766C13.7212 1.92188 13.6934 2.0363 13.6934 2.19092C13.6934 2.22803 13.6995 2.35791 13.7119 2.58057C13.7181 2.69189 13.7212 2.95166 13.7212 3.35986C13.7274 4.25667 13.7521 4.96484 13.7954 5.48438C13.8078 5.65137 13.8171 5.84001 13.8232 6.05029L13.9253 9.30664C13.9315 9.53548 13.9346 9.69629 13.9346 9.78906V10.9302L13.9624 11.4126L13.9346 11.9136C13.9593 12.1672 13.9717 12.3187 13.9717 12.3682V12.8599L12.9048 12.897L11.8008 11.7559L9.54639 9.52002L7.96924 7.94287L6.80957 6.75537C6.05501 6.01318 5.36849 5.36068 4.75 4.79785L3.23779 3.43408L3.32129 6.88525C3.32747 7.09554 3.33057 7.31201 3.33057 7.53467L3.32129 8.19336L3.37695 9.40869C3.39551 9.91585 3.42952 10.4663 3.479 11.0601C3.49137 11.2209 3.50684 11.3353 3.52539 11.4033C3.54395 11.4652 3.58105 11.5579 3.63672 11.6816C3.87793 11.7682 4.40365 11.8332 5.21387 11.8765C5.26953 11.8888 5.34994 11.9105 5.45508 11.9414L5.49219 12.6929L5.13037 12.7021C4.93245 12.7021 4.30778 12.6558 3.25635 12.563C2.27295 12.5754 1.61735 12.5939 1.28955 12.6187C0.961751 12.6434 0.782389 12.6558 0.751465 12.6558C0.677246 12.6558 0.575195 12.6434 0.445312 12.6187C0.432943 12.4764 0.426758 12.3527 0.426758 12.2476C0.426758 12.1795 0.42985 12.0682 0.436035 11.9136C0.609212 11.8826 0.751465 11.8672 0.862793 11.8672C0.899902 11.8672 1.02051 11.8734 1.22461 11.8857C1.74414 11.8857 2.05029 11.8486 2.14307 11.7744C2.24202 11.694 2.29769 11.4837 2.31006 11.1436C2.35335 10.1602 2.375 9.56022 2.375 9.34375V8.8335L2.39355 5.81836L2.36572 3.93506C2.35954 3.21761 2.31315 2.71973 2.22656 2.44141C2.18945 2.29915 2.11833 2.17546 2.01318 2.07031C1.79671 1.84766 1.5555 1.68066 1.28955 1.56934C1.12874 1.5013 0.711263 1.41471 0.0371094 1.30957Z" fill="#333333"/>
<path d="M19.0071 12.5908V11.9229C19.1307 11.8857 19.3349 11.8332 19.6194 11.7651C20.0214 11.6662 20.3213 11.5641 20.5193 11.459C20.6306 11.2673 20.6863 11.0013 20.6863 10.6611L20.677 9.56641L20.6955 7.45117L20.6863 6.9502C20.7295 5.72559 20.7512 5.09473 20.7512 5.05762L20.7326 3.82373L20.7605 3.32275L20.7141 2.26514L20.7048 1.86621C20.6986 1.80436 20.677 1.7054 20.6399 1.56934C20.3863 1.45182 19.975 1.3776 19.406 1.34668C19.2699 1.34049 19.1617 1.33122 19.0813 1.31885L19.0534 0.502441L21.7068 0.61377C22.0346 0.626139 22.2387 0.632324 22.3191 0.632324C22.684 0.632324 23.2684 0.607585 24.0725 0.558105C24.524 0.527181 24.8085 0.508626 24.926 0.502441C24.9322 0.619954 24.9353 0.718913 24.9353 0.799316C24.9353 0.90446 24.9291 1.04053 24.9167 1.20752C24.6693 1.29411 24.3848 1.3776 24.0632 1.45801C23.7478 1.53223 23.488 1.60954 23.2839 1.68994C23.2468 1.85075 23.2282 2.08268 23.2282 2.38574C23.2282 2.65169 23.2375 2.86816 23.2561 3.03516C23.2375 4.0804 23.2282 4.88444 23.2282 5.44727L23.2375 7.89648L23.2097 9.13965L23.2282 10.9951L23.219 11.3477C23.219 11.3971 23.2313 11.4683 23.2561 11.561C23.6334 11.6414 23.9766 11.6971 24.2859 11.728C24.3415 11.7342 24.5302 11.759 24.8518 11.8022C24.8765 11.9878 24.8889 12.1424 24.8889 12.2661C24.8889 12.3341 24.8858 12.4393 24.8796 12.5815C24.7992 12.5815 24.7374 12.5846 24.6941 12.5908C24.4961 12.6032 24.3817 12.6094 24.3508 12.6094C24.3075 12.6094 24.2271 12.6001 24.1096 12.5815C24.023 12.5692 23.6117 12.5259 22.8757 12.4517L21.2336 12.4331C20.9058 12.4331 20.4296 12.464 19.8049 12.5259C19.3967 12.563 19.1307 12.5846 19.0071 12.5908Z" fill="#333333"/>
<path d="M28.6162 12.6465L28.6347 11.9785C28.7708 11.9476 28.9965 11.9012 29.312 11.8394C29.6274 11.7775 29.9428 11.7064 30.2582 11.626L30.4345 11.5146C30.4964 11.2673 30.5273 11.0137 30.5273 10.7539V10.6982L30.4902 8.55518L30.4995 7.65527L30.4623 6.32861L30.4809 4.75146L30.3696 1.64355C30.2768 1.55697 29.9768 1.47038 29.4697 1.38379C29.346 1.35905 29.1666 1.30957 28.9316 1.23535L28.7089 1.17969V0.530273L29.9335 0.57666C30.6757 0.650879 31.7674 0.687988 33.2084 0.687988C33.9321 0.687988 34.6866 0.669434 35.4721 0.632324L35.6484 0.623047L36.103 0.632324L36.2885 0.623047H36.6782L38.3388 0.567383C38.413 0.567383 38.5089 0.561198 38.6264 0.548828C38.7501 0.536458 38.8645 0.527181 38.9697 0.520996C39.0068 0.706543 39.0315 0.89209 39.0439 1.07764L39.183 2.82178C39.183 3.00732 39.1645 3.14958 39.1274 3.24854C38.9047 3.27946 38.7408 3.29492 38.6357 3.29492C38.512 3.29492 38.413 3.26709 38.3388 3.21143C38.3017 3.17432 38.2306 3.03516 38.1254 2.79395C37.8657 2.16927 37.643 1.80127 37.4575 1.68994C37.2781 1.57243 36.7709 1.51367 35.936 1.51367L34.6557 1.55078C34.1114 1.55697 33.6816 1.58789 33.3661 1.64355C33.2981 1.65592 33.1992 1.68685 33.0693 1.73633C32.9889 1.87858 32.9487 2.06104 32.9487 2.28369L32.9765 3.3877L32.9487 4.64941C32.9487 5.29264 32.9703 5.68848 33.0136 5.83691C33.0693 5.87402 33.1157 5.89567 33.1528 5.90186L33.8115 5.91113H34.9247C35.1721 5.91732 35.5525 5.88949 36.0659 5.82764C36.4184 5.78434 36.6349 5.73486 36.7153 5.6792C36.8637 5.58024 36.9689 5.45654 37.0307 5.30811C37.0987 5.15348 37.1482 4.78239 37.1791 4.19482C37.2101 4.19482 37.2936 4.19173 37.4296 4.18555C37.5162 4.17936 37.575 4.17627 37.6059 4.17627C37.6739 4.17627 37.81 4.18555 38.0141 4.2041L37.9584 5.68848C37.9523 6.00391 37.9399 6.27604 37.9213 6.50488L37.9399 6.70898C37.9461 6.77083 37.9492 7.22852 37.9492 8.08203C37.9492 8.1377 37.9461 8.23047 37.9399 8.36035C37.8224 8.38509 37.7296 8.39746 37.6616 8.39746C37.6121 8.39746 37.4915 8.37891 37.2997 8.3418C37.2441 8.22428 37.1822 8.0542 37.1142 7.83154C36.9719 7.34294 36.8173 7.05843 36.6503 6.97803C36.3535 6.82959 35.4195 6.75537 33.8486 6.75537C33.6197 6.75537 33.3538 6.77702 33.0507 6.82031C33.0074 7.08008 32.9858 7.38005 32.9858 7.72021L33.0322 10.5034C33.0383 11.0168 33.094 11.3322 33.1992 11.4497C33.2672 11.5239 33.4991 11.5981 33.895 11.6724L34.0805 11.6909C34.3588 11.7095 34.6031 11.7497 34.8134 11.8115L35.0639 11.8672C35.0886 12.028 35.101 12.1517 35.101 12.2383C35.101 12.3311 35.0917 12.4486 35.0732 12.5908L34.8969 12.5815L34.6093 12.5908L33.2919 12.5259C33.1435 12.5197 32.4508 12.5166 31.2138 12.5166C30.8736 12.5166 30.5489 12.5352 30.2397 12.5723C29.7511 12.6279 29.4851 12.6558 29.4418 12.6558C29.0398 12.6558 28.7646 12.6527 28.6162 12.6465Z" fill="#333333"/>
<path d="M42.4093 0.57666C42.7619 0.595215 43.068 0.623047 43.3278 0.660156C43.8164 0.72819 44.3823 0.762207 45.0255 0.762207C45.2482 0.762207 45.8203 0.743652 46.7419 0.706543C48.1211 0.650879 49.3673 0.623047 50.4806 0.623047L52.1598 0.604492C52.5371 0.604492 53.0937 0.650879 53.8297 0.743652C53.9411 0.86735 53.9967 1.03434 53.9967 1.24463V3.15576L54.0153 3.53613C54.0153 3.57324 54.0122 3.62891 54.006 3.70312L53.6256 3.72168C53.5762 3.72168 53.471 3.71549 53.3102 3.70312C53.2546 3.57943 53.1803 3.39697 53.0876 3.15576L52.7165 2.49707C52.5742 2.21875 52.3763 1.93424 52.1227 1.64355C51.9681 1.60026 51.7702 1.57552 51.529 1.56934C51.4671 1.56315 51.2785 1.54769 50.963 1.52295C50.3879 1.47347 49.7694 1.44873 49.1076 1.44873C48.353 1.44873 47.6789 1.4611 47.0851 1.48584C47.0666 1.64046 47.0573 2.24967 47.0573 3.31348L47.0758 4.87207V6.04102C47.2305 6.05957 47.3634 6.06885 47.4748 6.06885C48.5819 6.06885 49.3704 6.0472 49.8405 6.00391C50.3105 5.96061 50.6012 5.90186 50.7126 5.82764C50.8239 5.74723 50.9228 5.61117 51.0094 5.41943C51.0651 5.28337 51.1733 4.82878 51.3341 4.05566L51.4547 4.04639L51.9928 4.05566C52.0176 4.60612 52.0299 5.0236 52.0299 5.30811C52.0299 5.95752 52.0238 6.375 52.0114 6.56055C52.0052 6.74609 52.0021 6.89144 52.0021 6.99658C52.0021 7.16357 52.0114 7.43262 52.0299 7.80371C52.0485 8.16862 52.0578 8.44075 52.0578 8.62012V8.82422H51.3991C51.3743 8.72526 51.328 8.52116 51.2599 8.21191C51.1362 7.63672 51.0249 7.27799 50.9259 7.13574C50.8517 7.02441 50.728 6.94092 50.5548 6.88525C50.4311 6.84196 49.9735 6.82031 49.1818 6.82031C48.2479 6.82031 47.5459 6.84505 47.0758 6.89453C47.0697 7.05534 47.0666 7.16048 47.0666 7.20996C47.0666 7.94596 47.0789 8.55827 47.1037 9.04688L47.0851 11.0508C47.0851 11.2858 47.1686 11.4466 47.3356 11.5332C47.5892 11.6631 48.3654 11.728 49.6642 11.728C50.5239 11.728 51.2537 11.6631 51.8537 11.5332C52.2681 11.4404 52.633 11.2332 52.9484 10.9116C53.369 10.4972 53.7184 9.91585 53.9967 9.16748C54.1885 9.14893 54.3462 9.13965 54.4699 9.13965C54.5379 9.13965 54.64 9.14274 54.776 9.14893C54.7575 9.30355 54.742 9.43343 54.7296 9.53857L54.674 9.81689L54.3307 11.5703L54.1637 12.6279C53.7617 12.6465 53.4432 12.6558 53.2082 12.6558C52.8618 12.6558 51.9372 12.6248 50.4342 12.563C49.3766 12.5197 48.1025 12.498 46.612 12.498C45.8698 12.498 44.9575 12.529 43.8752 12.5908H43.4855L42.3629 12.6279V11.9878C42.4805 11.9569 42.7155 11.9229 43.068 11.8857C43.7113 11.8115 44.1566 11.7126 44.404 11.5889C44.472 11.4095 44.506 11.1838 44.506 10.9116C44.506 10.8065 44.5029 10.6271 44.4967 10.3735L44.506 10.0859L44.4782 6.58838L44.4875 5.54004L44.4411 4.05566L44.4504 3.00732L44.3669 1.85693C44.3669 1.82601 44.3607 1.76416 44.3483 1.67139C44.2865 1.60335 44.1937 1.56006 44.07 1.5415C44.0019 1.52913 43.9092 1.51058 43.7917 1.48584C43.4391 1.41162 43.099 1.36833 42.7712 1.35596C42.6536 1.34977 42.5176 1.3374 42.3629 1.31885L42.4093 0.57666Z" fill="#333333"/>
<path d="M58.559 12.0156C58.7198 11.929 58.9579 11.8672 59.2733 11.8301C59.5887 11.7868 59.8733 11.7188 60.1268 11.626C60.1578 11.5023 60.1763 11.4126 60.1825 11.3569C60.1949 11.2703 60.2011 10.9735 60.2011 10.4663L60.1918 8.39746L60.2289 7.28418L60.2103 6.42139L60.2289 5.92041C60.2474 5.24626 60.2567 4.6154 60.2567 4.02783C60.2567 2.74137 60.2413 1.91878 60.2103 1.56006L59.663 1.44873C59.162 1.41781 58.828 1.38688 58.661 1.35596L58.6425 0.799316L58.6796 0.697266C58.9888 0.647786 59.2733 0.623047 59.5331 0.623047C59.6753 0.623047 59.9629 0.619954 60.3959 0.61377C60.8412 0.650879 61.0824 0.669434 61.1195 0.669434L61.6112 0.641602L62.7709 0.585938C63.4945 0.511719 64.2583 0.474609 65.0624 0.474609C66.3303 0.474609 67.3384 0.799316 68.0868 1.44873C68.8352 2.09196 69.2094 2.83105 69.2094 3.66602C69.2094 4.29069 69.0052 4.8597 68.597 5.37305C68.195 5.88021 67.5734 6.26367 66.7323 6.52344C66.8065 6.65332 66.9055 6.80485 67.0292 6.97803C67.2889 7.34912 67.4992 7.66455 67.66 7.92432L69.1444 10.3271C69.5155 10.9642 69.7567 11.3384 69.868 11.4497C69.9856 11.5549 70.2237 11.6724 70.5824 11.8022C70.8607 11.9074 71.0741 12.0125 71.2225 12.1177C71.2596 12.2228 71.2782 12.3156 71.2782 12.396C71.2782 12.4517 71.2751 12.5228 71.2689 12.6094H71.0184L70.8329 12.6187L70.3505 12.5537H69.9701C69.7722 12.5228 69.5279 12.5073 69.2372 12.5073L68.3094 12.498C68.2414 12.498 68.0249 12.5197 67.66 12.563C67.493 12.5815 67.3601 12.597 67.2611 12.6094L66.9457 11.9971C66.6859 11.5332 66.5035 11.1868 66.3983 10.958C66.1262 10.3581 65.6592 9.40251 64.9974 8.09131C64.6882 7.48519 64.4717 7.14193 64.348 7.06152C64.1625 6.93164 63.844 6.8667 63.3925 6.8667C63.2688 6.8667 63.0585 6.87288 62.7616 6.88525C62.743 7.06462 62.7338 7.27799 62.7338 7.52539L62.7709 9.58496L62.7245 11.3291C62.8977 11.4342 63.1234 11.5146 63.4017 11.5703C63.8842 11.6693 64.2985 11.7868 64.6449 11.9229C64.6449 12.2259 64.6325 12.4548 64.6078 12.6094C64.4903 12.6032 64.4161 12.6001 64.3851 12.6001L64.0048 12.6187C62.675 12.5011 61.8864 12.4424 61.639 12.4424C61.4782 12.4424 61.3638 12.4455 61.2958 12.4517L60.0155 12.5352C59.6259 12.5785 59.2702 12.6001 58.9486 12.6001H58.5497C58.5373 12.4455 58.5311 12.3465 58.5311 12.3032C58.5311 12.2352 58.5404 12.1393 58.559 12.0156ZM62.7338 6.01318C63.0306 6.02555 63.2471 6.03174 63.3832 6.03174C64.4346 6.03174 65.1799 5.8431 65.619 5.46582C66.0581 5.08854 66.2777 4.58447 66.2777 3.95361C66.2777 3.56396 66.222 3.19906 66.1107 2.85889C66.0056 2.51253 65.8726 2.25586 65.7118 2.08887C65.4829 1.84766 65.183 1.6652 64.8119 1.5415C64.5398 1.44873 64.1037 1.40234 63.5038 1.40234C63.2193 1.40234 62.975 1.41781 62.7709 1.44873L62.7616 1.625L62.7709 2.87744L62.7523 3.63818L62.7616 4.64941C62.7492 4.93392 62.74 5.30192 62.7338 5.75342V6.01318Z" fill="#333333"/>
<path d="M73.7716 12.5537C73.753 12.3311 73.7438 12.0837 73.7438 11.8115C74.1458 11.2363 75.0055 10.0921 76.3229 8.37891L76.8888 7.65527C76.9939 7.53776 77.1423 7.34294 77.3341 7.0708C77.6186 6.6626 77.9897 6.17399 78.4474 5.60498C78.9112 5.02979 79.5019 4.2443 80.2193 3.24854C80.5224 2.83415 80.7667 2.50635 80.9522 2.26514C81.2182 1.93115 81.4037 1.68376 81.5089 1.52295H81.277L80.4698 1.51367C79.7771 1.51367 78.9391 1.56006 77.9557 1.65283C76.9785 1.73942 76.3229 1.84456 75.9889 1.96826C75.7353 2.06104 75.5188 2.19092 75.3395 2.35791C74.9869 2.67952 74.7426 2.94548 74.6065 3.15576C74.5571 3.22998 74.5107 3.30111 74.4674 3.36914C74.2262 3.40007 74.0901 3.41553 74.0592 3.41553C74.0035 3.41553 73.9262 3.40316 73.8272 3.37842C73.8644 3.13721 74.1365 2.05794 74.6437 0.140625L75.2003 0.103516C75.3982 0.542643 75.5312 0.786947 75.5992 0.836426C75.7291 0.929199 75.961 0.975586 76.295 0.975586C76.3569 0.975586 76.4125 0.972493 76.462 0.966309H76.527C77.0217 0.929199 78.2154 0.86735 80.108 0.780762C81.3141 0.725098 82.2511 0.697266 82.919 0.697266L83.6148 0.71582L84.8023 0.706543C84.8147 0.842611 84.824 0.969401 84.8302 1.08691C84.8054 1.16732 84.589 1.47966 84.1808 2.02393C83.8963 2.4012 83.6705 2.71045 83.5035 2.95166L83.0768 3.56396L83.0489 3.60107L80.4605 6.99658L78.4659 9.65918C77.9093 10.389 77.4392 11.0291 77.0558 11.5796C77.4392 11.6476 77.9216 11.6816 78.503 11.6816H79.1339L79.5328 11.7002C80.2812 11.7002 80.8873 11.6631 81.3512 11.5889C81.815 11.5146 82.2047 11.394 82.5201 11.2271C82.8417 11.0601 83.1324 10.8467 83.3922 10.5869C83.6581 10.3271 84.0138 9.86019 84.4591 9.18604C84.6632 9.16748 84.8054 9.1582 84.8858 9.1582H85.1178L84.9508 11.1436V11.2271C84.9508 11.3507 84.9075 11.8115 84.8209 12.6094L81.1007 12.498C80.7853 12.4919 80.5379 12.4888 80.3585 12.4888H79.2823L78.234 12.4795H78.0392L75.4972 12.5537C75.2683 12.5723 75.0704 12.5815 74.9034 12.5815C74.755 12.5815 74.5911 12.5785 74.4117 12.5723C74.1643 12.5599 73.9509 12.5537 73.7716 12.5537Z" fill="#333333"/>
<path d="M88.6595 0.57666C89.012 0.595215 89.3182 0.623047 89.5779 0.660156C90.0666 0.72819 90.6325 0.762207 91.2757 0.762207C91.4984 0.762207 92.0705 0.743652 92.992 0.706543C94.3712 0.650879 95.6175 0.623047 96.7308 0.623047L98.41 0.604492C98.7873 0.604492 99.3439 0.650879 100.08 0.743652C100.191 0.86735 100.247 1.03434 100.247 1.24463V3.15576L100.265 3.53613C100.265 3.57324 100.262 3.62891 100.256 3.70312L99.8758 3.72168C99.8263 3.72168 99.7212 3.71549 99.5604 3.70312C99.5047 3.57943 99.4305 3.39697 99.3377 3.15576L98.9666 2.49707C98.8244 2.21875 98.6264 1.93424 98.3729 1.64355C98.2182 1.60026 98.0203 1.57552 97.7791 1.56934C97.7173 1.56315 97.5286 1.54769 97.2132 1.52295C96.638 1.47347 96.0195 1.44873 95.3577 1.44873C94.6032 1.44873 93.929 1.4611 93.3353 1.48584C93.3167 1.64046 93.3074 2.24967 93.3074 3.31348L93.326 4.87207V6.04102C93.4806 6.05957 93.6136 6.06885 93.7249 6.06885C94.832 6.06885 95.6206 6.0472 96.0906 6.00391C96.5607 5.96061 96.8514 5.90186 96.9627 5.82764C97.074 5.74723 97.173 5.61117 97.2596 5.41943C97.3153 5.28337 97.4235 4.82878 97.5843 4.05566L97.7049 4.04639L98.243 4.05566C98.2677 4.60612 98.2801 5.0236 98.2801 5.30811C98.2801 5.95752 98.2739 6.375 98.2615 6.56055C98.2554 6.74609 98.2523 6.89144 98.2523 6.99658C98.2523 7.16357 98.2615 7.43262 98.2801 7.80371C98.2987 8.16862 98.3079 8.44075 98.3079 8.62012V8.82422H97.6492C97.6245 8.72526 97.5781 8.52116 97.5101 8.21191C97.3864 7.63672 97.2751 7.27799 97.1761 7.13574C97.1019 7.02441 96.9782 6.94092 96.805 6.88525C96.6813 6.84196 96.2236 6.82031 95.432 6.82031C94.498 6.82031 93.7961 6.84505 93.326 6.89453C93.3198 7.05534 93.3167 7.16048 93.3167 7.20996C93.3167 7.94596 93.3291 8.55827 93.3538 9.04688L93.3353 11.0508C93.3353 11.2858 93.4188 11.4466 93.5858 11.5332C93.8393 11.6631 94.6155 11.728 95.9144 11.728C96.7741 11.728 97.5039 11.6631 98.1038 11.5332C98.5182 11.4404 98.8831 11.2332 99.1986 10.9116C99.6191 10.4972 99.9686 9.91585 100.247 9.16748C100.439 9.14893 100.596 9.13965 100.72 9.13965C100.788 9.13965 100.89 9.14274 101.026 9.14893C101.008 9.30355 100.992 9.43343 100.98 9.53857L100.924 9.81689L100.581 11.5703L100.414 12.6279C100.012 12.6465 99.6933 12.6558 99.4583 12.6558C99.112 12.6558 98.1873 12.6248 96.6844 12.563C95.6268 12.5197 94.3527 12.498 92.8621 12.498C92.1199 12.498 91.2077 12.529 90.1253 12.5908H89.7357L88.6131 12.6279V11.9878C88.7306 11.9569 88.9656 11.9229 89.3182 11.8857C89.9614 11.8115 90.4067 11.7126 90.6541 11.5889C90.7222 11.4095 90.7562 11.1838 90.7562 10.9116C90.7562 10.8065 90.7531 10.6271 90.7469 10.3735L90.7562 10.0859L90.7283 6.58838L90.7376 5.54004L90.6912 4.05566L90.7005 3.00732L90.617 1.85693C90.617 1.82601 90.6108 1.76416 90.5985 1.67139C90.5366 1.60335 90.4438 1.56006 90.3201 1.5415C90.2521 1.52913 90.1593 1.51058 90.0418 1.48584C89.6893 1.41162 89.3491 1.36833 89.0213 1.35596C88.9038 1.34977 88.7677 1.3374 88.6131 1.31885L88.6595 0.57666Z" fill="#333333"/>
<path d="M104.132 1.30957L104.095 0.660156H104.883L105.152 0.650879C105.523 0.632324 105.78 0.623047 105.922 0.623047C105.997 0.623047 106.213 0.629232 106.572 0.641602C106.652 0.647786 106.72 0.650879 106.776 0.650879C106.832 0.650879 107.026 0.644694 107.36 0.632324C107.694 0.619954 107.883 0.61377 107.926 0.61377C107.994 0.61377 108.09 0.616862 108.214 0.623047C109.166 1.48893 109.943 2.23421 110.543 2.85889C111.142 3.48356 113.332 5.66992 117.111 9.41797V9.18604L117.074 8.10986C117.055 7.479 117.03 6.98112 117 6.61621C116.969 6.24512 116.95 5.80599 116.944 5.29883C116.938 4.78548 116.916 4.32161 116.879 3.90723C116.805 3.09701 116.768 2.63005 116.768 2.50635C116.761 2.10433 116.718 1.86003 116.638 1.77344C116.508 1.63737 116.211 1.53532 115.747 1.46729C115.407 1.41162 115.153 1.34049 114.986 1.25391L114.996 0.706543L115.237 0.678711L117.064 0.623047L119.106 0.567383C119.242 0.561198 119.371 0.558105 119.495 0.558105L119.504 1.16113C119.362 1.23535 119.217 1.29102 119.068 1.32812C118.673 1.4209 118.444 1.48584 118.382 1.52295C118.066 1.70231 117.896 1.81055 117.872 1.84766C117.816 1.92188 117.788 2.0363 117.788 2.19092C117.788 2.22803 117.794 2.35791 117.807 2.58057C117.813 2.69189 117.816 2.95166 117.816 3.35986C117.822 4.25667 117.847 4.96484 117.89 5.48438C117.903 5.65137 117.912 5.84001 117.918 6.05029L118.02 9.30664C118.026 9.53548 118.029 9.69629 118.029 9.78906V10.9302L118.057 11.4126L118.029 11.9136C118.054 12.1672 118.066 12.3187 118.066 12.3682V12.8599L117 12.897L115.896 11.7559L113.641 9.52002L112.064 7.94287L110.904 6.75537C110.15 6.01318 109.463 5.36068 108.845 4.79785L107.333 3.43408L107.416 6.88525C107.422 7.09554 107.425 7.31201 107.425 7.53467L107.416 8.19336L107.472 9.40869C107.49 9.91585 107.524 10.4663 107.574 11.0601C107.586 11.2209 107.602 11.3353 107.62 11.4033C107.639 11.4652 107.676 11.5579 107.731 11.6816C107.973 11.7682 108.498 11.8332 109.309 11.8765C109.364 11.8888 109.445 11.9105 109.55 11.9414L109.587 12.6929L109.225 12.7021C109.027 12.7021 108.403 12.6558 107.351 12.563C106.368 12.5754 105.712 12.5939 105.384 12.6187C105.057 12.6434 104.877 12.6558 104.846 12.6558C104.772 12.6558 104.67 12.6434 104.54 12.6187C104.528 12.4764 104.522 12.3527 104.522 12.2476C104.522 12.1795 104.525 12.0682 104.531 11.9136C104.704 11.8826 104.846 11.8672 104.958 11.8672C104.995 11.8672 105.115 11.8734 105.319 11.8857C105.839 11.8857 106.145 11.8486 106.238 11.7744C106.337 11.694 106.392 11.4837 106.405 11.1436C106.448 10.1602 106.47 9.56022 106.47 9.34375V8.8335L106.488 5.81836L106.46 3.93506C106.454 3.21761 106.408 2.71973 106.321 2.44141C106.284 2.29915 106.213 2.17546 106.108 2.07031C105.891 1.84766 105.65 1.68066 105.384 1.56934C105.224 1.5013 104.806 1.41471 104.132 1.30957Z" fill="#333333"/>
<path d="M122.721 0.57666C123.074 0.595215 123.38 0.623047 123.64 0.660156C124.129 0.72819 124.694 0.762207 125.338 0.762207C125.56 0.762207 126.132 0.743652 127.054 0.706543C128.433 0.650879 129.679 0.623047 130.793 0.623047L132.472 0.604492C132.849 0.604492 133.406 0.650879 134.142 0.743652C134.253 0.86735 134.309 1.03434 134.309 1.24463V3.15576L134.327 3.53613C134.327 3.57324 134.324 3.62891 134.318 3.70312L133.938 3.72168C133.888 3.72168 133.783 3.71549 133.622 3.70312C133.567 3.57943 133.492 3.39697 133.4 3.15576L133.029 2.49707C132.886 2.21875 132.688 1.93424 132.435 1.64355C132.28 1.60026 132.082 1.57552 131.841 1.56934C131.779 1.56315 131.591 1.54769 131.275 1.52295C130.7 1.47347 130.081 1.44873 129.42 1.44873C128.665 1.44873 127.991 1.4611 127.397 1.48584C127.379 1.64046 127.369 2.24967 127.369 3.31348L127.388 4.87207V6.04102C127.543 6.05957 127.676 6.06885 127.787 6.06885C128.894 6.06885 129.683 6.0472 130.153 6.00391C130.623 5.96061 130.913 5.90186 131.025 5.82764C131.136 5.74723 131.235 5.61117 131.322 5.41943C131.377 5.28337 131.485 4.82878 131.646 4.05566L131.767 4.04639L132.305 4.05566C132.33 4.60612 132.342 5.0236 132.342 5.30811C132.342 5.95752 132.336 6.375 132.323 6.56055C132.317 6.74609 132.314 6.89144 132.314 6.99658C132.314 7.16357 132.323 7.43262 132.342 7.80371C132.361 8.16862 132.37 8.44075 132.37 8.62012V8.82422H131.711C131.686 8.72526 131.64 8.52116 131.572 8.21191C131.448 7.63672 131.337 7.27799 131.238 7.13574C131.164 7.02441 131.04 6.94092 130.867 6.88525C130.743 6.84196 130.286 6.82031 129.494 6.82031C128.56 6.82031 127.858 6.84505 127.388 6.89453C127.382 7.05534 127.379 7.16048 127.379 7.20996C127.379 7.94596 127.391 8.55827 127.416 9.04688L127.397 11.0508C127.397 11.2858 127.481 11.4466 127.648 11.5332C127.901 11.6631 128.677 11.728 129.976 11.728C130.836 11.728 131.566 11.6631 132.166 11.5332C132.58 11.4404 132.945 11.2332 133.26 10.9116C133.681 10.4972 134.031 9.91585 134.309 9.16748C134.501 9.14893 134.658 9.13965 134.782 9.13965C134.85 9.13965 134.952 9.14274 135.088 9.14893C135.07 9.30355 135.054 9.43343 135.042 9.53857L134.986 9.81689L134.643 11.5703L134.476 12.6279C134.074 12.6465 133.755 12.6558 133.52 12.6558C133.174 12.6558 132.249 12.6248 130.746 12.563C129.689 12.5197 128.415 12.498 126.924 12.498C126.182 12.498 125.27 12.529 124.187 12.5908H123.798L122.675 12.6279V11.9878C122.793 11.9569 123.028 11.9229 123.38 11.8857C124.023 11.8115 124.469 11.7126 124.716 11.5889C124.784 11.4095 124.818 11.1838 124.818 10.9116C124.818 10.8065 124.815 10.6271 124.809 10.3735L124.818 10.0859L124.79 6.58838L124.8 5.54004L124.753 4.05566L124.762 3.00732L124.679 1.85693C124.679 1.82601 124.673 1.76416 124.66 1.67139C124.599 1.60335 124.506 1.56006 124.382 1.5415C124.314 1.52913 124.221 1.51058 124.104 1.48584C123.751 1.41162 123.411 1.36833 123.083 1.35596C122.966 1.34977 122.83 1.3374 122.675 1.31885L122.721 0.57666Z" fill="#333333"/>
</svg>
