<svg width="193" height="29" viewBox="0 0 193 29" fill="none" xmlns="http://www.w3.org/2000/svg">
<path d="M0.344238 28.2871L3.06738 0.484375H10.2085L11.6558 11.0913C11.8716 12.7036 12.0493 14.2524 12.189 15.7378C12.3413 17.2104 12.4619 18.645 12.5508 20.0415C12.7793 17.5913 12.9697 15.6616 13.1221 14.2524C13.2871 12.8306 13.4204 11.7769 13.522 11.0913L15.312 0.484375H22.377L24.7192 28.2871H19.1016L18.5112 15.376C18.4985 15.0713 18.4795 14.6143 18.4541 14.0049C18.2891 10.6279 18.2065 7.86035 18.2065 5.70215L14.5884 28.2871H10.5703L7.16162 5.5498C7.16162 7.44141 7.04736 10.1455 6.81885 13.6621C6.76807 14.4619 6.72998 15.0586 6.70459 15.4521L5.84766 28.2871H0.344238Z" fill="#333333"/>
<path d="M44.4935 19.0894H48.1878C47.8069 17.147 47.4642 15.1157 47.1595 12.9956C46.8548 10.8628 46.5882 8.61572 46.3597 6.25439C46.0804 8.33643 45.782 10.4502 45.4646 12.5957C45.16 14.7285 44.8362 16.8931 44.4935 19.0894ZM37.0857 28.2871L43.5604 0.484375H49.3685L55.5384 28.2871H49.9969L49.0638 23.4121H43.4842L42.6272 28.2871H37.0857Z" fill="#333333"/>
<path d="M74.6271 12.5386C74.6905 12.5386 74.7921 12.5449 74.9317 12.5576C75.0841 12.5703 75.192 12.5767 75.2555 12.5767C76.4615 12.5767 77.3692 12.2402 77.9786 11.5674C78.588 10.8945 78.8927 9.9043 78.8927 8.59668C78.8927 7.26367 78.6134 6.29248 78.0548 5.68311C77.4962 5.07373 76.6012 4.76904 75.3697 4.76904C75.1793 4.76904 75.0333 4.77539 74.9317 4.78809C74.8302 4.78809 74.735 4.79443 74.6461 4.80713L74.6271 12.5386ZM69.2569 28.2871V0.484375H75.027C78.2008 0.484375 80.4986 1.10645 81.9205 2.35059C83.3551 3.59473 84.0724 5.58154 84.0724 8.31104C84.0724 10.2915 83.7042 11.8848 82.9679 13.0908C82.2442 14.2842 81.1461 15.1221 79.6734 15.6045L85.0055 28.2871H79.1593L74.6271 16.7852V28.2871H69.2569Z" fill="#333333"/>
<path d="M101.466 28.2871V5.62598H97.2196V0.484375H111.292V5.62598H107.046V28.2871H101.466Z" fill="#333333"/>
<path d="M129.753 19.0894H133.447C133.066 17.147 132.723 15.1157 132.419 12.9956C132.114 10.8628 131.847 8.61572 131.619 6.25439C131.34 8.33643 131.041 10.4502 130.724 12.5957C130.419 14.7285 130.095 16.8931 129.753 19.0894ZM122.345 28.2871L128.82 0.484375H134.628L140.798 28.2871H135.256L134.323 23.4121H128.743L127.886 28.2871H122.345Z" fill="#333333"/>
<path d="M154.516 28.2871V0.484375H160.134L165.751 15.4521C165.917 15.9346 166.145 16.6772 166.437 17.6802C166.742 18.6704 167.084 19.8384 167.465 21.1841C167.173 19.2163 166.958 17.4136 166.818 15.7759C166.678 14.1255 166.608 12.5894 166.608 11.1675V0.484375H171.75V28.2871H166.608L160.515 12.729C160.413 12.5005 160.146 11.5547 159.715 9.8916C159.512 9.12988 159.353 8.5332 159.239 8.10156C159.366 9.18066 159.461 10.3994 159.524 11.7578C159.588 13.1035 159.62 14.7158 159.62 16.5947V28.2871H154.516Z" fill="#333333"/>
<path d="M192.229 25.126C192.229 26.0908 191.905 26.897 191.258 27.5444C190.623 28.1919 189.829 28.5156 188.877 28.5156C187.938 28.5156 187.144 28.1919 186.497 27.5444C185.849 26.897 185.526 26.0908 185.526 25.126C185.526 24.1738 185.849 23.3804 186.497 22.7456C187.144 22.0981 187.938 21.7744 188.877 21.7744C189.817 21.7744 190.61 22.0981 191.258 22.7456C191.905 23.3804 192.229 24.1738 192.229 25.126Z" fill="#333333"/>
</svg>
